<svg width="2132" height="1489" viewBox="0 0 2132 1489" xmlns="http://www.w3.org/2000/svg">
<path d="M22.0306 734.892C17.8123 716.125 7.90054 674.872 2.00003 660C-27.8746 584.701 450.245 294.179 518.949 252.432L519.588 252.043C585.902 211.748 1914.78 -33.0744 1976.88 4.14638C2026.57 33.923 2098.87 185.078 2128.82 256.934L2100.14 748.669C2113.84 905.683 2138.95 1223.42 2129.77 1238.25C2118.3 1256.78 1978.18 1460.84 1936.79 1451.44C1903.69 1443.92 1720.96 1473.24 1633.73 1488.84C1554.56 1455.17 1395.68 1375.87 1393.52 1328.1C1391.35 1280.33 1312 1203.55 1272.6 1171.13C1138.17 1188.42 865.273 1219.88 849.116 1207.35C828.919 1191.7 754.668 1016.75 729.492 988.546C709.352 965.983 707.21 944.133 708.656 936.029L22.0306 734.892Z"/>
</svg>
