<?xml version="1.0" encoding="utf-8"?>
<!-- Generator: Adobe Illustrator 25.4.1, SVG Export Plug-In . SVG Version: 6.00 Build 0)  -->
<svg version="1.1" id="Layer_1" xmlns="http://www.w3.org/2000/svg" xmlns:xlink="http://www.w3.org/1999/xlink" x="0px" y="0px"
	 viewBox="0 0 191.7 78.9" style="enable-background:new 0 0 191.7 78.9;" xml:space="preserve">
<style type="text/css">
	.st0{fill:#939598;}
	.st1{fill-rule:evenodd;clip-rule:evenodd;}
</style>
<g>
	<path class="st0" d="M54.6,30.2v9l0,0v20.9c0.3-0.1,0.6-0.1,1-0.2c20.3-4.6,43.6-7.1,67.5-7.1c23.3,0,46.1,2.5,66.1,7
		c0.3,0.1,0.6,0.1,0.9,0.2V40.7v-1.5v-9H54.6L54.6,30.2z"/>
	<path d="M57.9,74.2c0-0.3,0-0.6-0.3-1c-0.4-0.5-1-0.5-1.3-0.5c-1.2,0-1.7,0.8-1.7,1.9v1.1c0,0.5,0.1,1.1,0.5,1.5
		c0.4,0.4,1,0.4,1.2,0.4c1.5,0,1.6-1.1,1.6-1.6h-1c0,0.4-0.1,0.7-0.5,0.7c-0.5,0-0.6-0.2-0.6-0.8v-1.3c0-0.3,0-0.8,0.6-0.8
		c0.4,0,0.5,0.3,0.5,0.5H57.9L57.9,74.2z"/>
	<path d="M59.1,77.4h1.2v-3.2c0.3-0.3,0.5-0.4,0.8-0.4c0.4,0,0.4,0.4,0.4,0.7v2.9h1.2v-3.3c0-0.3,0-0.6-0.2-0.9
		c-0.2-0.3-0.5-0.4-0.9-0.4c-0.5,0-0.9,0.2-1.3,0.8h-0.1l0-0.6v-1.8h-1.2V77.4L59.1,77.4z"/>
	<path class="st1" d="M64.1,74c0.2-0.2,0.6-0.5,1.1-0.5c0.2,0,0.4,0.1,0.5,0.2c0.1,0.1,0.1,0.2,0.1,0.7c-0.4,0-0.9,0.1-1.3,0.3
		c-0.8,0.4-1,1-1,1.5c0,1,0.7,1.3,1.2,1.3c0.4,0,0.7-0.2,0.8-0.2c0.2-0.1,0.3-0.2,0.4-0.4h0c0.1,0.2,0.4,0.6,0.9,0.6h0.4v-0.8
		c-0.2,0-0.3-0.3-0.3-0.3v-2.2c0-0.2,0-0.6-0.3-0.9c-0.4-0.4-1-0.4-1.4-0.4c-1,0-1.4,0.3-1.7,0.6L64.1,74L64.1,74z M65.8,75.8
		c0,0.3-0.1,0.9-0.7,0.9c-0.3,0-0.5-0.2-0.5-0.6c0-0.8,0.9-0.9,1.1-1V75.8L65.8,75.8z"/>
	<path class="st1" d="M68.1,77.4h1.2v-4.6h-1.2V77.4L68.1,77.4z M69.3,71.1h-1.2v1h1.2V71.1L69.3,71.1z"/>
	<path d="M70.4,77.4h1.2v-2.7c0.5-0.4,0.8-0.4,1.3-0.4v-1.6c-0.4,0-0.9,0.2-1.4,1.2h0v-1h-1.2V77.4L70.4,77.4z"/>
	<path class="st1" d="M76.9,75.4c0-1.2,0-1.6-0.3-2c-0.2-0.3-0.6-0.6-1.3-0.6c-0.4,0-1,0.1-1.4,0.6c-0.3,0.5-0.3,1.3-0.3,2.1
		c0,0,0,0.6,0.1,0.9c0.3,1,1.2,1.2,1.8,1.2c0.6,0,1-0.1,1.4-0.3l-0.1-0.9c-0.5,0.3-0.8,0.3-1.2,0.3c-0.8,0-0.8-0.8-0.8-1.2H76.9
		L76.9,75.4z M74.7,74.7c0-0.6,0-1.2,0.6-1.2c0.6,0,0.6,0.5,0.6,1.2H74.7L74.7,74.7z"/>
	<path class="st1" d="M83.5,75.4c0-1.2,0-1.6-0.3-2c-0.2-0.3-0.6-0.6-1.3-0.6c-0.4,0-1,0.1-1.4,0.6c-0.3,0.5-0.3,1.3-0.3,2.1
		c0,0,0,0.6,0.1,0.9c0.3,1,1.2,1.2,1.8,1.2c0.6,0,1-0.1,1.4-0.3l-0.1-0.9c-0.5,0.3-0.8,0.3-1.2,0.3c-0.8,0-0.8-0.8-0.8-1.2H83.5
		L83.5,75.4z M81.3,74.7c0-0.6,0-1.2,0.5-1.2c0.6,0,0.6,0.5,0.6,1.2H81.3L81.3,74.7z"/>
	<path d="M84.7,77.4h1.2v-3.1c0.2-0.2,0.4-0.5,0.8-0.5c0.4,0,0.4,0.4,0.4,0.6v3h1.2v-3.3c0-0.3,0-1.3-1.2-1.3c-0.6,0-1,0.4-1.3,0.9
		h0v-0.8h-1.1V77.4L84.7,77.4z"/>
	<path class="st1" d="M91.7,78.9h1.2v-2.1H93c0.2,0.4,0.6,0.7,1.1,0.7c0.5,0,0.8-0.2,0.9-0.4c0.2-0.3,0.2-0.7,0.2-1.7
		c0-0.7,0-1.3-0.1-1.7c-0.1-0.4-0.3-0.9-1.1-0.9c-0.5,0-1,0.3-1.2,0.8h-0.1v-0.7h-1.1V78.9L91.7,78.9z M92.9,74.1
		c0.1-0.2,0.4-0.3,0.7-0.3c0.1,0,0.4,0,0.5,0.5c0,0.1,0,0.9,0,1c0,0.9,0,1.2-0.5,1.2c-0.3,0-0.5-0.2-0.7-0.3V74.1L92.9,74.1z"/>
	<path class="st1" d="M96.7,74c0.2-0.2,0.6-0.5,1.1-0.5c0.2,0,0.4,0.1,0.5,0.2c0.1,0.1,0.1,0.2,0.1,0.7c-0.4,0-0.9,0.1-1.3,0.3
		c-0.8,0.4-1,1-1,1.5c0,1,0.7,1.3,1.2,1.3c0.4,0,0.7-0.2,0.8-0.2c0.2-0.1,0.3-0.2,0.4-0.4h0c0.1,0.2,0.4,0.6,0.9,0.6h0.4v-0.8
		c-0.2,0-0.3-0.3-0.3-0.3v-2.2c0-0.2,0-0.6-0.3-0.9c-0.4-0.4-1-0.4-1.4-0.4c-1,0-1.4,0.3-1.7,0.6L96.7,74L96.7,74z M98.4,75.8
		c0,0.3-0.1,0.9-0.7,0.9c-0.3,0-0.5-0.2-0.5-0.6c0-0.8,0.9-0.9,1.1-1V75.8L98.4,75.8z"/>
	<path d="M100.4,72.8l1.3,4.1c0,0.3,0,0.4-0.2,0.6c-0.1,0.1-0.2,0.3-0.6,0.3l-0.4-0.1v1c0.2,0,0.3,0.1,0.6,0.1
		c0.9,0,1.4-0.3,1.8-1.8l1.1-4.2h-1.2l-0.6,2.2h-0.1l-0.7-2.2H100.4L100.4,72.8z"/>
	<path d="M107.8,73.2c-0.2-0.2-0.8-0.5-1.4-0.5c-0.2,0-0.6,0-0.9,0.2c-0.5,0.3-0.6,0.7-0.6,1.2c0,0.7,0.4,1.1,1.4,1.6
		c0.4,0.2,0.5,0.2,0.5,0.5c0,0.2-0.1,0.4-0.5,0.4c-0.5,0-0.7-0.3-1-0.5l-0.5,0.8c0.2,0.2,0.7,0.6,1.5,0.6c0.5,0,1.5-0.3,1.5-1.5
		c0-1-0.7-1.3-1.4-1.6c-0.4-0.2-0.6-0.3-0.6-0.5c0-0.2,0.2-0.4,0.5-0.4c0.3,0,0.5,0.1,0.9,0.4L107.8,73.2L107.8,73.2z"/>
	<path class="st1" d="M109.1,74c0.2-0.2,0.6-0.5,1.1-0.5c0.2,0,0.4,0.1,0.5,0.2c0.1,0.1,0.1,0.2,0.1,0.7c-0.4,0-0.9,0.1-1.3,0.3
		c-0.8,0.4-1,1-1,1.5c0,1,0.7,1.3,1.2,1.3c0.4,0,0.7-0.2,0.8-0.2c0.2-0.1,0.3-0.2,0.4-0.4h0c0.1,0.2,0.4,0.6,0.9,0.6h0.4v-0.8
		c-0.2,0-0.3-0.3-0.3-0.3v-2.2c0-0.2,0-0.6-0.3-0.9c-0.4-0.4-1-0.4-1.4-0.4c-1,0-1.4,0.3-1.7,0.6L109.1,74L109.1,74z M110.7,75.8
		c0,0.3-0.1,0.9-0.7,0.9c-0.3,0-0.5-0.2-0.5-0.6c0-0.8,0.9-0.9,1.1-1V75.8L110.7,75.8z"/>
	<path class="st1" d="M113.1,78.2c0.1,0.3,0.5,0.7,1.6,0.7c1.9,0,1.9-1.4,1.9-2.2v-3.9h-1.1v0.8h0c-0.1-0.3-0.2-0.4-0.4-0.5
		c-0.2-0.1-0.4-0.3-0.9-0.3c-1.2,0-1.2,1.3-1.2,1.7v1.3c0,0.2,0,0.5,0.1,0.8c0.1,0.3,0.5,0.7,1,0.7c0.6,0,1-0.3,1.2-0.7h0v0.7
		c0,0.2,0,0.4-0.1,0.5c-0.1,0.3-0.5,0.4-0.7,0.4c-0.4,0-0.6-0.3-0.7-0.4L113.1,78.2L113.1,78.2z M115.4,75.9
		c-0.1,0.1-0.3,0.3-0.6,0.3c-0.2,0-0.4-0.1-0.4-0.3c-0.1-0.2-0.1-0.8-0.1-1c0-0.2,0-0.6,0.1-0.8c0.1-0.2,0.2-0.3,0.4-0.3
		c0.2,0,0.5,0.1,0.6,0.3V75.9L115.4,75.9z"/>
	<path class="st1" d="M120.9,75.4c0-1.2,0-1.6-0.3-2c-0.2-0.3-0.6-0.6-1.3-0.6c-0.4,0-1,0.1-1.4,0.6c-0.3,0.5-0.3,1.3-0.3,2.1
		c0,0,0,0.6,0.1,0.9c0.3,1,1.2,1.2,1.8,1.2c0.6,0,1-0.1,1.4-0.3l-0.1-0.9c-0.5,0.3-0.8,0.3-1.2,0.3c-0.8,0-0.8-0.8-0.8-1.2H120.9
		L120.9,75.4z M118.8,74.7c0-0.6,0-1.2,0.6-1.2c0.6,0,0.6,0.5,0.6,1.2H118.8L118.8,74.7z"/>
	<path class="st1" d="M127.5,75.4c0-1.2,0-1.6-0.3-2c-0.2-0.3-0.6-0.6-1.3-0.6c-0.4,0-1,0.1-1.4,0.6c-0.3,0.5-0.3,1.3-0.3,2.1
		c0,0,0,0.6,0.1,0.9c0.3,1,1.2,1.2,1.8,1.2c0.6,0,1-0.1,1.4-0.3l-0.1-0.9c-0.5,0.3-0.8,0.3-1.2,0.3c-0.8,0-0.8-0.8-0.8-1.2H127.5
		L127.5,75.4z M125.4,74.7c0-0.6,0-1.2,0.5-1.2c0.6,0,0.6,0.5,0.6,1.2H125.4L125.4,74.7z"/>
	<path d="M128.3,73.7h0.7v2.5c0,1.2,0.9,1.2,1.4,1.2c0.2,0,0.2,0,0.7-0.1v-0.9c-0.2,0-0.3,0-0.3,0c-0.6,0-0.6-0.2-0.6-0.4v-2.4h0.9
		v-0.9h-0.9v-1.7h-1.2v1.7h-0.7V73.7L128.3,73.7z"/>
	<path class="st1" d="M137.5,75.4c0-1.2,0-1.6-0.3-2c-0.2-0.3-0.6-0.6-1.3-0.6c-0.4,0-1,0.1-1.4,0.6c-0.3,0.5-0.3,1.3-0.3,2.1
		c0,0,0,0.6,0.1,0.9c0.3,1,1.2,1.2,1.8,1.2c0.6,0,1-0.1,1.4-0.3l-0.1-0.9c-0.5,0.3-0.8,0.3-1.2,0.3c-0.8,0-0.8-0.8-0.8-1.2H137.5
		L137.5,75.4z M135.3,74.7c0-0.6,0-1.2,0.6-1.2c0.6,0,0.6,0.5,0.6,1.2H135.3L135.3,74.7z"/>
	<path d="M138.6,77.4h1.2v-3.1c0.2-0.2,0.4-0.5,0.8-0.5c0.4,0,0.4,0.4,0.4,0.6v3h1.2v-3.3c0-0.3,0-1.3-1.2-1.3c-0.6,0-1,0.4-1.3,0.9
		h0v-0.8h-1.1V77.4L138.6,77.4z"/>
	<path d="M142.8,72.8l1.3,4.6h1.2l1.2-4.6h-1.2l-0.4,1.7c-0.1,0.4-0.1,0.5-0.2,0.8h0l-0.2-0.7l-0.5-1.8H142.8L142.8,72.8z"/>
	<path class="st1" d="M147.3,77.4h1.2v-4.6h-1.2V77.4L147.3,77.4z M148.5,71.1h-1.2v1h1.2V71.1L148.5,71.1z"/>
	<path d="M149.6,77.4h1.2v-2.7c0.5-0.4,0.8-0.4,1.3-0.4v-1.6c-0.4,0-0.9,0.2-1.4,1.2h0v-1h-1.2V77.4L149.6,77.4z"/>
	<path class="st1" d="M154.2,74.5c0-0.4,0-0.9,0.6-0.9c0.6,0,0.6,0.6,0.6,1.3c0,1.2,0,1.6-0.6,1.6c-0.1,0-0.4,0-0.5-0.4
		c0-0.1-0.1-0.6-0.1-0.7V74.5L154.2,74.5z M153,75c0,1.1,0,1.9,0.8,2.3c0.3,0.2,0.8,0.2,1,0.2c0.8,0,1.1-0.3,1.2-0.4
		c0.5-0.5,0.5-1,0.5-1.9c0-0.8-0.1-1.3-0.3-1.7c-0.4-0.7-1.1-0.7-1.6-0.7C153,72.7,153,74.1,153,75L153,75z"/>
	<path d="M157.7,77.4h1.2v-3.1c0.2-0.2,0.4-0.5,0.8-0.5c0.4,0,0.4,0.4,0.4,0.6v3h1.2v-3.3c0-0.3,0-1.3-1.2-1.3c-0.6,0-1,0.4-1.3,0.9
		h0v-0.8h-1.1V77.4L157.7,77.4z"/>
	<path d="M162.5,77.4h1.2v-3.1c0.2-0.2,0.4-0.5,0.8-0.5c0.4,0,0.4,0.4,0.4,0.6v3h1.2v-3.3c0-0.3,0-1.3-1.2-1.3c-0.6,0-1,0.4-1.3,0.9
		h0v-0.8h-1.1V77.4L162.5,77.4z"/>
	<path class="st1" d="M170.3,75.4c0-1.2,0-1.6-0.3-2c-0.2-0.3-0.6-0.6-1.3-0.6c-0.4,0-1,0.1-1.4,0.6c-0.3,0.5-0.3,1.3-0.3,2.1
		c0,0,0,0.6,0.1,0.9c0.3,1,1.2,1.2,1.8,1.2c0.6,0,1-0.1,1.4-0.3l-0.1-0.9c-0.5,0.3-0.8,0.3-1.2,0.3c-0.8,0-0.8-0.8-0.8-1.2H170.3
		L170.3,75.4z M168.2,74.7c0-0.6,0-1.2,0.5-1.2c0.6,0,0.6,0.5,0.6,1.2H168.2L168.2,74.7z"/>
	<path d="M171.5,77.4h1.2v-3.2c0.3-0.3,0.5-0.4,0.8-0.4c0.4,0,0.4,0.4,0.4,0.6v3h1.2v-3.2c0.4-0.4,0.6-0.4,0.7-0.4
		c0.4,0,0.4,0.3,0.4,0.5v3.1h1.2v-2.9c0-0.3,0-0.9-0.1-1.1c-0.1-0.4-0.5-0.7-1-0.7c-0.8,0-1.2,0.5-1.4,0.9h0c-0.1-0.2-0.2-0.9-1-0.9
		c-0.2,0-0.8,0.1-1.3,1h0v-0.9h-1.1V77.4L171.5,77.4z"/>
	<path class="st1" d="M181.7,75.4c0-1.2,0-1.6-0.3-2c-0.2-0.3-0.6-0.6-1.3-0.6c-0.4,0-1,0.1-1.4,0.6c-0.3,0.5-0.3,1.3-0.3,2.1
		c0,0,0,0.6,0.1,0.9c0.3,1,1.2,1.2,1.8,1.2c0.6,0,1-0.1,1.4-0.3l-0.1-0.9c-0.5,0.3-0.8,0.3-1.2,0.3c-0.8,0-0.8-0.8-0.8-1.2H181.7
		L181.7,75.4z M179.6,74.7c0-0.6,0-1.2,0.5-1.2c0.6,0,0.6,0.5,0.6,1.2H179.6L179.6,74.7z"/>
	<path d="M182.9,77.4h1.2v-3.1c0.2-0.2,0.4-0.5,0.8-0.5c0.4,0,0.4,0.4,0.4,0.6v3h1.2v-3.3c0-0.3,0-1.3-1.2-1.3c-0.6,0-1,0.4-1.3,0.9
		h0v-0.8h-1.1V77.4L182.9,77.4z"/>
	<path d="M187.2,73.7h0.7v2.5c0,1.2,0.9,1.2,1.4,1.2c0.2,0,0.2,0,0.7-0.1v-0.9c-0.2,0-0.3,0-0.3,0c-0.6,0-0.6-0.2-0.6-0.4v-2.4h0.9
		v-0.9h-0.9v-1.7h-1.2v1.7h-0.7V73.7L187.2,73.7z"/>
	<path d="M46.4,10.6v3l0,0.1l-0.1,0h-1.5l-0.1,0l0-0.1v-2.7c0-0.8-0.5-1.2-1-1.2c-0.6,0-1,0.4-1,1.2v2.7l0,0.1l-0.1,0h-1.5l-0.1,0
		l0-0.1v-2.7c0-1.5,1.2-2.7,2.7-2.7c0.6,0,1.2,0.2,1.7,0.6l0,0.1l0-0.1c0-0.1,0.1-0.1,0.1-0.1l0.1,0l-0.1,0c-0.4-0.4-0.6-1-0.6-1.7
		v-6l0-0.1l0.1,0h1.5l0.1,0l0,0.1v6c0,0.6,0.4,1,0.8,1s0.8-0.3,0.8-1v-6l0-0.1l0.1,0h1.5l0.1,0l0,0.1v6c0,0.6-0.2,1.2-0.6,1.7
		l-0.1,0l0.1,0c0.1,0,0.1,0.1,0.1,0.1l0,0.1l0-0.1c0.5-0.4,1-0.6,1.7-0.6c1.5,0,2.7,1.2,2.7,2.7v2.7l0,0.1l-0.1,0h-1.5l-0.1,0l0-0.1
		v-2.7c0-0.8-0.5-1.2-1-1.2c-0.6,0-1,0.4-1,1.2v2.7l0,0.1l-0.1,0h-1.5l-0.1,0l0-0.1v-3c0-0.8-0.5-1.2-1.1-1.2
		C46.9,9.4,46.4,9.8,46.4,10.6L46.4,10.6z"/>
	<path d="M13.7,20.4c-0.2,0.2-0.5,0.3-0.9,0.3c-0.5,0-1-0.4-1-1.4c0-1.1,0.4-1.6,1-1.6c0.4,0,0.7,0.1,0.9,0.4V20.4L13.7,20.4z
		 M13.7,21.1h1.5v-0.2l-0.6-0.1v-5.2h-1.6v0.2l0.6,0.2v1.8c-0.3-0.2-0.7-0.4-1.2-0.4c-1,0-1.7,0.8-1.7,2c0,1.2,0.6,1.9,1.7,1.9
		c0.5,0,0.9-0.2,1.2-0.5V21.1L13.7,21.1z"/>
	<polygon points="28.1,15.5 28.1,15.7 27.6,15.9 27.6,20.7 28.1,20.9 28.1,21.1 25.7,21.1 25.7,20.9 26.5,20.7 26.5,16.9 24.7,21.1 
		24.3,21.1 22.5,16.8 22.5,20.7 23.3,20.9 23.3,21.1 21.5,21.1 21.5,20.9 22,20.8 22,15.9 21.5,15.7 21.5,15.5 23.1,15.5 24.8,19.8 
		26.6,15.5 28.1,15.5 	"/>
	<path d="M30.5,17.5c0.7,0,1,0.7,1,1.7c0,0.9-0.3,1.7-1,1.7c-0.7,0-1-0.8-1-1.7C29.5,18.3,29.9,17.5,30.5,17.5L30.5,17.5z
		 M30.5,17.2c-1.1,0-2.1,0.8-2.1,2c0,1.2,1,2,2.1,2c1.1,0,2.1-0.8,2.1-2C32.6,18,31.6,17.2,30.5,17.2L30.5,17.2z"/>
	<path d="M50.5,20.4c-0.2,0.1-0.4,0.3-0.7,0.3c-0.5,0-0.6-0.3-0.6-0.7c0-0.4,0.2-0.6,0.7-0.7l0.6-0.1V20.4L50.5,20.4z M50.5,18.4V19
		l-0.9,0c-0.8,0-1.3,0.5-1.3,1.1c0,0.6,0.5,1,1.1,1c0.5,0,0.9-0.2,1.1-0.4v0.3h1.4v-0.2l-0.5-0.1v-2.5c0-0.6-0.4-1-1.2-1
		c-0.8,0-1.4,0.2-1.7,0.4v0.9H49l0.1-0.7c0.1,0,0.4-0.1,0.8-0.1C50.5,17.7,50.5,18.1,50.5,18.4L50.5,18.4z"/>
	<polygon points="54.5,20.9 54.5,21.1 52.4,21.1 52.4,20.9 52.9,20.8 52.9,15.9 52.4,15.7 52.4,15.5 53.9,15.5 53.9,20.8 54.5,20.9 
			"/>
	<path d="M5.8,8.5L5,8.4V8.2h1.9v0.2L6.3,8.5v3.3c0,1.4-0.8,2-2.3,2c-1.6,0-2.2-0.6-2.2-1.9V8.5L1.2,8.4V8.2h2.4v0.2L2.8,8.5v3.4
		c0,1,0.3,1.5,1.4,1.5c1.2,0,1.6-0.5,1.6-1.6V8.5L5.8,8.5z"/>
	<path d="M9.1,13.5v0.2H7.1v-0.2l0.6-0.1v-3.2l-0.5-0.1V9.9h1.5v0.6c0.2-0.1,0.7-0.6,1.4-0.6c0.7,0,1.1,0.4,1.1,1.1v2.4l0.5,0.1v0.2
		h-2v-0.2l0.5-0.1v-2.3c0-0.4-0.1-0.7-0.6-0.7c-0.4,0-0.8,0.3-0.9,0.4v2.6L9.1,13.5L9.1,13.5z"/>
	<polygon points="13.5,13.4 14,13.5 14,13.7 11.9,13.7 11.9,13.5 12.5,13.4 12.5,10.3 12,10.1 12,9.9 13.5,9.9 13.5,13.4 	"/>
	<path d="M13.5,8.6c0,0.3-0.3,0.5-0.6,0.5c-0.3,0-0.6-0.2-0.6-0.5c0-0.3,0.3-0.5,0.6-0.5C13.3,8.1,13.5,8.3,13.5,8.6L13.5,8.6z"/>
	<polygon points="30.1,13.4 30.7,13.5 30.7,13.7 28.6,13.7 28.6,13.5 29.2,13.4 29.2,10.3 28.7,10.1 28.7,9.9 30.1,9.9 30.1,13.4 	
		"/>
	<path d="M30.2,8.6c0,0.3-0.3,0.5-0.6,0.5c-0.3,0-0.6-0.2-0.6-0.5c0-0.3,0.3-0.5,0.6-0.5C29.9,8.1,30.2,8.3,30.2,8.6L30.2,8.6z"/>
	<polygon points="14.3,10.2 14.1,10.1 14.1,9.9 15.9,9.9 15.9,10.1 15.3,10.2 16.2,12.5 17,10.2 16.5,10.1 16.5,9.9 17.7,9.9 
		17.7,10.1 17.4,10.2 16,13.8 15.7,13.8 14.3,10.2 	"/>
	<path d="M20.4,11.3h-1.5c0.1-0.6,0.3-1.1,0.8-1.1C20.2,10.2,20.4,10.8,20.4,11.3L20.4,11.3z M18.8,11.6h2.5c0-1-0.6-1.7-1.7-1.7
		c-1.1,0-1.9,0.9-1.9,2c0,1.2,0.8,2,1.9,2c1,0,1.4-0.4,1.7-0.6l-0.2-0.3c-0.2,0.1-0.7,0.4-1.4,0.4C19.1,13.3,18.8,12.5,18.8,11.6
		L18.8,11.6z"/>
	<path d="M27.8,10.1L27.8,11h-0.3l-0.1-0.6c-0.1-0.1-0.3-0.2-0.7-0.2c-0.3,0-0.5,0.2-0.5,0.5c0,0.4,0.4,0.5,0.9,0.7
		c0.4,0.2,1.1,0.4,1.1,1.1c0,0.8-0.6,1.3-1.4,1.3c-0.7,0-1.1-0.2-1.2-0.2l-0.1-1l0.4,0l0.2,0.7c0.1,0.1,0.4,0.3,0.7,0.3
		c0.5,0,0.7-0.3,0.7-0.6c0-0.4-0.6-0.6-1-0.8c-0.4-0.2-0.9-0.3-0.9-1.1c0-0.6,0.5-1.1,1.2-1.1C27.3,9.9,27.7,10,27.8,10.1L27.8,10.1
		z"/>
	<polygon points="37.1,8.7 36.8,8.1 35.5,9.2 35.7,9.5 37.1,8.7 	"/>
	<path d="M36.4,11.3h-1.5c0.1-0.6,0.3-1.1,0.8-1.1C36.2,10.2,36.4,10.8,36.4,11.3L36.4,11.3z M34.9,11.6h2.5c0-1-0.6-1.7-1.7-1.7
		c-1.1,0-1.9,0.9-1.9,2c0,1.2,0.8,2,1.9,2c1,0,1.4-0.4,1.7-0.6l-0.2-0.3c-0.2,0.1-0.7,0.4-1.4,0.4C35.2,13.3,34.8,12.5,34.9,11.6
		L34.9,11.6z"/>
	<path d="M24.5,9.9c-0.5,0-0.9,0.4-1.2,0.9h0V9.9h-1.5v0.2l0.6,0.2v3.2l-0.6,0.1v0.2h2.4v-0.2l-0.8-0.1v-2.1
		c0.2-0.5,0.6-0.7,0.8-0.7c0.2,0,0.2,0,0.3,0.1c0,0,0.2,0.1,0.3,0c0.2-0.1,0.2-0.2,0.2-0.4C25,10.1,24.8,9.9,24.5,9.9L24.5,9.9z"/>
	<path d="M35.1,20.9v0.2H33v-0.2l0.6-0.1v-3.2L33,17.5v-0.2h1.5v0.6c0.2-0.1,0.7-0.6,1.4-0.6c0.7,0,1.1,0.4,1.1,1.1v2.4l0.5,0.1v0.2
		h-2v-0.2l0.5-0.1v-2.3c0-0.4-0.1-0.7-0.6-0.7c-0.4,0-0.8,0.3-0.9,0.4v2.6L35.1,20.9L35.1,20.9z"/>
	<path d="M43.5,17.3c-0.5,0-0.9,0.4-1.2,0.9h0v-0.9h-1.5v0.2l0.6,0.2v3.2l-0.6,0.1v0.2h2.4v-0.2l-0.8-0.1v-2.1
		c0.2-0.5,0.6-0.7,0.8-0.7c0.2,0,0.2,0,0.3,0.1c0,0,0.2,0.1,0.3,0C44,18,44,17.9,44,17.7C44,17.4,43.8,17.3,43.5,17.3L43.5,17.3z"/>
	<path d="M33.5,13.3c-0.1,0.1-0.3,0.2-0.5,0.2c-0.3,0-0.5-0.2-0.5-0.8v-2.4l1-0.1V9.9h-1V8.2h-0.3c-0.1,1-0.4,1.7-1.3,1.7h-0.1v0.2
		l0.8,0.1v2.4c0,0.8,0.2,1.1,0.9,1.1c0.5,0,0.9-0.2,1.1-0.4L33.5,13.3L33.5,13.3z"/>
	<path d="M40.4,20.6c-0.1,0.1-0.3,0.2-0.5,0.2c-0.3,0-0.5-0.2-0.5-0.8v-2.4l1-0.1v-0.2h-1v-1.7h-0.3c-0.1,1-0.4,1.7-1.3,1.7h-0.1
		v0.2l0.8,0.1V20c0,0.8,0.2,1.1,0.9,1.1c0.5,0,0.9-0.2,1.1-0.4L40.4,20.6L40.4,20.6z"/>
	<path d="M18.1,18.6h-1.5c0.1-0.6,0.3-1.1,0.8-1.1C17.9,17.5,18.1,18.1,18.1,18.6L18.1,18.6z M16.6,18.9h2.5c0-1-0.6-1.7-1.7-1.7
		c-1.1,0-1.9,0.9-1.9,1.9c0,1.2,0.8,2,1.9,2c1,0,1.4-0.4,1.7-0.6L19,20.3c-0.2,0.1-0.7,0.4-1.4,0.4C16.8,20.6,16.5,19.9,16.6,18.9
		L16.6,18.9z"/>
	<path d="M46.7,18.6h-1.5c0.1-0.6,0.3-1.1,0.8-1.1C46.5,17.5,46.6,18.1,46.7,18.6L46.7,18.6z M47.4,16L47,15.5l-1.3,1l0.2,0.3
		L47.4,16L47.4,16z M45.1,18.9h2.5c0-1-0.6-1.7-1.7-1.7c-1.1,0-1.9,0.9-1.9,2c0,1.2,0.8,2,1.9,2c1,0,1.4-0.4,1.7-0.6l-0.2-0.3
		c-0.2,0.1-0.7,0.4-1.4,0.4C45.4,20.6,45.1,19.9,45.1,18.9L45.1,18.9z"/>
</g>
</svg>
