<?xml version="1.0" encoding="utf-8"?>
<!-- Generator: Adobe Illustrator 25.4.1, SVG Export Plug-In . SVG Version: 6.00 Build 0)  -->
<svg version="1.1" id="Signature" xmlns="http://www.w3.org/2000/svg" xmlns:xlink="http://www.w3.org/1999/xlink" x="0px" y="0px"
	 viewBox="0 0 474.7 111.5" style="enable-background:new 0 0 474.7 111.5;" xml:space="preserve">
<style type="text/css">
	.st0{fill-rule:evenodd;clip-rule:evenodd;}
</style>
<g>
	<g>
		<g>
			<g>
				<path d="M131.5,79.1l0-38.8h-0.3c-1.4,1.3-6.5,1.4-8.6,1.4h-3.7V42c4.3,2.7,3.7,6.6,3.7,11.5l0,16.4c0,8.2-8.1,14-14.6,14
					c-8.6,0-12.1-6.1-12.1-15.9V40.3h-0.3c-1.4,1.3-6.5,1.4-8.7,1.4h-3.7V42c4.3,2.7,3.7,6.6,3.7,11.5v16.4c0,15,6.5,22.1,18.1,22.1
					c6.9,0,14-2.4,17.5-8.3v7.1h12.7v-0.3C130.9,87.9,131.5,84,131.5,79.1z"/>
				<path d="M151.1,58.3c1.2-6.7,6.1-10.9,12.7-10.9c7.1,0,11.6,3.5,12.7,10.9H151.1z M186.9,64.5c0.4-13.7-8.8-24-22.2-24
					c-14.7,0-24.6,10.6-24.6,25.4c0,14.9,11.5,26.2,28.2,26.2c4.6,0,9.4-0.7,13.6-2.6l4.9-10h-0.3c-4.5,3.9-10.2,5.7-16.1,5.7
					c-11.1,0-19.5-7.6-19.7-20.6H186.9z"/>
				<path d="M194.7,17.8c2.4,0,7.2-0.1,8.6-1.6h0.3v67.2c2.6,0.7,5.4,1.3,8.1,1.3c10.8,0,16.9-7.5,16.9-18
					c0-10.3-4.8-18.2-14.7-18.2c-3.1,0-5.6,0.8-8.2,2.3l5.3-9c2.2-0.9,4.6-1.2,6.9-1.2c11.2,0,20.6,9.7,20.6,24.2
					c0,16.6-11.2,27.4-29,27.4c-6.6,0-13-1.2-17.9-1.9v-0.3c3.2-1.5,3-5,3-8.5V32.5c0-4.9,0.6-11.8-3.6-14.4v-0.3H194.7z"/>
				<path d="M256.1,58.3c1.2-6.7,6.1-10.9,12.7-10.9c7.1,0,11.6,3.5,12.7,10.9H256.1z M291.8,64.5c0.4-13.7-8.8-24-22.1-24
					c-14.7,0-24.6,10.6-24.6,25.4c0,14.9,11.5,26.2,28.2,26.2c4.6,0,9.4-0.7,13.6-2.6l4.9-10h-0.3c-4.5,3.9-10.2,5.7-16.1,5.7
					c-11.1,0-19.5-7.6-19.7-20.6H291.8z"/>
				<path d="M335.8,52.7h-0.3c-2.9-3.5-7.6-5.2-12-5.2c-9.5,0-16.4,7.2-16.4,17.4c0,12.3,9.5,20.4,20.5,20.4c5,0,10.5-2.1,14.4-5.2
					h0.3L337.1,90c-4.1,1.7-8.7,2.1-13,2.1c-15.2,0-27-10.7-27-24.5c0-18.3,13.2-27.1,28.1-27.1c3.5,0,7.2,0.4,10.6,1.3V52.7z"/>
				<path class="st0" d="M174.6,31.7c0-5,0-10.7,0-10.7c-6.5,2.9-12.4,8.3-16.4,13.6v4.2C167.7,32.3,174.6,32,174.6,31.7z"/>
				<path d="M42.7,84.8c-14.9,0-25.2-16.8-25.2-31c0-0.1,0-1.5,0-1.6c0.2-13.8,9.1-26.7,24.7-26.7c16.4,0,24.9,15.5,25,30.2
					c0,0.1,0,1.4,0,1.5C67.2,72.8,57.4,84.8,42.7,84.8z M93.6,101.1c-11,1.8-21.5-1.7-32.7-14.5c10.8-5.4,17.5-19,17.5-31.5
					c0-0.1,0-1.4,0-1.6C78.2,32,62.1,17.7,42.8,17.7c-19.3,0-36.4,14.8-36.5,36.5c0,0.1,0,1.4,0,1.5c0,21.1,15.7,36.8,34.9,36.8
					c2.8,0,5.4-0.4,8.1-1.1C61.7,103.2,73,108.2,82.6,107c4.6-0.6,9.4-2.4,12.4-6.2L93.6,101.1z"/>
			</g>
		</g>
		<g>
			<path class="st0" d="M359.8,17.8v29.4h48V17.8H359.8z M395.6,34.7c-0.6,1.8-1.6,2.4-1.9,2.4c0,0,0.5-2-1-3
				c-1.4-1-3.1-0.4-3.8,0.8c-0.7,1.1-0.9,2.6-0.9,2.6h2.5v1.9l-5,0c0,0,0.1,2.6,2.9,2.4c0,0-0.3,2.1-2.9,1c0,0,0.1,2.2-1.6,3.2
				c-1.8-1.1-1.6-3.2-1.6-3.2c-2.5,1.1-2.9-1-2.9-1c2.8,0.3,2.9-2.4,2.9-2.4l-5,0v-1.9h2.5c0,0-0.1-1.5-0.9-2.6
				c-0.8-1.2-2.5-1.7-3.8-0.8c-1.5,1-1,3-1,3c-0.3,0-1.3-0.6-1.9-2.4c-1.1-3.5,2.3-6.8,5.8-4.9c2.4,1.4,3.5,4.4,3.5,7.7h1.3
				c0-0.2,0.3-2.6-0.2-4.4c-0.4-1.4-0.9-2.8-1.7-4.6c-0.7-1.5-1-4.1,0.5-6c1.3-1.7,2.1-2.6,2.5-3.2c0.4,0.6,1.1,1.6,2.5,3.2
				c1.5,1.9,1.3,4.5,0.5,6c-0.8,1.7-1.3,3.2-1.7,4.6c-0.5,1.8-0.2,4.2-0.2,4.4h1.3c0-3.2,1-6.3,3.5-7.7
				C393.2,27.9,396.6,31.2,395.6,34.7z"/>
			<path class="st0" d="M421.8,17.8v29.4h48V17.8H421.8z M457.5,34.7c-0.6,1.8-1.6,2.4-1.9,2.4c0,0,0.5-2-1-3
				c-1.4-1-3.1-0.4-3.8,0.8c-0.7,1.1-0.9,2.6-0.9,2.6h2.5v1.9l-5,0c0,0,0.1,2.6,2.9,2.4c0,0-0.3,2.1-2.9,1c0,0,0.1,2.2-1.6,3.2
				c-1.8-1.1-1.6-3.2-1.6-3.2c-2.5,1.1-2.9-1-2.9-1c2.8,0.3,2.9-2.4,2.9-2.4l-5,0v-1.9h2.5c0,0-0.1-1.5-0.9-2.6
				c-0.8-1.2-2.5-1.7-3.8-0.8c-1.5,1-1,3-1,3c-0.3,0-1.3-0.6-1.9-2.4c-1.1-3.5,2.3-6.8,5.8-4.9c2.5,1.4,3.5,4.4,3.5,7.7h1.3
				c0-0.2,0.3-2.6-0.2-4.4c-0.4-1.4-0.9-2.8-1.7-4.6c-0.7-1.5-1-4.1,0.5-6c1.3-1.7,2.1-2.6,2.5-3.2c0.3,0.6,1.1,1.6,2.4,3.2
				c1.5,1.9,1.3,4.5,0.5,6c-0.8,1.7-1.3,3.2-1.7,4.6c-0.5,1.8-0.2,4.2-0.2,4.4h1.3c0-3.2,1-6.3,3.5-7.7
				C455.2,27.9,458.6,31.2,457.5,34.7z"/>
		</g>
		<g>
			<path class="st0" d="M359.8,61.2v29.4h48V61.2H359.8z M395.6,78.2c-0.6,1.8-1.6,2.4-1.9,2.4c0,0,0.5-2-1-3
				c-1.4-1-3.1-0.4-3.8,0.8c-0.7,1.1-0.9,2.6-0.9,2.6h2.5v1.8h-5c0,0,0.1,2.6,2.9,2.4c0,0-0.3,2.1-2.9,1c0,0,0.1,2.2-1.6,3.2
				c-1.8-1.1-1.6-3.2-1.6-3.2c-2.5,1.1-2.9-1-2.9-1c2.8,0.2,2.9-2.4,2.9-2.4h-5v-1.8h2.5c0,0-0.1-1.5-0.9-2.6
				c-0.8-1.1-2.5-1.7-3.8-0.8c-1.5,1-1,3-1,3c-0.3,0-1.3-0.6-1.9-2.4c-1.1-3.5,2.3-6.8,5.8-4.9c2.4,1.4,3.5,4.4,3.5,7.7h1.3
				c0-0.2,0.3-2.6-0.2-4.4c-0.4-1.4-0.9-2.8-1.7-4.6c-0.7-1.5-1-4.1,0.5-6c1.3-1.7,2.1-2.6,2.5-3.2c0.4,0.6,1.1,1.6,2.5,3.2
				c1.5,1.9,1.3,4.5,0.5,6c-0.8,1.7-1.3,3.2-1.7,4.6c-0.5,1.8-0.2,4.2-0.2,4.4h1.3c0-3.2,1-6.3,3.5-7.7
				C393.2,71.3,396.6,74.7,395.6,78.2z"/>
			<path class="st0" d="M421.8,61.2v29.4h48V61.2H421.8z M457.5,78.2c-0.6,1.8-1.6,2.4-1.9,2.4c0,0,0.5-2-1-3
				c-1.4-1-3.1-0.4-3.8,0.8c-0.7,1.1-0.9,2.6-0.9,2.6h2.5v1.8h-5c0,0,0.1,2.6,2.9,2.4c0,0-0.3,2.1-2.9,1c0,0,0.1,2.2-1.6,3.2
				c-1.8-1.1-1.6-3.2-1.6-3.2c-2.5,1.1-2.9-1-2.9-1c2.8,0.2,2.9-2.4,2.9-2.4h-5v-1.8h2.5c0,0-0.1-1.5-0.9-2.6
				c-0.8-1.1-2.5-1.7-3.8-0.8c-1.5,1-1,3-1,3c-0.3,0-1.3-0.6-1.9-2.4c-1.1-3.5,2.3-6.8,5.8-4.9c2.5,1.4,3.5,4.4,3.5,7.7h1.3
				c0-0.2,0.3-2.6-0.2-4.4c-0.4-1.4-0.9-2.8-1.7-4.6c-0.7-1.5-1-4.1,0.5-6c1.3-1.7,2.1-2.6,2.5-3.2c0.3,0.6,1.1,1.6,2.4,3.2
				c1.5,1.9,1.3,4.5,0.5,6c-0.8,1.7-1.3,3.2-1.7,4.6c-0.5,1.8-0.2,4.2-0.2,4.4h1.3c0-3.2,1-6.3,3.5-7.7
				C455.2,71.3,458.6,74.7,457.5,78.2z"/>
		</g>
	</g>
</g>
</svg>
