<svg width="200" height="200" viewBox="0 0 200 200" fill="none" xmlns="http://www.w3.org/2000/svg">
<path d="M54.3917 159.104C53.8718 158.698 53.2364 158.407 52.5431 158.407C52.0232 158.407 51.33 158.698 51.33 159.278C51.33 159.917 52.081 160.149 52.5431 160.323L53.2364 160.555C54.7383 161.02 55.8937 161.775 55.8937 163.516C55.8937 164.561 55.6626 165.665 54.7961 166.419C53.9874 167.116 52.832 167.406 51.7344 167.406C50.4057 167.406 49.077 166.942 47.9794 166.187L49.1926 163.923C49.8858 164.561 50.6946 165.026 51.6766 165.026C52.3121 165.026 53.0053 164.678 53.0053 163.923C53.0053 163.11 51.9077 162.878 51.33 162.704C49.5969 162.181 48.4416 161.775 48.4416 159.685C48.4416 157.478 50.0013 156.085 52.1388 156.085C53.2364 156.085 54.5073 156.433 55.4893 156.956L54.3917 159.104Z" fill="#231F20"/>
<path d="M64.9636 167.058H62.3641V166.245C61.9019 167 61.0354 167.29 60.1688 167.29C58.0314 167.29 56.4716 165.49 56.4716 163.4C56.4716 161.31 57.9736 159.51 60.1111 159.51C60.9198 159.51 61.8441 159.8 62.3641 160.439V159.742H64.9636V167.058ZM59.129 163.458C59.129 164.387 59.7645 165.084 60.8043 165.084C61.8441 165.084 62.4796 164.387 62.4796 163.458C62.4796 162.587 61.8441 161.832 60.8043 161.832C59.7645 161.832 59.129 162.529 59.129 163.458Z" fill="#231F20"/>
<path d="M69.2379 156.956C69.2379 157.769 68.6025 158.407 67.7937 158.407C66.9849 158.407 66.3495 157.769 66.3495 156.956C66.3495 156.143 66.9849 155.504 67.7937 155.504C68.6025 155.504 69.2379 156.143 69.2379 156.956ZM69.0646 167.058H66.465V159.743H69.0646V167.058Z" fill="#231F20"/>
<path d="M73.2246 160.729C73.86 159.859 74.5532 159.568 75.5931 159.568C77.5572 159.568 78.3082 160.787 78.3082 162.587V167.116H75.7086V163.574C75.7086 162.878 75.8242 161.658 74.5532 161.658C73.5134 161.658 73.2246 162.413 73.2246 163.342V167.116H70.625V159.8H73.2246V160.729Z" fill="#231F20"/>
<path d="M82.6407 167.058H80.0412V161.891H79.2324V159.743H80.0412V157.595H82.6407V159.801H84.085V161.949H82.6407V167.058Z" fill="#231F20"/>
<path d="M88.7058 161.426V163.574H84.662V161.426H88.7058Z" fill="#231F20"/>
<path d="M97.8337 159.917C97.256 159.162 96.3317 158.756 95.4074 158.756C93.7322 158.756 92.5768 160.091 92.5768 161.717C92.5768 163.4 93.7322 164.619 95.4652 164.619C96.3895 164.619 97.256 164.155 97.8337 163.458V166.826C96.9094 167.116 96.2162 167.348 95.4074 167.348C93.9055 167.348 92.519 166.768 91.4214 165.781C90.266 164.736 89.6884 163.342 89.6884 161.717C89.6884 160.265 90.266 158.814 91.2481 157.769C92.2879 156.665 93.7899 156.027 95.2919 156.027C96.1584 156.027 97.025 156.201 97.8337 156.549V159.917Z" fill="#231F20"/>
<path d="M107.596 163.458C107.596 165.955 105.574 167.348 103.206 167.348C100.895 167.348 98.8154 165.955 98.8154 163.458C98.8154 160.962 100.837 159.568 103.206 159.568C105.517 159.51 107.596 160.962 107.596 163.458ZM101.53 163.458C101.53 164.387 102.166 165.084 103.206 165.084C104.246 165.084 104.881 164.387 104.881 163.458C104.881 162.588 104.246 161.833 103.206 161.833C102.166 161.833 101.53 162.529 101.53 163.458Z" fill="#231F20"/>
<path d="M111.179 160.729C111.814 159.859 112.507 159.568 113.547 159.568C115.511 159.568 116.262 160.787 116.262 162.587V167.116H113.663V163.574C113.663 162.878 113.778 161.658 112.507 161.658C111.467 161.658 111.179 162.413 111.179 163.342V167.116H108.579V159.8H111.179V160.729Z" fill="#231F20"/>
<path d="M122.559 161.658C122.154 161.426 121.634 161.31 121.172 161.31C120.883 161.31 120.363 161.426 120.363 161.833C120.363 162.355 121.172 162.413 121.519 162.471C122.732 162.703 123.656 163.284 123.656 164.619C123.656 166.535 121.923 167.348 120.248 167.348C119.208 167.348 118.168 167.058 117.302 166.535L118.226 164.735C118.746 165.084 119.612 165.49 120.248 165.49C120.595 165.49 121.057 165.316 121.057 164.91C121.057 164.329 120.248 164.329 119.439 164.097C118.63 163.865 117.822 163.458 117.822 162.181C117.822 160.381 119.439 159.568 120.999 159.568C121.808 159.568 122.616 159.684 123.367 160.033L122.559 161.658Z" fill="#231F20"/>
<path d="M127.7 167.058H125.101V161.891H124.292V159.743H125.101V157.595H127.7V159.801H129.144V161.949H127.7V167.058Z" fill="#231F20"/>
<path d="M137.752 167.058H135.21V166.245C134.748 167 133.881 167.29 133.014 167.29C130.877 167.29 129.317 165.49 129.317 163.4C129.317 161.31 130.819 159.51 132.957 159.51C133.765 159.51 134.69 159.8 135.21 160.439V159.742H137.809V167.058H137.752ZM131.975 163.458C131.975 164.387 132.61 165.084 133.65 165.084C134.69 165.084 135.325 164.387 135.325 163.458C135.325 162.587 134.69 161.832 133.65 161.832C132.552 161.774 131.975 162.529 131.975 163.458Z" fill="#231F20"/>
<path d="M141.911 160.729C142.546 159.859 143.24 159.568 144.28 159.568C146.244 159.568 146.995 160.787 146.995 162.587V167.116H144.395V163.574C144.395 162.878 144.511 161.658 143.24 161.658C142.2 161.658 141.911 162.413 141.911 163.342V167.116H139.311V159.8H141.911V160.729Z" fill="#231F20"/>
<path d="M151.328 167.058H148.728V161.891H147.919V159.743H148.728V157.595H151.328V159.801H152.772V161.949H151.328V167.058Z" fill="#231F20"/>
<path d="M141.68 70.6224V54.3079H125.505V70.6224H130.877V59.7074H136.25V70.6224H141.68Z" fill="#799A02"/>
<path d="M72.7622 127.81C70.6825 126.185 68.7184 124.327 66.9276 122.353H74.6685C77.0948 124.443 79.6944 126.243 82.4673 127.81H72.7622ZM62.6527 116.953C61.4396 115.212 60.3997 113.412 59.4177 111.554H65.5989C66.7543 113.47 68.0252 115.27 69.4116 116.953H62.6527ZM53.7563 88.3885C53.7563 60.5784 76.2283 37.9935 103.899 37.9935L128.913 37.9355L124.118 43.393H104.419C80.3299 43.451 60.1109 62.4362 59.1866 86.6467C58.9555 93.5557 60.2264 100.116 62.7682 106.038H56.9336C54.9117 100.581 53.7563 94.6008 53.7563 88.3885ZM114.702 54.308L104.362 54.3661C86.0489 54.3661 70.6825 68.7646 70.0471 87.1693C69.816 94.1363 71.6068 100.639 74.9574 106.096H68.7762C66.1188 100.755 64.6168 94.7749 64.6168 88.3885C64.6168 66.5584 82.1785 48.9085 103.899 48.9085H119.439L114.702 54.308ZM114.702 65.165H104.246C92.2879 65.165 81.543 74.9769 80.8498 86.937C80.3876 94.6008 83.6804 101.51 88.9951 106.038H81.4852C77.6725 101.161 75.4195 95.0072 75.4195 88.3304C75.4195 72.5384 88.1864 59.7075 103.899 59.7075L114.76 59.6494V65.165H114.702ZM76.806 116.953C75.0729 115.27 73.5132 113.47 72.069 111.554H79.059C80.9653 113.644 83.1027 115.444 85.4713 116.953H76.806ZM103.842 144.183C124.696 144.183 142.778 132.687 152.31 115.676L147.631 113.005C139.023 128.391 122.674 138.784 103.899 138.784C97.7182 138.784 91.8258 137.68 86.3956 135.59C85.7023 135.3 85.0091 135.01 84.3159 134.719C84.1426 134.661 83.9693 134.603 83.796 134.487C82.8717 134.081 82.0051 133.674 81.1386 133.21H102.051C102.686 133.21 103.264 133.268 103.899 133.268C120.652 133.268 135.21 124.037 142.835 110.335L142.893 110.393L138.098 107.664C136.019 111.438 133.304 114.863 130.126 117.708C123.194 124.037 114.009 127.868 103.842 127.868C96.5628 127.868 89.7461 125.894 83.9115 122.411H83.9693H102.571C103.033 122.411 103.495 122.469 103.899 122.469C113.431 122.469 122.096 118.463 128.22 112.135C130.242 110.044 131.975 107.664 133.419 105.051L128.74 102.381C124.003 111.09 114.644 117.07 103.899 117.07C97.6604 117.07 91.8836 115.037 87.2043 111.612H103.611C103.726 111.612 103.784 111.612 103.899 111.612C112.622 111.612 120.19 106.735 124.003 99.768L119.324 97.0973C116.262 102.787 109.965 106.619 102.802 106.155C93.9632 105.632 86.7999 98.3746 86.28 89.4916C85.6446 79.2152 93.7899 70.6806 103.899 70.6806H120.132V56.3401L133.592 40.7803L147.053 56.282V70.6225H152.425V54.308L133.535 32.5941H103.842C73.1666 32.5941 48.3261 57.5593 48.3261 88.3885C48.3261 94.6008 49.3081 100.523 51.1567 106.096H47.2285V111.612H53.2941C54.1607 113.47 55.085 115.27 56.1248 117.011H47.2862V122.411H59.8798C61.324 124.327 62.9415 126.127 64.6168 127.868H47.2862V133.268H70.9136C73.7442 135.416 76.806 137.216 80.041 138.784H47.2862V144.183H103.842Z" fill="#799A02"/>
</svg>
