<?xml version="1.0" encoding="utf-8"?>
<!-- Generator: Adobe Illustrator 25.4.1, SVG Export Plug-In . SVG Version: 6.00 Build 0)  -->
<svg version="1.1" id="Layer_1" xmlns="http://www.w3.org/2000/svg" xmlns:xlink="http://www.w3.org/1999/xlink" x="0px" y="0px"
	 viewBox="0 0 234.7 48.8" style="enable-background:new 0 0 234.7 48.8;" xml:space="preserve">
<style type="text/css">
	.st0{fill:#74A333;}
</style>
<polygon class="st0" points="40.5,16.7 40.5,9.9 33.7,9.9 33.7,16.7 36,16.7 36,12.2 38.2,12.2 38.2,16.7 "/>
<g>
	<path class="st0" d="M11.7,40.5c-0.9-0.7-1.7-1.4-2.4-2.3h3.2c1,0.9,2.1,1.6,3.3,2.3H11.7z M7.5,36c-0.5-0.7-1-1.5-1.4-2.3h2.6
		c0.5,0.8,1,1.5,1.6,2.3H7.5z M3.8,24.1c0-11.6,9.4-20.9,20.9-20.9l10.5,0l-2,2.3h-8.2c-10.1,0-18.5,7.9-18.9,18
		c-0.1,2.9,0.4,5.6,1.5,8.1H5.1C4.2,29.2,3.8,26.7,3.8,24.1 M29.2,9.9L29.2,9.9l-4.3,0c-7.6,0-14.1,6-14.3,13.6
		c-0.1,2.9,0.7,5.6,2,7.9H10c-1.1-2.2-1.7-4.7-1.7-7.4c0-9.1,7.3-16.4,16.4-16.4l6.5,0L29.2,9.9z M29.2,14.5h-4.4
		c-5,0-9.5,4.1-9.8,9.1c-0.2,3.2,1.2,6,3.4,7.9h-3.1c-1.6-2-2.5-4.6-2.5-7.4c0-6.6,5.3-11.9,11.9-11.9l4.5,0V14.5z M13.4,36
		c-0.7-0.7-1.4-1.4-2-2.3h2.9c0.8,0.9,1.7,1.6,2.7,2.3H13.4z M24.7,47.3C24.7,47.3,24.7,47.3,24.7,47.3c8.7,0,16.3-4.8,20.2-11.9
		l-2-1.1C39.4,40.7,32.6,45,24.7,45c-2.6,0-5-0.5-7.3-1.3c-0.3-0.1-0.6-0.2-0.9-0.4c-0.1,0-0.2-0.1-0.2-0.1
		c-0.4-0.2-0.7-0.3-1.1-0.5h8.7c0.3,0,0.5,0,0.8,0c7,0,13.1-3.8,16.3-9.5l0,0v0l-2-1.1c-0.9,1.6-2,3-3.3,4.2
		c-2.9,2.6-6.7,4.2-11,4.2c-3,0-5.9-0.8-8.3-2.3h0c0,0,0,0,0,0h7.8c0.2,0,0.4,0,0.6,0c4,0,7.6-1.7,10.1-4.3c0.8-0.9,1.6-1.9,2.2-2.9
		h0c0,0,0,0,0,0l-2-1.1c-2,3.6-5.9,6.1-10.4,6.1c-2.6,0-5-0.8-7-2.3h6.9c0,0,0.1,0,0.1,0c3.6,0,6.8-2,8.4-4.9l-2-1.1
		c-1.3,2.4-3.9,4-6.9,3.8c-3.7-0.2-6.7-3.2-6.9-6.9c-0.3-4.3,3.1-7.8,7.4-7.8l6.8,0v-5.9l5.6-6.5l5.6,6.4v6H45V9.9l-7.9-9v0l-12.4,0
		C11.9,0.9,1.5,11.3,1.5,24.1c0,2.6,0.4,5,1.2,7.4H1.1v2.3h2.5C4,34.5,4.4,35.3,4.8,36H1.1v2.3h5.3c0.6,0.8,1.3,1.6,2,2.3H1.1v2.3
		h9.9c1.2,0.9,2.5,1.7,3.8,2.3H1.1v2.3L24.7,47.3L24.7,47.3z"/>
</g>
<g>
	<g>
		<path d="M65.9,21.2c-0.9-0.7-2-1.2-3.1-1.2c-0.9,0-2,0.5-2,1.5c0,1.1,1.3,1.5,2.1,1.7l1.2,0.4c2.5,0.7,4.5,2,4.5,5
			c0,1.8-0.4,3.7-1.9,4.9c-1.4,1.2-3.3,1.7-5.2,1.7c-2.3,0-4.5-0.8-6.4-2.1l2-3.8c1.2,1,2.6,1.9,4.2,1.9c1.1,0,2.3-0.6,2.3-1.8
			c0-1.3-1.9-1.8-2.9-2.1c-3-0.8-4.9-1.6-4.9-5.1c0-3.7,2.6-6.1,6.3-6.1c1.8,0,4.1,0.6,5.7,1.5L65.9,21.2z"/>
		<path d="M83.9,34.7h-4.4v-1.4h0c-0.8,1.2-2.3,1.8-3.7,1.8c-3.7,0-6.3-3.1-6.3-6.6S72,22,75.7,22c1.4,0,2.9,0.5,3.8,1.6v-1.2h4.4
			V34.7z M74,28.5c0,1.6,1,2.8,2.8,2.8s2.8-1.2,2.8-2.8c0-1.5-1-2.8-2.8-2.8S74,27,74,28.5z"/>
		<path d="M91.3,17.6c0,1.3-1.1,2.5-2.5,2.5c-1.4,0-2.5-1.1-2.5-2.5s1.1-2.5,2.5-2.5C90.1,15.2,91.3,16.3,91.3,17.6z M91,34.7h-4.4
			V22.4H91V34.7z"/>
		<path d="M98,24L98,24c1.1-1.5,2.3-2,4-2c3.3,0,4.7,2.1,4.7,5.1v7.6h-4.4v-6c0-1.2,0.2-3.2-2-3.2c-1.8,0-2.3,1.3-2.3,2.9v6.4h-4.4
			V22.4H98V24z"/>
		<path d="M114.2,34.7h-4.4V26h-1.4v-3.6h1.4v-3.7h4.4v3.7h2.5V26h-2.5V34.7z"/>
		<path d="M124.5,25.2v3.6h-6.9v-3.6H124.5z"/>
		<path d="M140.1,22.7c-1-1.3-2.5-2-4.2-2c-2.9,0-4.9,2.2-4.9,5c0,2.9,2,4.9,4.9,4.9c1.5,0,3.1-0.7,4.1-1.9v5.7
			c-1.6,0.5-2.7,0.8-4.2,0.8c-2.5,0-5-1-6.8-2.7c-2-1.8-2.9-4.2-2.9-6.9c0-2.5,0.9-4.9,2.7-6.6c1.8-1.8,4.4-2.9,6.9-2.9
			c1.5,0,2.9,0.3,4.3,0.9V22.7z"/>
		<path d="M156.7,28.5c0,4.2-3.5,6.6-7.5,6.6c-4,0-7.5-2.4-7.5-6.6s3.5-6.6,7.5-6.6C153.2,22,156.7,24.3,156.7,28.5z M146.4,28.5
			c0,1.6,1,2.8,2.8,2.8c1.8,0,2.8-1.2,2.8-2.8c0-1.5-1-2.8-2.8-2.8C147.4,25.8,146.4,27,146.4,28.5z"/>
		<path d="M162.8,24L162.8,24c1.1-1.5,2.3-2,4-2c3.3,0,4.7,2.1,4.7,5.1v7.6h-4.4v-6c0-1.2,0.2-3.2-2-3.2c-1.8,0-2.3,1.3-2.3,2.9v6.4
			h-4.4V22.4h4.4V24z"/>
		<path d="M182.3,25.5c-0.7-0.4-1.6-0.6-2.4-0.6c-0.5,0-1.4,0.2-1.4,0.8c0,0.8,1.4,1,2,1.1c2.1,0.4,3.6,1.4,3.6,3.7
			c0,3.2-3,4.6-5.9,4.6c-1.8,0-3.5-0.5-5-1.4l1.6-3.1c0.9,0.6,2.4,1.3,3.5,1.3c0.6,0,1.4-0.3,1.4-0.9c0-1-1.4-1-2.8-1.4
			s-2.8-1-2.8-3.2c0-3,2.8-4.4,5.5-4.4c1.4,0,2.8,0.2,4.1,0.8L182.3,25.5z"/>
		<path d="M191.1,34.7h-4.4V26h-1.4v-3.6h1.4v-3.7h4.4v3.7h2.5V26h-2.5V34.7z"/>
		<path d="M208.3,34.7h-4.4v-1.4h0c-0.8,1.2-2.3,1.8-3.7,1.8c-3.7,0-6.3-3.1-6.3-6.6s2.5-6.6,6.2-6.6c1.4,0,2.9,0.5,3.8,1.6v-1.2
			h4.4V34.7z M198.3,28.5c0,1.6,1,2.8,2.8,2.8s2.8-1.2,2.8-2.8c0-1.5-1-2.8-2.8-2.8S198.3,27,198.3,28.5z"/>
		<path d="M215.3,24L215.3,24c1.1-1.5,2.3-2,4-2c3.3,0,4.7,2.1,4.7,5.1v7.6h-4.4v-6c0-1.2,0.2-3.2-2-3.2c-1.8,0-2.3,1.3-2.3,2.9v6.4
			h-4.4V22.4h4.4V24z"/>
		<path d="M231.4,34.7H227V26h-1.4v-3.6h1.4v-3.7h4.4v3.7h2.5V26h-2.5V34.7z"/>
	</g>
</g>
</svg>
