<?xml version="1.0" encoding="utf-8"?>
<svg width="600" height="400" viewBox="0 0 600 400" fill="none" xmlns="http://www.w3.org/2000/svg">
<path fill-rule="evenodd" clip-rule="evenodd" d="M513.094 94.5501H86.906C79.726 94.5501 73.906 100.37 73.906 107.55V292.45C73.906 299.63 79.726 305.45 86.906 305.45H513.094C520.274 305.45 526.094 299.63 526.094 292.45V107.55C526.094 100.37 520.274 94.5501 513.094 94.5501ZM86.906 84.55C74.203 84.55 63.906 94.8476 63.906 107.55V292.45C63.906 305.153 74.203 315.45 86.906 315.45H513.094C525.797 315.45 536.094 305.153 536.094 292.45V107.55C536.094 94.8476 525.797 84.55 513.094 84.55H86.906Z" fill="#004882"/>
<path d="M434.342 220.603C437.243 221.405 440.244 222.408 443.144 223.21C443.144 223.711 443.244 224.112 443.244 224.513C441.244 232.133 438.043 239.05 432.241 244.564C426.34 250.379 419.438 252.284 411.436 250.58C407.135 249.678 404.134 247.071 402.534 242.86C401.333 239.953 400.833 236.845 400.833 233.737C400.833 228.824 400.933 223.811 401.433 218.899C402.434 207.67 403.834 196.24 405.034 185.012C405.234 182.605 405.134 180.199 404.734 177.793C404.234 174.485 401.433 172.981 398.332 174.184C396.932 174.685 395.732 175.688 394.531 176.59C391.931 178.996 390.13 182.104 388.43 185.212C383.829 194.035 381.028 203.559 378.727 213.284C376.326 224.112 375.426 235.04 376.527 246.068C376.627 246.87 376.527 247.773 376.527 248.575C374.626 249.076 357.521 249.176 354.221 248.675C354.121 246.971 353.82 245.266 353.82 243.562C353.52 233.536 354.121 223.611 355.121 213.585C356.021 203.258 357.021 192.932 357.822 182.706C357.922 180.901 357.822 178.996 357.421 177.192C356.821 174.384 354.121 172.881 351.42 174.084C349.719 174.685 348.119 175.888 346.919 177.091C344.218 179.798 342.317 183.107 340.617 186.415C336.116 195.338 333.215 204.762 330.914 214.487C328.514 225.115 327.813 235.942 328.714 246.77C328.714 247.171 328.714 247.572 328.714 248.073C328.714 248.274 328.614 248.374 328.514 248.675C321.412 248.675 314.01 248.675 306.608 248.675C306.408 246.57 306.008 244.364 306.108 242.258C306.308 236.043 306.608 229.827 307.308 223.611C308.908 209.374 310.709 195.238 312.309 181.001C312.509 179.297 312.409 177.593 312.109 175.989C311.709 173.683 309.709 172.981 308.008 174.384C306.508 175.688 305.407 177.192 304.507 178.896C303.307 181.001 302.707 183.408 301.907 185.713C301.706 186.315 301.506 187.017 301.206 187.819C298.206 186.917 295.205 186.014 292.104 185.112C294.104 176.289 296.705 168.068 303.507 161.852C308.208 157.541 313.81 156.438 319.911 157.742C325.713 158.945 328.514 162.855 329.714 168.369C330.614 172.78 330.114 177.192 329.514 181.603C329.414 182.104 329.414 182.505 329.714 183.207C330.114 182.405 330.514 181.603 330.914 180.801C333.415 174.886 336.716 169.572 341.217 165.161C347.219 159.246 354.321 156.639 362.723 157.341C368.324 157.842 372.225 160.649 374.826 165.662C376.326 168.67 377.027 171.878 377.127 175.086C377.227 177.693 377.127 180.199 377.427 183.107C377.727 182.505 378.027 181.904 378.327 181.302C380.528 176.089 383.228 170.976 387.029 166.564C390.93 162.053 395.532 158.644 401.533 157.641C404.934 157.04 408.235 156.94 411.536 157.641C418.038 158.945 422.439 162.855 424.94 168.971C426.54 172.881 427.14 176.891 427.44 181.102C427.84 187.618 427.04 194.035 426.24 200.451C425.24 209.174 424.139 217.996 423.239 226.719C423.039 228.423 423.139 230.127 423.439 231.731C423.839 234.238 426.14 235.24 428.04 233.436C429.541 232.032 430.641 230.428 431.541 228.624C432.442 226.318 433.142 223.611 434.342 220.603Z" fill="#004882"/>
<path d="M186.776 177.893C185.875 178.495 185.175 178.896 184.575 179.297C180.374 181.803 176.173 181.803 172.272 179.096C168.371 176.49 167.47 172.379 168.071 167.968C168.971 162.253 173.272 158.443 179.074 157.842C186.476 157.14 192.477 159.847 196.978 165.862C200.979 170.976 202.88 176.991 203.38 183.407C205.281 204.562 198.579 222.809 184.575 238.549C179.374 244.464 172.772 248.575 165.07 250.479C160.669 251.482 156.267 251.783 151.866 250.981C144.564 249.677 139.563 245.467 137.062 238.449C134.862 232.333 134.462 225.916 134.862 219.5C135.662 207.87 136.662 196.14 137.462 184.611C137.562 182.706 137.662 180.701 137.562 178.796C137.562 177.994 137.462 177.091 137.262 176.289C136.562 174.284 134.662 173.582 133.061 174.785C131.761 175.688 130.561 177.091 129.76 178.595C128.56 180.901 127.76 183.407 126.86 185.814C126.559 186.515 126.359 187.418 126.059 188.42C123.058 187.518 120.058 186.616 116.957 185.713C117.157 184.811 117.257 184.009 117.457 183.307C119.357 176.79 122.158 170.675 126.86 165.662C130.16 162.253 133.661 159.446 138.363 158.443C141.663 157.742 144.864 157.742 148.165 158.343C154.567 159.747 158.868 164.559 159.568 171.978C159.968 176.69 160.168 181.503 159.868 186.315C159.168 197.644 158.068 208.973 157.268 220.302C157.068 223.611 157.068 226.819 157.168 230.127C157.268 231.832 157.668 233.536 158.368 234.94C159.368 237.346 161.469 238.348 164.17 238.048C167.871 237.647 171.071 235.942 173.972 233.737C178.273 230.228 181.574 225.916 184.175 221.004C189.076 211.78 191.377 201.855 191.177 191.428C191.177 187.719 190.277 184.31 188.676 181.001C188.076 179.798 187.376 178.896 186.776 177.893Z" fill="#004882"/>
<path d="M248.292 248.976C240.69 248.976 233.388 248.976 225.786 248.976C225.686 247.672 225.386 246.469 225.386 245.266C225.586 239.15 225.486 232.934 226.186 226.819C227.687 212.482 229.587 198.346 231.188 184.009C231.388 181.803 231.388 179.598 231.388 177.492C231.388 176.089 231.087 174.785 229.587 174.184C228.087 173.683 226.886 174.485 226.086 175.587C224.886 177.091 223.886 178.495 223.185 180.199C222.185 182.605 221.285 185.212 220.285 188.019C217.284 187.518 214.283 186.315 211.182 185.413C211.582 183.708 211.882 182.305 212.382 180.801C213.583 176.59 214.783 172.479 217.184 168.87C218.784 166.564 220.585 164.258 222.585 162.253C227.387 157.541 233.288 156.639 239.69 158.143C243.191 158.844 245.591 160.95 247.092 164.058C248.292 166.263 249.092 168.569 248.992 170.976C248.892 175.688 248.592 180.299 248.292 185.112C248.192 186.014 248.092 186.916 248.392 187.919C248.692 187.317 248.992 186.616 249.192 186.014C251.293 180.4 253.694 174.986 257.094 170.073C259.395 166.665 261.896 163.557 265.197 161.251C270.298 157.641 276 156.639 282.001 158.343C289.903 160.649 293.504 169.472 289.903 176.891C287.503 181.703 282.201 184.21 277.1 183.006C273.299 182.104 270.898 179.698 270.298 175.888C270.198 175.487 270.098 175.086 269.998 174.585C269.998 174.485 269.798 174.384 269.598 174.084C267.597 174.084 266.097 175.287 264.797 176.69C262.396 179.297 260.695 182.405 259.095 185.613C256.494 191.328 254.494 197.243 252.793 203.359C249.793 214.988 247.892 226.919 248.092 239.05C248.092 241.456 248.292 243.863 248.392 246.269C248.392 247.171 248.292 247.973 248.292 248.976Z" fill="#004882"/>
<path d="M482.655 152.929C482.155 158.143 481.655 163.356 481.155 168.569C481.155 168.77 481.455 168.97 481.555 169.171C483.155 169.071 483.155 167.366 483.955 166.564C484.756 166.464 485.456 166.464 485.456 167.567C485.456 169.271 483.355 172.078 481.755 172.68C479.454 173.482 477.754 172.479 477.354 170.073C477.254 169.572 477.254 168.87 477.154 167.968C476.553 168.67 476.353 169.171 475.853 169.472C475.053 170.374 474.253 171.477 473.252 172.179C470.552 173.983 467.451 172.88 466.151 169.973C462.85 162.754 468.151 153.03 476.053 152.127C478.354 151.826 480.655 152.127 482.655 152.929ZM477.654 154.934C475.053 154.333 473.953 154.433 472.952 156.238C470.652 159.947 470.552 164.058 471.052 168.168C471.052 168.269 471.052 168.369 471.152 168.369C471.652 169.572 472.652 169.772 473.553 168.97C473.953 168.67 474.253 168.269 474.453 167.767C476.753 163.857 477.354 159.446 477.654 154.934Z" fill="#004882"/>
<path d="M461.249 165.361C461.849 165.662 462.25 165.963 462.85 166.263C461.449 171.276 456.948 173.983 452.147 172.58C449.746 171.978 448.146 170.374 447.546 168.068C446.145 163.356 447.146 158.844 450.246 155.035C452.647 152.227 455.848 151.325 459.349 152.428C461.549 153.03 462.95 154.834 462.95 156.739C462.95 158.443 462.05 159.245 460.549 159.245C459.049 159.245 458.349 158.443 458.349 156.739C458.349 156.238 458.449 155.837 458.549 155.235C456.748 153.932 455.548 154.032 454.347 155.436C453.847 155.937 453.547 156.739 453.147 157.441C452.247 159.947 451.947 162.654 452.347 165.461C452.547 167.166 453.247 168.77 455.148 169.271C456.948 169.772 458.449 168.87 459.549 167.567C460.249 167.066 460.649 166.263 461.249 165.361Z" fill="#004882"/>
<path d="M443.244 170.073C443.144 171.878 441.844 173.181 440.244 173.081C438.743 172.981 437.743 171.677 437.843 170.174C437.943 168.469 439.343 167.066 440.844 167.166C442.344 167.166 443.344 168.369 443.244 170.073Z" fill="#004882"/>
</svg>
