<?xml version="1.0" encoding="utf-8"?>
<!-- Generator: Adobe Illustrator 24.0.0, SVG Export Plug-In . SVG Version: 6.00 Build 0)  -->
<svg version="1.1" id="Layer_1" xmlns="http://www.w3.org/2000/svg" xmlns:xlink="http://www.w3.org/1999/xlink" x="0px" y="0px"
	 viewBox="0 0 1008 432" style="enable-background:new 0 0 1008 432;" xml:space="preserve">
<style type="text/css">
	.st0{fill:#004882;}
	.st1{fill:#EE2A7B;}
</style>
<g>
	<path class="st0" d="M445.6,237c2.9,0.8,5.9,1.8,8.8,2.6c0,0.5,0.1,0.9,0.1,1.3c-2,7.6-5.2,14.5-11,20c-5.9,5.8-12.8,7.7-20.8,6
		c-4.3-0.9-7.3-3.5-8.9-7.7c-1.2-2.9-1.7-6-1.7-9.1c0-4.9,0.1-9.9,0.6-14.8c1-11.2,2.4-22.6,3.6-33.8c0.2-2.4,0.1-4.8-0.3-7.2
		c-0.5-3.3-3.3-4.8-6.4-3.6c-1.4,0.5-2.6,1.5-3.8,2.4c-2.6,2.4-4.4,5.5-6.1,8.6c-4.6,8.8-7.4,18.3-9.7,28
		c-2.4,10.8-3.3,21.7-2.2,32.7c0.1,0.8,0,1.7,0,2.5c-1.9,0.5-19,0.6-22.3,0.1c-0.1-1.7-0.4-3.4-0.4-5.1c-0.3-10,0.3-19.9,1.3-29.9
		c0.9-10.3,1.9-20.6,2.7-30.8c0.1-1.8,0-3.7-0.4-5.5c-0.6-2.8-3.3-4.3-6-3.1c-1.7,0.6-3.3,1.8-4.5,3c-2.7,2.7-4.6,6-6.3,9.3
		c-4.5,8.9-7.4,18.3-9.7,28c-2.4,10.6-3.1,21.4-2.2,32.2c0,0.4,0,0.8,0,1.3c0,0.2-0.1,0.3-0.2,0.6c-7.1,0-14.5,0-21.9,0
		c-0.2-2.1-0.6-4.3-0.5-6.4c0.2-6.2,0.5-12.4,1.2-18.6c1.6-14.2,3.4-28.3,5-42.5c0.2-1.7,0.1-3.4-0.2-5c-0.4-2.3-2.4-3-4.1-1.6
		c-1.5,1.3-2.6,2.8-3.5,4.5c-1.2,2.1-1.8,4.5-2.6,6.8c-0.2,0.6-0.4,1.3-0.7,2.1c-3-0.9-6-1.8-9.1-2.7c2-8.8,4.6-17,11.4-23.2
		c4.7-4.3,10.3-5.4,16.4-4.1c5.8,1.2,8.6,5.1,9.8,10.6c0.9,4.4,0.4,8.8-0.2,13.2c-0.1,0.5-0.1,0.9,0.2,1.6c0.4-0.8,0.8-1.6,1.2-2.4
		c2.5-5.9,5.8-11.2,10.3-15.6c6-5.9,13.1-8.5,21.5-7.8c5.6,0.5,9.5,3.3,12.1,8.3c1.5,3,2.2,6.2,2.3,9.4c0.1,2.6,0,5.1,0.3,8
		c0.3-0.6,0.6-1.2,0.9-1.8c2.2-5.2,4.9-10.3,8.7-14.7c3.9-4.5,8.5-7.9,14.5-8.9c3.4-0.6,6.7-0.7,10,0c6.5,1.3,10.9,5.2,13.4,11.3
		c1.6,3.9,2.2,7.9,2.5,12.1c0.4,6.5-0.4,12.9-1.2,19.3c-1,8.7-2.1,17.5-3,26.2c-0.2,1.7-0.1,3.4,0.2,5c0.4,2.5,2.7,3.5,4.6,1.7
		c1.5-1.4,2.6-3,3.5-4.8C443.7,242.7,444.4,240,445.6,237z"/>
	<path class="st0" d="M198.1,194.4c-0.9,0.6-1.6,1-2.2,1.4c-4.2,2.5-8.4,2.5-12.3-0.2c-3.9-2.6-4.8-6.7-4.2-11.1
		c0.9-5.7,5.2-9.5,11-10.1c7.4-0.7,13.4,2,17.9,8c4,5.1,5.9,11.1,6.4,17.5c1.9,21.1-4.8,39.3-18.8,55c-5.2,5.9-11.8,10-19.5,11.9
		c-4.4,1-8.8,1.3-13.2,0.5c-7.3-1.3-12.3-5.5-14.8-12.5c-2.2-6.1-2.6-12.5-2.2-18.9c0.8-11.6,1.8-23.3,2.6-34.8
		c0.1-1.9,0.2-3.9,0.1-5.8c0-0.8-0.1-1.7-0.3-2.5c-0.7-2-2.6-2.7-4.2-1.5c-1.3,0.9-2.5,2.3-3.3,3.8c-1.2,2.3-2,4.8-2.9,7.2
		c-0.3,0.7-0.5,1.6-0.8,2.6c-3-0.9-6-1.8-9.1-2.7c0.2-0.9,0.3-1.7,0.5-2.4c1.9-6.5,4.7-12.6,9.4-17.6c3.3-3.4,6.8-6.2,11.5-7.2
		c3.3-0.7,6.5-0.7,9.8-0.1c6.4,1.4,10.7,6.2,11.4,13.6c0.4,4.7,0.6,9.5,0.3,14.3c-0.7,11.3-1.8,22.6-2.6,33.9
		c-0.2,3.3-0.2,6.5-0.1,9.8c0.1,1.7,0.5,3.4,1.2,4.8c1,2.4,3.1,3.4,5.8,3.1c3.7-0.4,6.9-2.1,9.8-4.3c4.3-3.5,7.6-7.8,10.2-12.7
		c4.9-9.2,7.2-19.1,7-29.5c0-3.7-0.9-7.1-2.5-10.4C199.4,196.3,198.7,195.4,198.1,194.4z"/>
	<path class="st0" d="M259.6,265.3c-7.6,0-14.9,0-22.5,0c-0.1-1.3-0.4-2.5-0.4-3.7c0.2-6.1,0.1-12.3,0.8-18.4
		c1.5-14.3,3.4-28.4,5-42.7c0.2-2.2,0.2-4.4,0.2-6.5c0-1.4-0.3-2.7-1.8-3.3c-1.5-0.5-2.7,0.3-3.5,1.4c-1.2,1.5-2.2,2.9-2.9,4.6
		c-1,2.4-1.9,5-2.9,7.8c-3-0.5-6-1.7-9.1-2.6c0.4-1.7,0.7-3.1,1.2-4.6c1.2-4.2,2.4-8.3,4.8-11.9c1.6-2.3,3.4-4.6,5.4-6.6
		c4.8-4.7,10.7-5.6,17.1-4.1c3.5,0.7,5.9,2.8,7.4,5.9c1.2,2.2,2,4.5,1.9,6.9c-0.1,4.7-0.4,9.3-0.7,14.1c-0.1,0.9-0.2,1.8,0.1,2.8
		c0.3-0.6,0.6-1.3,0.8-1.9c2.1-5.6,4.5-11,7.9-15.9c2.3-3.4,4.8-6.5,8.1-8.8c5.1-3.6,10.8-4.6,16.8-2.9c7.9,2.3,11.5,11.1,7.9,18.5
		c-2.4,4.8-7.7,7.3-12.8,6.1c-3.8-0.9-6.2-3.3-6.8-7.1c-0.1-0.4-0.2-0.8-0.3-1.3c0-0.1-0.2-0.2-0.4-0.5c-2,0-3.5,1.2-4.8,2.6
		c-2.4,2.6-4.1,5.7-5.7,8.9c-2.6,5.7-4.6,11.6-6.3,17.7c-3,11.6-4.9,23.5-4.7,35.6c0,2.4,0.2,4.8,0.3,7.2
		C259.7,263.5,259.6,264.3,259.6,265.3z"/>
	<path class="st1" d="M824,184c-1.3,0-2.4,0-3.8,0c-0.7-4,0.1-8,0.2-12c0.2-4,0.6-8,1-12.1c-0.7-0.2-1.4-0.4-2.2-0.6
		c0-0.5,0.1-1.2,0.1-1.8c2.3-0.4,4.4-0.8,6.8-1.4c-0.5,4.6-1,8.9-1.6,13.1c0.2,0,0.3,0.1,0.5,0.1c0.4-0.5,0.8-1.2,1.4-1.7
		c0.9-0.8,1.9-1.7,3-2.2c2.4-0.9,4.6,0.2,5.2,2.7c0.3,1.6,0.3,3.4,0.2,4.9c-0.1,1.8-0.5,3.5-0.6,5.2c-0.1,0.9-0.4,2,0.9,2.9
		c0.7-0.8,1.6-1.8,2.5-2.8c0.4,2.1-0.4,3.9-2.2,5c-1.4,0.9-2.8,1.2-4.3,0.2c-1.2-0.6-1.4-1.9-1.3-3.1c0.2-2.6,0.4-5.1,0.6-7.8
		c0.1-1,0.3-2,0.2-3c-0.1-0.5-0.5-1.4-0.9-1.6c-0.5-0.2-1.4,0.2-1.8,0.6c-0.7,0.8-1.3,1.8-1.8,2.7c-1.5,3-2.2,6.3-2.3,9.8
		C824.1,182.4,824,183.1,824,184z"/>
	<path class="st1" d="M898,160c-1.3-0.4-2.8-0.5-1.9-2.4c2-0.4,4.1-0.8,6.6-1.5c-0.5,4.6-1,8.9-1.6,13.2c0.1,0.1,0.2,0.1,0.4,0.2
		c0.4-0.4,0.7-0.9,1.3-1.4c0.9-0.8,1.8-1.8,2.8-2.3c2.5-1.2,5,0,5.7,2.7c0.3,1.5,0.3,3.1,0.2,4.7c-0.1,1.8-0.5,3.5-0.6,5.2
		c-0.1,0.9,0.1,1.9,0.2,2.7c2.1,0.4,1.7-2.1,3.5-2.2c0.1,0.4,0.3,0.9,0.2,1.3c-0.5,1.6-1.4,2.8-2.8,3.7c-2.5,1.5-5.1,0.2-5.2-2.7
		c-0.1-2.6,0.4-5.1,0.6-7.8c0.1-1,0.3-2.2,0.2-3.3c0-0.6-0.4-1.6-0.8-1.6c-0.6-0.1-1.5,0.2-2,0.6c-0.6,0.6-1.2,1.5-1.5,2.3
		c-1.5,3.1-2.3,6.5-2.4,10c0,0.7-0.1,1.5-0.1,2.3c-0.5,0.1-0.8,0.3-1.3,0.3c-2.7,0.1-2.9,0-2.8-2.7c0.3-6,0.8-12.1,1.3-18
		C897.8,162.3,897.9,161.2,898,160z"/>
	<path class="st1" d="M729.2,181.3c1.8,0.2,1.3-2.7,3.4-2.2c0.1,1.9-0.8,3.4-2.2,4.5c-2.1,1.8-4.5,0.8-4.9-1.9
		c-0.1-0.5-0.2-1-0.4-2.1c-0.8,1.2-1.4,1.9-2,2.6c-1.2,1.5-2.7,2.3-4.6,2.1c-2.2-0.2-3.9-1.8-4.4-4.2c-0.5-3-0.4-6.1,0.7-8.9
		c1.5-3.8,4.2-5.7,8.2-6c0.6,0,1.4-0.1,2-0.1c0.1,0,0.1-0.1,0.6-0.3c0.2-1.5,0.4-3.1,0.6-4.7c-0.8-0.9-3-0.5-2-2.6
		c2-0.4,4.1-0.8,6.6-1.4c-0.2,2.7-0.4,5.1-0.7,7.4c-0.5,5-1.2,10-1.7,15C728.5,179.6,728.3,180.6,729.2,181.3z M725.5,167.9
		c-3.3-0.8-4.7-0.3-5.9,2.3c-1.3,2.8-1.5,5.8-1.3,8.8c0,0.4,0.2,0.8,0.4,1.2c0.7,1.5,2,1.8,3.3,0.6c0.4-0.4,0.7-0.9,1-1.4
		C724.8,175.8,725.2,171.9,725.5,167.9z"/>
	<path class="st0" d="M493.9,169.5c-0.5,5.2-1,10.4-1.5,15.6c0,0.2,0.3,0.4,0.4,0.6c1.6-0.1,1.6-1.8,2.4-2.6c0.8-0.1,1.5-0.1,1.5,1
		c0,1.7-2.1,4.5-3.7,5.1c-2.3,0.8-4-0.2-4.4-2.6c-0.1-0.5-0.1-1.2-0.2-2.1c-0.6,0.7-0.8,1.2-1.3,1.5c-0.8,0.9-1.6,2-2.6,2.7
		c-2.7,1.8-5.8,0.7-7.1-2.2c-3.3-7.2,2-16.9,9.9-17.8C489.6,168.4,491.9,168.7,493.9,169.5z M488.9,171.5c-2.6-0.6-3.7-0.5-4.7,1.3
		c-2.3,3.7-2.4,7.8-1.9,11.9c0,0.1,0,0.2,0.1,0.2c0.5,1.2,1.5,1.4,2.4,0.6c0.4-0.3,0.7-0.7,0.9-1.2C488,180.4,488.6,176,488.9,171.5
		z"/>
	<path class="st1" d="M826.6,251.9c0.6-0.6,1.3-1.4,1.9-2c2.6-2.4,6.2-1.8,7.3,1.6c1.6,4.6,1,9.1-1.9,13.1c-1.3,1.8-3.1,2.6-5.4,2.9
		c-2.4,0.2-4.8,0-7.2-0.9c0-7.8,0.9-15.5,1-23.4c-0.9-0.6-2.9-0.4-1.8-2.5c2-0.4,4.1-0.8,6.6-1.4c-0.4,4.4-0.7,8.5-1,12.5
		C826.2,251.8,826.4,251.8,826.6,251.9z M832.3,256.8c-0.1,0-0.1,0-0.2-0.1c0-0.6,0-1.4,0-2c-0.1-2.1-0.7-3.1-1.8-3.3
		c-1.7-0.1-2.3,1.2-2.8,2.4c-1.5,3.1-1.9,6.5-2.1,10c-0.1,1.2,0.6,1.6,1.7,1.7c1.7,0.1,3.1-0.7,3.8-2.7
		C831.6,260.9,831.9,258.9,832.3,256.8z"/>
	<path class="st1" d="M881.9,267c-1.5,0-2.7,0-4,0c-0.5-5.2,1.5-10.2,0.9-15.3c-2-0.2-1.8,1.8-2.9,2.5c-0.2-0.2-0.7-0.4-0.8-0.6
		c-0.3-2,1.8-4.7,3.7-5c1.9-0.3,3,0.5,3.4,2.5c0.1,0.5,0.1,1.2,0.2,2.3c0.7-0.9,1.2-1.6,1.7-2.2c1-1.5,2.4-2.6,4.3-2.6
		c2.3-0.1,4,1,4.2,3.4c0.2,2.3-0.1,4.7-0.2,7c-0.1,1.4-0.3,2.6-0.3,4c0,0.5,0.3,1,0.4,1.4c2,0.4,1.4-2.9,3.5-2.1
		c-0.5,3-2.1,4.9-4.3,5.2c-2.4,0.4-3.9-0.6-3.8-3c0-3,0.4-6,0.6-9c0-0.6,0.3-1.4,0.1-2c-0.1-0.6-0.5-1.5-1-1.8
		c-0.3-0.2-1.4,0.2-1.7,0.6c-0.7,0.8-1.4,1.9-1.8,2.9c-1.3,3-2.1,6.2-2.1,9.5C882,265.4,881.9,266.1,881.9,267z"/>
	<path class="st1" d="M730.4,212.1c0.3-1.9,1.3-3.4,2.7-4.4c2.6-1.8,5.4-0.5,5.5,2.6c0,2.2-0.3,4.5-0.4,6.7c-0.1,1.5-0.3,3-0.2,4.5
		c0.1,1.4,1.3,1.9,2.3,0.8c0.6-0.6,1.2-1.5,1.6-2.3c1.6-3.3,2.4-6.6,2.5-10.2c0-0.7,0-1.5,0-2.5c1.4,0,2.6,0,4,0
		c0.6,3-0.3,5.9-0.5,8.8c-0.1,1.5-0.4,2.9-0.5,4.5c0,0.6,0.2,1.4,0.2,2.1c0.2,0.1,0.4,0.1,0.6,0.2c0.6-0.8,1.4-1.7,2.3-2.8
		c0.2,0.3,0.8,0.7,0.7,1c-0.2,1.7-0.9,3-2.3,4.1c-2.2,1.6-4.4,0.6-4.8-2c-0.1-0.6-0.2-1.3-0.4-2.3c-0.6,1-1,1.7-1.5,2.2
		c-0.6,0.7-1.2,1.5-1.9,2c-2.9,2-6.4,0.3-6.5-3.4c-0.1-2.9,0.4-5.9,0.6-8.7c0.1-1,0.5-2.2-0.5-3c-1-0.2-1.3,0.5-1.7,1.2
		C732,212,731.8,212.8,730.4,212.1z"/>
	<path class="st1" d="M782.4,251.8c-1.5,0.3-1.5,0.3-2.7,2.5c-0.3-0.3-0.9-0.6-0.9-0.8c0.2-1.9,2.4-5,4.9-4.9c2,0.1,3,0.8,3.1,2.8
		c0.1,1.8,0,3.6-0.2,5.2c-0.1,1.8-0.4,3.5-0.6,5.2c0,0.2-0.1,0.3,0,0.5c0.3,0.7,0.4,1.8,0.9,2.1c0.8,0.5,1.6-0.3,2-0.9
		c0.5-0.8,1-1.7,1.5-2.6c1.3-3,2-6.2,2.1-9.5c0-0.6,0.1-1.3,0.2-2.1c1.3,0,2.4,0,3.8,0c0,0.8,0.2,1.8,0.1,2.6
		c-0.3,3.1-0.8,6.3-1.2,9.4c-0.1,1,0,2.1,0.1,3c1.5,0.1,1.8-0.7,2.1-1.5c0.3-0.5,0.6-1.2,1.3-0.7c0.3,0.2,0.4,1,0.2,1.5
		c-0.6,2.2-2.1,3.7-3.9,3.9c-1.9,0.2-2.9-0.6-3.1-2.4c-0.1-0.6-0.1-1.3-0.5-2.1c-0.5,0.7-0.9,1.5-1.5,2.2c-0.9,1.4-2.1,2.3-3.9,2.4
		c-2.3,0.1-4-1-4.2-3.4c-0.2-2.3,0.1-4.7,0.2-7C782.5,255.3,783,253.5,782.4,251.8z"/>
	<path class="st1" d="M811,207.9c-0.3,5-1.8,9.9-1.4,14.8c2.2,0.4,1.9-1.8,3.3-2.3c1.3,0.8,0.5,1.9,0.1,2.7
		c-0.9,2.1-2.5,3.1-4.3,2.9c-2.7-0.3-2.2-2.6-2.7-4.7c-0.5,0.7-0.9,1.3-1.4,1.7c-0.7,0.8-1.4,1.8-2.3,2.3c-2.4,1.6-5.2,0.6-6.5-2
		c-3.5-7.8,2.9-16.9,11.2-16.3c0.9,0.1,1.8,0.2,2.7,0.3C810.2,207.5,810.5,207.7,811,207.9z M806.3,209.4c-2.6-0.6-4.1-0.1-5.1,2.3
		c-1.4,2.9-1.6,6.1-1.3,9.3c0.1,0.9,0.4,2.1,1.4,2.1c0.7,0,1.8-0.6,2.2-1.4C805.6,217.9,806.4,213.7,806.3,209.4z"/>
	<path class="st1" d="M851,263c-0.4,0.6-0.8,1.4-1.4,2c-0.7,0.7-1.5,1.7-2.4,2.1c-2.3,1.2-4.8,0.3-6-2c-2.9-5.9,1-14.7,7.4-16.3
		c2.5-0.6,4.9-0.4,7.6,0.5c-0.1,5-1.9,10-1.2,14.9c2.2,0.7,1.6-2.7,3.6-2c0.1,2.2-1.2,4.4-2.8,5.1c-2.2,0.9-4-0.1-4.2-2.6
		c0-0.5-0.1-0.9-0.1-1.5C851.3,263.1,851.1,263,851,263z M851.6,250.9c-2.5-0.8-4.1-0.3-5.1,2c-1.4,2.8-1.7,6-1.5,9
		c0.1,1,0.2,2.3,1.6,2.5c1.3,0.2,1.9-0.9,2.4-1.9c0-0.1,0.1-0.1,0.1-0.2C850.8,258.9,851.5,255,851.6,250.9z"/>
	<path class="st0" d="M472.5,181.9c0.6,0.3,1,0.6,1.6,0.9c-1.4,5-5.9,7.7-10.7,6.3c-2.4-0.6-4-2.2-4.6-4.5c-1.4-4.7-0.4-9.2,2.7-13
		c2.4-2.8,5.6-3.7,9.1-2.6c2.2,0.6,3.6,2.4,3.6,4.3c0,1.7-0.9,2.5-2.4,2.5c-1.5,0-2.2-0.8-2.2-2.5c0-0.5,0.1-0.9,0.2-1.5
		c-1.8-1.3-3-1.2-4.2,0.2c-0.5,0.5-0.8,1.3-1.2,2c-0.9,2.5-1.2,5.2-0.8,8c0.2,1.7,0.9,3.3,2.8,3.8c1.8,0.5,3.3-0.4,4.4-1.7
		C471.5,183.6,471.9,182.8,472.5,181.9z"/>
	<path class="st1" d="M840.6,210.9c-0.4,0.1-0.9,0.2-1.4,0.3c-1.4,0.1-2.2-0.5-2.3-1.8c-0.1-1.3,0.5-2.1,1.7-2.4
		c1.8-0.4,3.8,0.4,4.4,2.4c0.5,1.7,0.7,3.6,0.6,5.5c-0.1,3.3-1.6,6.2-3.8,8.6c-1.3,1.4-2.8,2.3-4.8,2.5c-3.1,0.3-5-1.2-5.1-4.3
		c-0.1-2,0.1-4,0.2-6c0.1-1.4,0.2-2.6,0.2-4c0-0.5-0.3-1-0.4-1.4c-2.1-0.5-1.4,2.8-3.5,2.1c0.2-2.8,2-4.9,4.2-5.2
		c2.3-0.3,3.8,0.7,3.9,3c0.1,1.8-0.1,3.7-0.2,5.6c-0.1,2-0.3,4-0.3,6c0,1.8,1,2.4,2.6,1.8C840.7,221.9,842.9,214.7,840.6,210.9z"/>
	<path class="st1" d="M740.3,176c0,0.8,0,1.4,0.1,2c0.2,1.5,0.7,2.8,2.2,3.4c1.7,0.5,3.1,0.1,4.4-1c0.5-0.4,0.8-1,1.4-1.5
		c0.3-0.2,0.9-0.2,1.3-0.1c0.2,0.1,0.2,0.7,0.1,1c-1,2.9-4.6,5-7.9,4.7c-3.8-0.4-5.9-2.6-6.2-6.4c-0.3-3.4,0.2-6.5,2.3-9.3
		c1.8-2.5,4.3-3.7,7.3-3.5c2.5,0.1,4,1.4,4.5,3.4c0.5,2-0.3,3.9-2.5,4.9c-1.8,0.8-3.8,1.3-5.7,1.9
		C741.2,175.7,740.9,175.8,740.3,176z M740.6,173.4c2,0.4,3.6-0.4,4.8-1.8c1.2-1.3,1-2.9,0-3.8c-1-0.7-2.5-0.3-3.5,0.9
		C740.9,170.1,740.4,171.6,740.6,173.4z"/>
	<path class="st1" d="M787.2,176.2c0,0.3-0.1,0.7-0.1,1.2c0.2,1.7,0.6,3.5,2.4,4.1c2,0.6,3.6-0.2,4.9-1.7c0.5-0.5,0.9-1.8,1.9-1
		c1,0.8,0,1.7-0.4,2.3c-2,3.3-5.9,4.4-9.4,3c-2-0.8-3.3-2.4-3.7-4.5c-0.7-4-0.2-7.7,2.2-11c1.9-2.4,4.4-3.5,7.6-3.1
		c2.3,0.2,3.7,1.5,4.1,3.5c0.4,1.9-0.3,3.8-2.4,4.7C792.1,174.6,789.7,175.3,787.2,176.2z M787.4,173.3c2,0.4,4.2-0.5,5.1-2.1
		c0.7-1.3,0.6-2.7-0.4-3.4c-0.9-0.6-2.4-0.3-3.4,0.8C787.7,169.9,787.2,171.5,787.4,173.3z"/>
	<path class="st1" d="M932.3,179.1c-1.8,4.4-4.9,6.2-9.1,5.4c-2.7-0.5-4.4-2.2-4.9-4.7c-0.7-3.8-0.3-7.6,2.1-10.8
		c1.9-2.6,4.5-3.7,7.7-3.5c2.3,0.2,3.7,1.4,4.1,3.4s-0.3,3.8-2.3,4.8c-1.7,0.8-3.6,1.4-5.5,1.9c-2,0.6-2.2,0.8-1.7,2.8
		c0.8,3.4,3.8,4.4,6.5,2.1c0.5-0.4,0.9-0.9,1.4-1.5C931,178.3,931.5,178.3,932.3,179.1z M922.8,173.6c2.1-0.1,3.7-0.7,4.8-2.2
		c0.9-1.2,0.9-2.8,0-3.7c-0.9-0.7-2.5-0.4-3.5,0.8C923,170,922.5,171.6,922.8,173.6z"/>
	<path class="st1" d="M898.9,219.8c0.4,0.3,0.7,0.5,1.2,0.7c-0.1,0.3-0.1,0.5-0.2,0.7c-1.6,3.3-4.1,5-7.8,4.7
		c-3.1-0.2-5.5-1.9-6.1-5c-0.6-3.6-0.3-7,1.7-10.2c2.1-3.1,5.1-4.5,8.8-3.8c1.7,0.3,2.8,1.3,3.3,3c0.4,1.7,0,3.4-1.4,4.3
		c-1.5,0.9-3.1,1.6-4.7,2.2c-0.7,0.3-1.7,0.3-2.4,0.6c-0.4,0.2-1,0.7-1,1.2c0,1.6,0.3,3.3,1.8,4.2c1.5,0.9,2.9,0.6,4.2-0.2
		C897.2,221.6,898,220.7,898.9,219.8z M890.6,215.2c2.1-0.4,3.8-0.9,4.9-2.5c0.8-1.3,0.7-2.6-0.2-3.4c-0.9-0.7-2.3-0.5-3.4,0.6
		C890.9,211.4,890.3,213,890.6,215.2z"/>
	<path class="st1" d="M718.6,258.9c-0.1,0.5-0.2,0.8-0.2,1c0.1,1.9,0.5,3.8,2.5,4.5c2,0.6,3.6-0.2,4.9-1.8c0.6-0.7,1-2,2.3-0.8
		c-1.2,5-6.9,7.4-11.2,4.7c-1.5-0.9-2.3-2.2-2.6-3.8c-0.7-3.8-0.4-7.3,1.8-10.6c2-2.9,4.8-4.1,8.3-3.7c2,0.2,3.3,1.4,3.7,2.9
		c0.5,2,0,3.8-1.8,4.8c-1.4,0.8-3,1.4-4.6,1.9C720.7,258.6,719.6,258.7,718.6,258.9z M718.7,256.5c2,0.2,3.5-0.5,4.7-1.8
		c1.2-1.2,1.2-3,0.2-3.8c-1-0.8-2.6-0.5-3.7,0.9C719,253.1,718.6,254.7,718.7,256.5z"/>
	<path class="st1" d="M846.1,175.9c-0.5,1.7,0,2.9,0.6,4.1c0.8,1.6,2.7,2.1,4.6,1.2c0.9-0.5,1.7-1.3,2.4-2.1
		c0.6-0.6,1.2-0.9,1.9-0.1c-1.4,5.5-7,6.6-10.7,4.9c-1.8-0.8-2.9-2.4-3.3-4.2c-0.7-3.7-0.3-7.2,1.8-10.4c2-2.9,4.7-4.2,8.2-3.8
		c2.2,0.3,3.5,1.5,3.9,3.4s-0.3,3.6-2.2,4.6c-1.3,0.7-2.6,1.2-4,1.6C848.3,175.5,847.3,175.6,846.1,175.9z M846.2,173.7
		c2.1-0.3,3.8-0.8,4.9-2.5c0.8-1.2,0.6-2.7-0.2-3.4c-0.9-0.7-2.4-0.4-3.4,0.7C846.6,169.9,845.9,171.5,846.2,173.7z"/>
	<path class="st1" d="M720,226.4c-1.6-0.4-3-0.7-4.4-1.4c-0.8-0.4-1.6-1.4-1.9-2.2c-0.6-1.3,0.1-2.7,1.4-3c1.4-0.3,2.3,0.3,2.5,2
		c0.1,0.8,0.1,1.8,1.2,2c0.9,0.2,2,0.3,2.9,0c1.7-0.5,2-2.4,0.7-3.7c-0.7-0.7-1.6-1.2-2.4-1.8c-1.4-0.9-2.7-1.7-4-2.7
		c-2.3-2-2.2-5.2,0.2-7.1c2.2-1.8,6.7-2,9-0.3c0.7,0.5,1.3,1.4,1.6,2.1c0.4,1.4-0.4,2.5-1.6,2.6c-1.2,0.1-1.9-0.4-2.2-1.9
		c-0.4-2.1-1.8-2.7-3.6-1.7c-1.5,0.8-1.7,2.2-0.5,3.4c0.7,0.7,1.7,1.2,2.4,1.7c1.3,0.8,2.6,1.6,3.8,2.5c2.8,2.4,2.5,6.2-0.7,8
		C723.2,225.5,721.6,225.8,720,226.4z"/>
	<path class="st1" d="M880.7,198c-0.7,8.1-1.4,16.1-2.1,24c0,0.2,0.2,0.4,0.3,0.6c1.9,0.3,1.6-1.7,2.7-2.4c0.2,0.3,0.8,0.6,0.7,0.9
		c-0.3,2.2-2.2,4.7-4.7,4.8c-2,0-3.3-0.8-3.4-2.8c-0.1-1.6-0.1-3.1,0.1-4.7c0.5-5.2,1.2-10.5,1.8-15.7c0-0.3,0-0.6,0-1.2
		c-0.7-0.3-1.5-0.6-2.5-1c0.3-0.5,0.5-1.4,0.9-1.5c1.8-0.5,3.7-0.9,5.6-1.3C880.2,197.7,880.5,197.9,880.7,198z"/>
	<path class="st1" d="M869.4,220.3c0.3,0.3,0.8,0.6,0.8,0.8c-0.3,2.1-2.2,4.9-4.9,4.8c-1.9,0-3-0.9-3.1-2.8c-0.1-2,0-4,0.1-6
		c0.5-4.9,1-9.8,1.7-14.7c0-0.2,0-0.5,0-0.8c-0.7-0.3-1.5-0.6-2.1-0.9c-0.3-0.9-0.2-1.6,0.8-1.8c1.8-0.4,3.6-0.7,5.7-1.3
		c0,1,0.1,2,0,2.9c-0.4,3.6-0.8,7.1-1.2,10.7c-0.3,3-0.6,6-0.8,9c-0.1,0.7,0.1,1.6,0.1,2.4C868.6,223,868.3,221,869.4,220.3z"/>
	<path class="st1" d="M761.1,242.8c-1.4-0.2-2.7-0.2-2-2.2c2-0.4,4.1-0.9,6.4-1.4c0,1.4,0.1,2.4,0,3.5c-0.6,6.3-1.4,12.6-2,19
		c-0.1,0.9,0.1,1.9,0.2,2.7c2.1,0.3,1.6-2.6,3.5-2.2c0,3-2,5.4-4.6,5.5c-2.1,0.1-3.1-0.8-3.1-2.9c0-2.5,0.1-5,0.3-7.6
		c0.4-4.2,0.9-8.5,1.4-12.7C761.1,243.9,761.1,243.5,761.1,242.8z"/>
	<path class="st1" d="M789.1,223c0.6-0.8,1.4-1.7,2.2-2.7c0.3,0.2,0.8,0.5,0.8,0.8c0,1.9-2.1,4.4-3.9,4.8c-2.6,0.5-4.2-0.7-4.2-2.9
		c0.1-2.7,0.1-5.4,0.3-8.1c0.3-3.6,0.8-7.1,1.3-10.7c0.1-0.8,0.1-1.7,0.1-2.6c-0.5-0.2-1-0.4-1.6-0.6c-0.8-0.5-0.8-1.7,0.1-1.9
		c1.9-0.5,3.9-0.8,6-1.4c0,1.2,0.1,2,0,2.9c-0.7,6.6-1.5,13.1-2.1,19.7c-0.1,0.8,0.2,1.7,0.3,2.5C788.7,222.9,788.9,223,789.1,223z"
		/>
	<path class="st1" d="M814,177.9c0.5,0.3,0.8,0.5,1.2,0.7c-1.5,4.6-5.1,6.7-9.4,5.7c-2.3-0.5-3.8-1.9-4.4-4c-1.4-4.7-0.4-9,2.9-12.6
		c2.2-2.4,5.8-2.9,8.6-1.6c1.6,0.7,2.6,2.2,2.5,3.8c-0.1,1.2-0.9,2.1-2.1,2.2c-1.2,0-1.9-0.7-2-2.1c-0.1-0.8,0.4-1.9-0.8-2.3
		c-1.2-0.3-2.4,0-3.3,1.2c-0.4,0.6-0.9,1.3-1,2c-0.3,2.3-0.6,4.6-0.6,6.9c0,1.6,0.8,3.1,2.5,3.7c1.8,0.5,3.3-0.2,4.5-1.6
		C813,179.3,813.4,178.6,814,177.9z"/>
	<path class="st1" d="M890.6,177.9c0.5,0.3,0.8,0.5,1.2,0.6c-1.2,5-6.1,7.1-10.3,5.5c-2-0.7-3.1-2.2-3.7-4.2c-1-4.2-0.2-8,2.3-11.4
		c2.2-2.9,5.9-3.9,9-2.5c1.5,0.6,2.5,1.7,2.7,3.3c0.2,1.5-0.6,2.6-1.9,2.7c-1.3,0.1-2-0.7-2.1-2.2c0-0.8,0.3-1.8-0.8-2.1
		c-1.2-0.3-2.2-0.2-2.9,0.7c-0.6,0.7-1.3,1.7-1.5,2.6c-0.4,2.1-0.6,4.3-0.6,6.5c0,1.8,0.7,3.4,2.5,4c1.9,0.6,3.5-0.2,4.6-1.7
		C889.7,179.2,890,178.6,890.6,177.9z"/>
	<path class="st1" d="M734.7,251.8c-0.9-1-2.6-0.4-2.5-1.9c0.1-1.3,1.4-1,2.1-1.4c1.8-0.7,2.7-2.2,3.4-3.9c0.4-1.2,0.9-1.5,2.1-0.8
		c-0.1,1.6-0.2,3.1-0.3,5c1.5,0.1,2.7,0.3,4,0.4c0.4,1.2,0.1,1.7-0.9,1.8c-1,0.1-2.1,0.2-3.5,0.3c-0.3,3.6-0.7,6.9-0.9,10.4
		c-0.1,1.2,0.2,2.2,1.4,2.7c1,0.5,1.9-0.1,2.8-0.6c0.7-0.4,1.4-1.8,2.4-0.5c-1.3,3.4-4.8,5.2-8.1,4.2c-1.7-0.5-2.4-1.8-2.4-3.5
		c0-3,0.2-6.2,0.3-9.2C734.5,253.5,734.6,252.6,734.7,251.8z"/>
	<path class="st1" d="M862.2,168.5c-0.7,0.8-1.4,1.7-2.2,2.7c-0.3-0.3-0.8-0.7-0.8-1c0.3-1.7,1-3.3,2.5-4.2c2.2-1.5,4.5-0.3,4.6,2.3
		c0,0.7,0,1.5,0,2.4c1.2-0.3,1.3-1.3,1.7-1.9c0.8-1.3,1.7-2.5,3.1-3.1c1.4-0.5,2.9-0.2,3.7,0.8c0.7,0.9,0.5,2.4-0.3,3.3
		c-0.8,0.7-1.9,0.6-2.8-0.3c-0.3-0.3-0.4-0.7-0.5-1c-3.1,2.1-3.7,4-4.9,15.5c-1.2,0.1-2.3,0.1-3.9,0.2c-0.1-1-0.3-2-0.2-2.8
		c0.2-2.7,0.5-5.5,0.8-8.3c0.2-1.5,0.4-2.9,0-4.4C862.7,168.7,862.5,168.6,862.2,168.5z"/>
	<path class="st1" d="M771.2,184c-1.6,0-2.7,0-4.1,0c0-1.5-0.1-2.7,0-4c0.3-3,0.7-6,1-9c0.1-0.7-0.1-1.6-0.2-2.3
		c-2-0.1-1.8,1.9-3,2.5c-0.2-0.3-0.7-0.7-0.6-1c0.2-1.8,1-3.4,2.7-4.3c2.1-1.2,4.1-0.2,4.3,2.2c0.1,0.8,0,1.7,0.4,2.6
		c0.3-0.4,0.6-0.8,0.9-1.2c0.8-1,1.5-2.3,2.4-3.1c1.2-1.2,2.7-1.3,4-0.5c0.8,0.5,1.5,1.3,1.2,2.3c-0.2,0.7-0.6,1.6-1.3,2
		c-0.8,0.5-1.8,0.2-2.4-0.7c-0.2-0.2-0.4-0.4-0.7-0.7c-1.5,0.5-1.9,1.7-2.4,2.8c-1.4,3.1-2,6.5-2.2,10
		C771.2,182.2,771.2,182.9,771.2,184z"/>
	<path class="st1" d="M809.7,253.9c0.6-1.2,1.3-2.3,2-3.4c0.9-1.4,2.3-2.2,4.1-2c1.5,0.2,2.2,1,2.2,2.5c0,0.9-0.3,1.7-1.2,2
		c-0.8,0.3-1.7,0.3-2.3-0.4c-0.3-0.3-0.5-0.6-0.8-0.9c-1.5,0.2-1.9,1.4-2.3,2.4c-1.6,3.4-2.2,7-2.4,10.7c0,0.6-0.1,1.4-0.1,2.1
		c-0.5,0.1-0.9,0.3-1.5,0.4c-2.5,0.1-2.9-0.2-2.7-2.8c0.3-3.3,0.8-6.5,1.2-9.8c0.1-0.9,0-1.9,0-2.9c-1.6,0.4-1.6,0.4-2.9,2.5
		c-0.3-0.3-0.7-0.5-0.8-0.7c-0.2-1.8,1.6-4.4,3.4-4.8c2-0.5,3.5,0.4,3.8,2.5c0.1,0.8,0,1.8,0,2.6
		C809.5,253.8,809.6,253.8,809.7,253.9z"/>
	<path class="st1" d="M765.6,210.1c-1.5,0.4-1.9,1.7-2.4,2.8c-1.4,3.1-2.1,6.4-2.1,9.8c0,0.9,0,1.8,0,2.8c-1.5,0-2.6,0-4,0
		c-0.7-2.1-0.2-4.1,0-6.2c0.1-1.8,0.5-3.7,0.7-5.5c0.1-1.2,0.4-2.4-0.2-3.6c-2-0.6-1.5,2.8-3.7,1.9c0.1-1.8,0.8-3.3,2.1-4.4
		c1-0.9,2.3-1,3.6-0.6c1.4,0.4,1.6,1.6,1.6,2.8c0,0.6,0.1,1.3,0.2,2.5c0.9-1.5,1.6-2.5,2.2-3.6c1-1.6,2.6-2.4,4.5-1.9
		c1.7,0.4,2.4,2.4,1.5,3.8c-0.7,0.9-1.9,1.2-2.8,0.4C766.3,210.9,765.9,210.5,765.6,210.1z"/>
	<path class="st1" d="M861.9,254.5c-0.4-0.6-0.7-0.9-0.7-1.2c0.1-2,2.4-4.6,4.5-4.8c2.1-0.3,3.5,0.7,3.7,2.8c0.1,1.4,0,2.8-0.1,4.3
		c-0.2,2.3-0.5,4.6-0.7,7c-0.1,0.6,0.2,1.2,0.3,1.7c2.1,0.4,1.5-2.8,3.6-2.1c-0.3,3-2.2,5.2-4.6,5.4c-2.2,0.1-3.5-0.7-3.4-2.9
		c0.1-2.9,0.4-5.9,0.7-8.7c0.1-1,0.2-2,0.2-3c0-0.3-0.3-0.9-0.5-0.9c-0.4,0-0.9,0.2-1.3,0.5C862.8,252.8,862.5,253.5,861.9,254.5z"
		/>
	<path class="st1" d="M849.9,209.9c-0.6,0.8-1.4,1.7-2.2,2.7c-0.3-0.4-0.7-0.7-0.7-1c0.2-2.4,2.8-4.7,5.1-4.6c1.6,0,2.4,0.5,2.7,2.1
		c0.3,1.3,0.3,2.6,0.2,4c-0.2,2.5-0.5,4.9-0.8,7.4c-0.1,0.7,0,1.5,0,2.2c1.7-0.2,1.7-0.2,2.9-2.5c0.4,0.4,1,0.7,1,1
		c-0.1,2.4-2.9,4.9-5.2,4.8c-1.7-0.1-2.7-0.8-2.8-2.5c-0.1-2.1,0.1-4.2,0.2-6.2c0.1-1.6,0.5-3.1,0.6-4.7
		C851,211.7,851.3,210.6,849.9,209.9z"/>
	<path class="st1" d="M774.7,244.3c-0.8-0.3-1-0.4-1.4-0.5c-1.3-0.2-1.9-0.8-1.9-2.2c0.1-1.3,0.6-2,1.8-2.4c1.2-0.3,2.5,0.1,2.9,1.2
		c0.3,0.8,0.5,2,0.4,2.9c-0.2,2.6-1.5,4.7-3,6.7c-0.1,0.2-0.5,0.2-1.3,0.4C773.2,248.2,774,246.4,774.7,244.3z"/>
	<path class="st0" d="M454.5,186.6c-0.1,1.8-1.4,3.1-3,3c-1.5-0.1-2.5-1.4-2.4-2.9c0.1-1.7,1.5-3.1,3-3
		C453.6,183.7,454.6,184.9,454.5,186.6z"/>
	<path class="st1" d="M853.2,203c-1.5,0-2.5-1-2.5-2.5c0-1.6,1.3-2.9,2.8-2.8c1.4,0,2.2,1,2.3,2.4C855.8,201.6,854.6,203,853.2,203z
		"/>
	<path class="st1" d="M865,242c0-1.7,1.2-3,2.6-3c1.4,0,2.3,1.3,2.3,2.7c0,1.6-1.2,2.8-2.5,2.9C866,244.6,865,243.5,865,242z"/>
	<path class="st1" d="M617.6,192.2c0.1,6.1,0.1,12.3-1.6,18.3c-0.4,1.7-1,3.4-2,4.8c-2.5,4.1-7.4,4.1-10.1,0.1
		c-1.6-2.3-2.2-5-2.6-7.8c-0.4-2.5-0.8-5.1-0.8-7.8c-0.3-7.7-0.4-15.4,0.8-23.1c0.3-1.8,0.8-3.6,1.4-5.4c0.3-0.9,0.8-1.9,1.4-2.6
		c2.6-3.9,7.4-3.9,10,0.1c0.9,1.5,1.7,3.1,2,4.8c0.7,3.6,1.2,7.1,1.5,10.7C617.7,187,617.6,189.6,617.6,192.2z"/>
	<g>
		<path class="st1" d="M698,285.6c-0.3-0.7-0.9-1.4-1.4-2.1c-14.9-21.1-29.7-42.1-44.6-63.2c-3-4.3-3-4.3,0-8.5
			c14.9-21.1,29.7-42.1,44.6-63.2c0.4-0.6,0.9-1.3,1.3-1.9c0.9-1.8,0.1-3.4-2-3.7c-0.8-0.1-1.7,0-2.5,0c-28.3,0-56.5,0-84.9,0
			c-26.9,0-53.7,0-80.6,0c-1.9,0-3.7,0-5.6,0c-2.7,0-3.4,0.6-3.4,3.5c0,2.9,0.1,5.9,0.1,8.8c0,20.8,0.1,41.4,0.1,62.2
			c0,22.3,0.1,44.7,0.1,66.9c0,3.8,0.5,4.3,4.3,4.3c56.8,0,113.6,0,170.4,0c0.6,0,1.4,0,2,0C697.8,288.7,698.7,287.2,698,285.6z
			 M583.5,241.8c0.7-0.7,1.4-1.4,1.9-1.9c1.9-1.8,4.2-2.7,6.8-2.6c3.8,0.1,6.5,2.4,7.3,6.1c0.3,1.4,0.4,2.8,0.4,4.2
			c0.1,3.9,0,7.8,0,11.5c0,2.4,0.1,2.5,2.5,2.7c0.6,0,1.4,0,1.7,0.3c0.4,0.4,0.5,1.3,0.4,1.8c-0.1,0.4-0.7,0.9-1.2,0.9
			c-4.2,0.1-8.4,0.1-12.6,0c-0.8,0-1.5-0.3-1.6-1.3c-0.1-0.9,0.2-1.7,1.4-1.8c0.4,0,0.8-0.1,1.5-0.2c0-5,0-9.9,0-14.8
			c0-0.5-0.2-1.2-0.4-1.7c-1.3-2.9-4.7-3.5-6.7-0.9c-1.2,1.5-1.6,3.1-1.6,4.9c0,3.5,0,6.9,0,10.3c0,2.1,0.1,2.1,2.3,2.3
			c2.2,0.2,2.3,0.3,1.7,3c-4.8,0.2-9.8,0.1-14.6,0c-0.1-0.6-0.3-0.9-0.3-1.3c0-0.4,0.1-0.8,0.1-1.4c0.8-0.2,1.7-0.4,2.7-0.7
			c0-0.8,0.1-1.7,0.1-2.4c0-4.4,0-8.7,0-13.1c0-2.5-0.3-2.8-2.8-3c-0.8-0.1-1.8,0.2-2.1-0.9c-0.3-1,0.1-1.8,1.3-2
			c2.8-0.4,5.6-1.4,8.1-2.5c0.7-0.3,1.8,0,2.8,0C583.2,238.9,583.4,240.1,583.5,241.8z M557.5,241.1c-1.9-1.3-4-0.8-6.2,0.2
			c0.3,0.9,0.6,1.7,0.8,2.4c0.5,1.6,0.3,3-0.9,4.1c-1.3,1.2-2.6,1.5-4.2,0.9c-1.6-0.5-2.3-1.8-2.4-3.5c-0.3-2.7,1-4.7,3.3-6
			c2.9-1.7,6.2-2.2,9.4-2c1.5,0.1,3,0.3,4.4,0.8c3.5,1,5.1,3.4,5.1,7.1c0.1,3.6,0,7.2,0,10.8c0,0.9,0,1.9,0.1,2.7
			c0.3,1.7,0.9,2.1,2.6,1.6c0.6-0.2,1.5-0.6,1.7,0.1c0.2,0.6,0,1.5-0.3,2.1c-2.3,3.6-7.3,3.8-10.1,0.4c-0.2-0.2-0.4-0.5-0.7-0.8
			c-0.6,0.5-1.3,0.9-1.8,1.4c-2.7,1.9-5.7,2.7-9,2.3c-6.8-0.8-7.6-7.6-4.6-11.3c1-1.4,2.5-2.5,4.1-3.3c2.4-1,5-1.8,7.6-2.5
			c0.8-0.3,1.8-0.4,2.9-0.7C559.3,245.4,560,242.7,557.5,241.1z M540.7,217.2c2.5-3.3,5-6.5,7.7-9.7c2.9-3.4,6.1-6.4,9-9.8
			c2.7-3.1,5.5-6.4,8-9.8c2-2.6,3.1-5.8,3.5-9c0.3-2.6-0.1-5.2-1.3-7.6c-1.8-3.8-5.5-5.7-9.5-4.9c-1.7,0.3-3.3,0.8-4.8,1.4
			c-0.7,0.2-1.3,0.7-1.9,1.3c-2.2,2.1-2,3.6,0.7,4.8c2.7,1.4,4.4,4,4.2,6.8c-0.2,2.7-2.3,5.5-5,6.3c-3.8,1.2-7.7-0.8-9.1-4.7
			c-1-2.8-0.8-5.8,0.2-8.6c2.1-5.9,6.6-9.2,12.4-10.8c5.9-1.7,11.9-1.3,17.5,0.9c10.9,4.2,12.1,15,8.1,22.3
			c-1.5,2.7-3.6,5.1-6.1,6.9c-4.2,3.1-8.6,6.2-12.9,9.2c-2.6,1.9-5.1,3.8-7.8,5.7c-0.4,0.3-0.9,0.6-1.5,0.9c0.1,0.2,0.2,0.3,0.3,0.5
			c0.4,0,0.7,0.1,1.2,0.1c6.2,0,12.4,0,18.7,0c3.8,0,5.2-1.2,6.1-4.9c0.4-1.6,0.6-3.3,0.9-5c1,0,2,0,3.1,0
			c-0.2,7.1-0.3,14.2-0.5,21.5c-14.1,0-27.9,0-41.9,0C539.4,219.9,539.8,218.5,540.7,217.2z M628,272.3c-0.7,0.1-1.5,0-2.3,0
			c-26.6,0-53.3,0-79.9,0c-1.3,0-2.5-0.1-3.9-0.2c0-1.4,0-2.4,0-3.7c29.3,0,58.3,0,87.7,0c0.1,0.7,0.3,1.3,0.3,1.9
			C629.9,272,629.6,272.2,628,272.3z M620.2,256.5c-1.8-0.5-3.6-0.9-5.4-1.5c-1.2-0.3-2.3-0.5-3.4-0.9c-6.1-2.1-6.5-8.7-4.1-12.4
			c2.4-3.8,7.4-5.7,12-4.2c0.9,0.3,1.9,0.7,2.9,1.2c3-2.2,3.6-2,4.1,1.6c0.2,1.4,0.4,2.8,0.5,4.2c0.1,0.8,0.5,1.9-0.6,2.4
			c-1.3,0.5-1.8-0.4-2.4-1.3c-0.9-1.2-1.8-2.5-2.9-3.5c-1-0.8-2.4-1.6-3.7-2c-1.4-0.5-2.8-0.2-4.1,0.6c-1.9,1.2-1.9,3.7,0,4.7
			c1,0.6,2.3,0.8,3.6,1.2c1.9,0.5,3.8,0.8,5.6,1.5c4,1.5,5.8,4,5.9,7.6c0,4.3-2.1,7.7-5.9,9.1c-3,1.2-6.2,1.2-9.3,0
			c-0.6-0.2-1.3-0.5-1.9-0.7c-0.7,0.4-1.4,0.8-2,1.2c-1.3,0.5-2,0.2-2.2-1c-0.5-2.9-0.8-6-1.2-8.8c2.1-0.8,2-0.7,3,0.5
			c1.5,1.8,2.8,3.8,4.6,5.2c1.9,1.6,4.2,2.1,6.6,1.2c1.6-0.6,2.3-1.6,2.3-2.9C622.3,257.8,621.5,256.9,620.2,256.5z M627.8,208.1
			c-1.2,2.7-2.8,5.4-4.7,7.7c-7.8,8.9-20.4,8.8-28.2-0.1c-3.7-4.2-5.8-9.2-6.8-14.6c-0.5-2.8-0.7-5.8-0.8-7.4
			c0.1-7.3,1-13.2,3.8-18.8c1.9-3.9,4.5-7.2,8.2-9.7c6.4-4.2,14.3-4.1,20.6,0.4c3.8,2.7,6.5,6.3,8.2,10.6
			C632,186.7,632.1,197.4,627.8,208.1z"/>
		<path class="st1" d="M551.4,258.5c0.2,2.2,1.6,3.5,3.8,3.3c1.9-0.1,2.8-1.4,3.4-2.8c0.8-2.4,0.8-4.8,0.5-7.3
			C554.3,251.2,551.1,254.2,551.4,258.5z"/>
	</g>
</g>
<path class="st0" d="M537.3,298.9c2.6,0,4.8,0,7.1,0c0.8,0,1.7,0,2.8,0c0,2.2,0,4.2,0,6.2c0,3.3,0,6.5-0.9,9.8
	c-2.9,10-11.8,16.8-22.1,17c-0.9,0-1.9,0-2.7,0c-140.3,0-280.5,0-420.7,0c-2.6,0-5.2-0.1-7.8-0.7c-10.5-2.5-17.8-11.9-17.8-22.8
	c0-25.8,0-51.7,0-77.5c0-35.4,0-70.7,0-106c0-10.1,4.7-17.4,13.7-21.9c2.6-1.3,5.4-1.9,8.3-2c1.2,0,2.3,0,3.6,0
	c140.4,0,280.6,0,421,0c2.8,0,5.8,0.1,8.5,0.8c9.3,2.4,16.4,11.1,17,20.9c0.2,3.5,0,7,0,10.8c-3.3,0-6.4,0-9.9,0c0-1.3,0-2.6,0-3.9
	c-0.1-2.6,0-5.2-0.4-7.8c-1.2-6.1-6.2-10.3-12.4-10.7c-1-0.1-2,0-3,0c-140.3,0-280.5,0-420.7,0c-1.7,0-3.4,0-5,0.4
	c-6.2,1.3-10.6,6.6-10.8,12.9c0,0.6,0,1.2,0,1.8c0,60.2,0,120.5,0,180.8c0,1.7,0.1,3.4,0.5,4.9c1.5,5.8,6.5,9.8,12.4,10
	c1,0,2.2,0,3.3,0c140,0,279.8,0,419.8,0c1,0,2,0,3,0c6.6,0.2,13.2-5.4,13.4-13.5C537.3,305.1,537.3,302.1,537.3,298.9z"/>
</svg>
