<?xml version="1.0" encoding="utf-8"?>
<!-- Generator: Adobe Illustrator 24.0.0, SVG Export Plug-In . SVG Version: 6.00 Build 0)  -->
<svg version="1.1" id="Layer_1" xmlns="http://www.w3.org/2000/svg" xmlns:xlink="http://www.w3.org/1999/xlink" x="0px" y="0px"
	 viewBox="0 0 2149.3 416.6" style="enable-background:new 0 0 2149.3 416.6;" xml:space="preserve">
<style type="text/css">
	.st0{fill:none;stroke:#D12E50;stroke-width:2.013;stroke-miterlimit:10;}
	.st1{opacity:0.5;enable-background:new    ;}
	.st2{clip-path:url(#SVGID_2_);}
	.st3{clip-path:url(#SVGID_4_);fill-rule:evenodd;clip-rule:evenodd;fill:#CE2A47;}
</style>
<path class="st0" d="M137.5,262.6c0-21.7-6.7-54.5,0.7-74.5c7.3-19.6,34-44,47.3-60.3c3.9-4.8,20.7-32.6,29.2-33.2
	c6.2-0.5,2.4-0.5,8.8,1.8c6.2,2.3,20.4,24.7,24.7,29.2c9,9.6,18.4,18.8,27.4,28.5c5.7,6,17.5,13.8,20.7,20.5
	c4,8.2-3.2,36.7-3.5,45.1c-0.7,17,2.4,42.4-5.3,58.5c-7.6,15.9-4.9,5.2-25.2-0.9c-40.9-12.4-85.2,15.6-126.2,14.2
	c-2.8-34.7-1.5-69.3-3.3-103.9c-0.3-5.7-4.9-20.9-2.9-26.3c2.4-6.6,18.8-14.2,23.8-19.4c15.3-16,26.6-36.2,42.3-51.9
	c7-7,15.4-16.3,23.8-21.2c19.4,50.3,87.5,65,117.1,106c-24,23.1-19.5,56.7-19.5,87.7c0,9.6,3.7,25.2-4.6,30.4
	c-4.2,2.5-20-0.1-24.4-0.1c-23,0-46.2,1.1-69.3,0.1c-20-0.9-47.2-9.1-66.4-1.5c-1.8-18.4-3.3-35.9-3.3-54.4c0-17.9-5.3-45,0-62.2
	c2.8-9.2,8.3-11.4,15.8-19c21.3-21.4,30.3-55,50.6-74.6c19.4,25.8,37.2,43.2,62.1,63.4c5.1,4.2,16.2,11.6,20,17.1
	c4.2,6.1,3.7,5.8,6,12.5c5.4,16.3-0.7,42.1,0.6,59.5c1.6,20.6,5.2,40.8,3.7,61.7c-0.5,6.2-1.9,33-9.1,38.4
	c-10.7,7.9-60.4-11.4-72.4-13.1c-30-4.3-64.6-18.3-94.9-15.4c-6.7,0.6-10.9-0.3-16.7,3.4c-1.9-34-3.7-72.1-0.2-106.2
	c5.8-55.8,53.1-120.6,95.3-156.3c16.7,27.1,32.1,46.2,58.7,65.7c10.5,7.7,21.5,14.5,26.4,26.8c1.7,4.4,2.7,16.7,3.2,19.8
	c5.1,31.2,17.1,61.1,22,92.3c2.4,15.6,2.3,31.6,0.1,47"/>
<g class="st1">
	<g>
		<g>
			<defs>
				<rect id="SVGID_1_" x="18.1" y="32.6" width="404.6" height="335.1"/>
			</defs>
			<clipPath id="SVGID_2_">
				<use xlink:href="#SVGID_1_"  style="overflow:visible;"/>
			</clipPath>
			<g class="st2">
				<g>
					<defs>
						<rect id="SVGID_3_" x="22.4" y="36.3" width="396.4" height="329.6"/>
					</defs>
					<clipPath id="SVGID_4_">
						<use xlink:href="#SVGID_3_"  style="overflow:visible;"/>
					</clipPath>
					<path class="st3" d="M27.1,295.8c30.7-9.1,58.6-19.6,82.6-35.3c-37.3-4.3-29.8-6.8-50.9,8.4c1.4-3.2-13.4,3.7-10.5,1.8
						c15.3-10.1,17.1-11.9,39.7-14.1c10.4-1,20.5,1,29-1.5c-21-3.5-37.1-11-51.7-22.2c-12.2-9.4-30.4-23.9-30.5-44
						c0-17.1,14.5-27.9,32.9-28c19.7-0.1,38.3,9.2,51.7,16c5,2.5,9.9,5.9,15,6.8c-1.9-7.5-5.1-13.6-7.7-20.3
						c-13.4-1.5-35.4,2.7-43.2-4.4c3.4-14.8,34.5-5.9,44.1-11.1c4.8,5.1,13.5,6,21.8,8.2c5.4,1.5,10.7,3.5,16,3.9
						c-8.7-30.4-24.9-53.4-29.5-88c4.6-7.5,20,2.7,25.2,6.2c19.4,13.6,31.3,38.3,37.7,59.4c4.3-0.1,2.5-4.1,2.4-6.8
						c-0.3-15.3-21.9-46.6-13.6-54.2c10.7,8,39,36.2,44.5,49.3c7.9-30.7,4.9-52.7,15.8-80.4c0.3,0,11-9.4,11.3-9.4
						c20.1,14.2-3.4,47.2-4.8,69.6c21.9-8.3,47.4,1.1,61.9,10.7c9.3-5.2,21.4-23.1,36.7-20.7c4.6,0.7,8.3,5.7,8.2,11.1
						c-0.1,13-15.4,16.4-23.7,22.7c8.3,7,15.8,13.4,24.1,21.8c4.8,4.8,19.8,18.1,17.9,28c-1.8,9.4-15.4,3.7-21.3,1
						c-14.2-6.6-28.7-13.8-41-19.4c-6,4-12.5,7.6-18.4,11.6c16.1,4.5,33.7,9.3,49.3,14.5c4.9,1.7,21.9,12.7,24.3,17.7
						c-18.8,2.2-59.3-11.8-78.9-9.5c-4.5,0.6-6.7,3.5-10.2,4.3c54.6,5.4,79,9.5,125,23.6c0,0.3,10.5,3.2,10.5,3.5
						c-0.8,6.3-0.8,6.3-9.3,4.8c-31.1-5.9-63.9-5-99.2-4.9c-1.5,1.1,1,1.9,1.5,2.4c2.6,3.2,5.6,6.8,7.3,10.7
						c1.4,2.9,1.1,6.6,2.4,9.6c1.8,4.2,7.7,8.5,11.1,12.1c4,4.1,7.9,8.5,11.1,12.6c6.2,7.7,16.5,18.7,16,30.9
						c-0.6,11.3-12.8,15.4-25.2,14.5c-29.8-2.2-61.9-25.1-82.2-37.7c-0.8,1.8-0.8,4.3-1,6.8c-7.7-3.5-8.6-13.4-14.1-18.8
						c-4.5-4.5-11.8-4.6-15-10.7c-3.2,4.1-6.8,7.7-10.7,11.1c4.6,9.3,12.5,23.4,13.5,37.7c0.3,4.3,1.2,10.2,0,14.5
						c-0.9,3.1-6.3,5.8-8.7,7.3c-3.1,1.9-7.5,5-12.1,4.3c-6.6-0.9-8.2-10.7-8.2-18.8c-0.1-11.4,1.7-23.5,2.4-33.3
						c-0.8-1.4-2.3,0.9-2.9,1.5c-3.4,2.6-9.1,6.2-11.1,9.2c-3.5,5.1-5.6,13.6-8.7,20.7c-9,20.7-1.5,25.8-10.5,43.5
						c-0.3,0-9.7,9.2-10,9.2c-2.6-5.3-15.1-0.9-15.8-7.3c-2.8-28,18.4-46.4,31.9-60c4.8-4.8,11-8.8,13-15
						c-13.6,0.2-20.7-6-29.5-10.7c-39.7,9.1-52.4,12.2-93.9,20.9c-12.5,2.6-12.5,3.4-24.4,5.6c0-0.3-10.8,4-14.5,0.9
						c1.7-2.3,7.6-5.3,9.9-6.1 M259.5,42.1c-9.6,23.4-15.8,50.2-22.7,76.4c1.1,1.4,2-1.6,2.9-2.4c3.1-3.2,7.9-6.6,12.1-8.7
						C253.1,84.8,261.9,65.2,259.5,42.1 M171.6,160c3.3-0.5,6.8-0.6,10.7-0.5c-0.6-2.5-2.2-4-1.9-7.3c2.5-3.3,6.5,0.2,9.6,0.5
						c-0.8-3.4,3.1-6.1,3.4-9.6c0.6-5.7-4.5-16-7.3-22.2c-9.2-20.9-24.5-39.1-44-46.4C147.3,105.7,162.5,131.1,171.6,160
						 M203.4,135.8c10.5-1.1,15.6,3.1,21.3,6.8c1.5-5.4,4.4-9.4,6.2-14.5c-5-11.9-11-22.8-19.8-30.9
						C202.9,104.3,202.5,120.9,203.4,135.8 M320.4,118.5c4,3.2,8.6,5.6,12.6,8.7c6.8-3.1,18-9.2,22.7-15.5c4.5-6.1,3.1-12.9-6.8-12
						C336.5,100.7,328.6,113,320.4,118.5 M253.8,107.8c-0.7,6.5-1.6,12.6-2.9,18.4c77.6-42.6,31.6-20.4,28,16
						c10.5,6.8,17.1-4.1,22.7-10.2c4.8-5.2,8.7-9.6,12.1-13C298.7,110.5,275.8,100.3,253.8,107.8 M251.3,109.3c-9.3,5-20,14.3-16,28
						c4.4-2.7,7.7-6.5,12.6-8.7C248.7,121.8,250,115.7,251.3,109.3 M329.1,129c-3.4-2.8-7.7-4.9-11.1-7.7
						c-7.4,5.7-13.3,12.8-19.8,19.4C308.1,138.3,319.2,133,329.1,129 M249.9,132.4c-1.2,7.5-2.5,14.8-3.9,22.2
						c2.5-0.8,5.6-0.8,8.3-1.5c-4.9-15,12.2-16,22.2-12.1C279,119.5,347.7,53.5,249.9,132.4 M317.5,138.8c9-0.7,32,3.4,30.5,12.2
						c-1,6.1-22.7,2.9-26.6,7.6c9,4.5,17.3,8.6,26.1,13c8.5,4.3,17.5,9.4,29,10.2c-1.9-12.5-11.4-21.5-19.4-29.5
						c-7.7-7.9-15.6-14.2-23.1-20.4C327.9,133.7,323.5,137,317.5,138.8 M246.5,134.9c-3.7,1.8-6.8,4.2-9.6,6.8
						c1,4.3,2.2,8.5,2.4,13.5h3.9C243.9,148.1,245.4,141.7,246.5,134.9 M233.5,135.4c-1.2,0.8-1,3.2-1.5,4.9
						c0.9-0.5,1.5-1.1,1.9-1.9C234.3,136.7,233,136.8,233.5,135.4 M229.5,137.3c-1.5,2.2-2.6,4.8-3.4,7.7
						C229.2,144.3,228.8,140.2,229.5,137.3 M204.5,140.2c0.2,6.6,1.5,12,2.4,17.9c9.9,0.6,12.4-6.3,16-12.1
						C219.5,141.4,212.4,138.5,204.5,140.2 M202.5,141.2c-1.5-0.2-1.9,0.7-2.9,1c0.7,2.6,0.9,6,1.5,9.2c0.5,2.5,0.5,6.5,2.9,7.3
						C205.9,154.2,202,147.4,202.5,141.2 M257.2,142.6c-1.5,3.2,0.2,7.1,0.9,9.6c6-1,12.1-2,16.9-4.3c-0.1-1.6,0.9-2,0.5-3.9
						C270.7,142.5,263.2,141.2,257.2,142.6 M297.7,148.4c6.9,3.3,14.2,6.1,21.3,9.2c3.9-2.8,18-5.7,22.4-7.9
						C337.1,137.4,306.7,145.6,297.7,148.4 M278.4,145.5v1.9c0.9-0.6,2.3-0.6,3.4-0.9C281.1,145.7,279.8,145.5,278.4,145.5
						 M194.7,148c-1.4,1.6-2,3.7-2.4,6.2c1,0.7,2.6,0.9,3.4,1.9C196.9,154,194.7,150.7,194.7,148 M276,167.8
						c6.8,0.5,13,4.9,18.8,4.3c6.2-0.7,13.4-10.7,19.8-12.1c-5.4-2.9-15.3-7-20.7-9.2C286.6,148,280.5,164.7,276,167.8 M284.7,150.8
						c-2.3,0-8.6,0.1-8.7,3.9C279,153.6,281.5,151.9,284.7,150.8 M226.7,150.3c-2.2,1.8-4.4,3.6-5.8,6.2c0.6,1.1,3.1,0.2,4.3,0.5
						C225.3,154.4,226.2,152.7,226.7,150.3 M94.3,154.6c7.8,4,19.7,3.9,30.5,4.9c-1.1-2-2-4.4-3.4-6.2
						C113,152.8,100.3,150.3,94.3,154.6 M229.5,152.7c-1.4,0.5-1.1,2.5-1.5,3.9h3.4C231.1,155.1,229.8,154.4,229.5,152.7
						 M272.1,153.7c-4,0.8-7.5,2.2-11.6,2.9c0.6,1.8,1.8,3.1,2.4,4.9C266.3,159.3,271.3,158.6,272.1,153.7 M185.1,155.2
						c0.1,1.8,1.1,2.7,1.5,4.3c1.7-0.1,2.5-1,2.4-2.9C187.6,156.2,187,155.1,185.1,155.2 M280.3,156.1c-5.2,0.3-9.5,5.6-11.1,11.1
						C275.6,166.2,276,159.3,280.3,156.1 M137.7,156.7c-1.2,2.5,6.3,4.3,11.6,3.4C145.9,158.5,141.4,157.9,137.7,156.7 M245.5,159.1
						c-0.8,1.4-0.5,3.7-1,5.3c5,0.2,12,2.4,15-1c-0.9-2-2.4-3.4-2.9-5.8C252.7,157.9,249.6,159,245.5,159.1 M237.8,160h-2.4
						c0.8,1.6,0.7,4.2,2.9,4.3C238.7,162.4,237.6,161.9,237.8,160 M230.5,160.5c0,1.6,1.6,1.7,1.5,3.4h2.9
						C234.2,162,233.9,159.7,230.5,160.5 M223.7,161c-1.5,0.5-3.5,0.3-4.9,1c0,0.7,0.1,1.4-0.5,1.5c0.7,1.1,3.4,0.2,4.9,0.5
						C223.8,163.3,223.8,162.1,223.7,161 M216.5,161.9c-2.5-0.6-2.5,1.5-3.9,1.9C214.1,165.3,216.9,163.9,216.5,161.9 M197.2,162.9
						c-2.3,0-4.8-0.2-6.2,0.5c0.3,1.4-0.7,1.2-0.5,2.4C193.3,167.2,196.5,165.2,197.2,162.9 M176.5,163.8c3.1,1.5,6.5,2.6,10.2,3.4
						C186.2,162.6,180.9,163.1,176.5,163.8 M147.4,163.8c3.9,3.4,9,5.6,13,8.7c3.2-0.3,5.6-1.6,8.7-1.9c-0.1-2.4-1.4-3.9-1.9-5.8
						C162.1,163,154,164.2,147.4,163.8 M121.8,249c-6.7-4.9-13.7-14.5-9.6-25.6c-38-10.7,4.8-29.7,15.4-35.3
						c-18-9.1-35.7-21.8-59.4-23.7c-17.5-1.5-31.5,8.4-27.1,27.5c5.4,23,31.9,42.7,53.6,52.1C103,247.7,113,251.8,121.8,249
						 M137.7,166.8c0,3.6,3.3,8,3.9,12.6c3.7-0.7,6-2.7,9.6-3.4C147.3,172.3,141.9,170.3,137.7,166.8 M174.5,167.2
						c-0.3,3.1,1.9,1.4,3.9,1.5C177.4,167.9,175.8,167.7,174.5,167.2 M228.6,167.8c-0.7,2.2-1,4.5-1,7.3c1.5,1,2.8,2,5.3,1.9
						C232.1,173.2,233.9,166.9,228.6,167.8 M222.4,168.2h-4.9c1,1.2,2.8,1.7,3.9,2.8C222,170.5,222.3,169.5,222.4,168.2
						 M242.7,178.9c4.2,0.1,7.5,2.2,10.7,1.5c4.5-1,6.2-7.8,9.2-10.7c-7.3-1.9-10.1,0.9-14.5,3.9C245.7,175,242,175.8,242.7,178.9
						 M225.2,169.2c-0.7,0.9-0.9,2.3-1,3.9C226.1,173.3,224.9,170.4,225.2,169.2 M198.1,169.7c-1.1-0.2-1,0.9-2.4,0.5
						C196,171.1,198.8,172,198.1,169.7 M271.1,174c1.5,2.9,3.5,5.2,4.9,8.3c7,1.2,9.4-5.1,15-6.8C285.6,174.1,275,169.2,271.1,174
						 M188.5,171.6c-4.9-0.3-7.7,1.4-12.1,1.5c1.4,4.3,3.3,8,4.3,12.6C183.3,180.8,186.2,176.6,188.5,171.6 M265.8,172.6
						c-3.1,1.8-4.2,5.4-6.8,7.7c0.2,1.1,2.4,0.2,3.4,0.5C262.9,177.5,268,175.6,265.8,172.6 M283.2,182.8c3.5,1.5,7.6,2.4,10.7,4.3
						c0.7,1,1.2,2.4,1,4.3c39.3-1.4,103.8,25.1,52.7-0.5c-16.7-6.2-35-10.7-53.2-15.4C290.5,177.8,287.2,180.6,283.2,182.8
						 M269.2,177.9c-1.8,0.1-1.4,2.5-2.8,2.8c1.1,0.8,3.2,0.7,4.9,0.9C271,179.9,269.6,179.4,269.2,177.9 M222.4,180.3
						c1.1-0.2,1,0.9,2.4,0.5C225.3,178.7,221.9,178.1,222.4,180.3 M143,183.7c1,2.5,1.2,5.9,2.4,8.3c3.7,1.2,8.3-0.5,12.6,0
						c8.4,0.8,14.3,6.1,18.4,9.2c-0.5-5.1-5.2-8.7-8.7-12.1c-3.7-3.6-7.7-7.1-11.6-10.2C151.1,179.8,147.4,182.1,143,183.7
						 M198.7,180.3c-2.6,1.9-4.3,4.6-6.2,7.3c0.9,4.2,1.1,9.2,4.3,11.1C199.5,194.7,198.1,186.5,198.7,180.3 M242.7,182.8
						c-0.2,3.3,2,4,3.9,5.3c2.4-0.3,2.3-3.2,4.3-3.9C249.3,182.4,244.9,183.6,242.7,182.8 M250.4,190.9c1.2,0.6,1.8,1.7,3.4,1.9
						c1.8-2.9,3.6-5.8,5.8-8.3C254.7,182.2,252.9,188.2,250.4,190.9 M222.4,183.7c-1.8,0.8-1.9,3.3-1.9,5.8c1.5-0.9,2.4-2.4,3.9-3.4
						C224.9,184,222.9,184.6,222.4,183.7 M204.5,185.1c-2.8,4.3,1.2,9.2,2.4,12.6c1.4-0.6,3.3-0.6,5.3-0.5
						C212.6,190.1,207.5,188.7,204.5,185.1 M227.6,185.6c-2,1.8-0.5,7.3-1,10.7c1.5,0.3,1.5-0.8,2.9-0.5c-0.2-3.6-0.5-5.7,0-9.2
						C228.7,186.5,227.9,186.3,227.6,185.6 M224.3,188.1c-1.6,1.4-3.4,2.4-3.9,4.9c1.2,0.7,2.7,1.2,3.4,2.4
						C224.9,193.9,224,190.4,224.3,188.1 M276.9,192.4c0.1-1.9-1-2.5-1.5-3.9c-2.3,1-4,2.8-6.2,3.9
						C270.1,192.6,274.5,192.2,276.9,192.4 M237.3,189.4c-0.9,1-0.7,4.9,0.5,5.3c2.3,0.5-0.1-3.6,1.5-3.9
						C239.1,189.9,237.4,190.5,237.3,189.4 M190.9,190c-2.6,1.6-3.6,4.8-5.8,6.8c0.8,1.4,1.8,2.4,2.4,3.9c1.9-0.7,4.5-0.7,6.2-1.5
						C192.9,196,191.4,193.4,190.9,190 M112.6,219.9c6-10.4,14.8-18,25.2-24.1c0.3-4-3.9-3.5-5.3-5.8
						C122.7,196.2,84.5,213.6,112.6,219.9 M287.5,196.2c-0.8-0.9-4.4-0.6-5.3,0v2.4C284.4,198.2,285.7,197,287.5,196.2 M153.2,195.8
						c0.7,2.7,4.2,1.1,5.8,1.5c5.6,1,9.3,4.5,14.1,6.2c0.7-1.9-5.1-5.7-8.7-6.8C161,195.7,157,195.8,153.2,195.8 M262.9,197.3
						c4,2.5,11.3,1.5,16.9,2.4C279,193,268.3,198.1,262.9,197.3 M147,199.2c0.7,10.1,0.6,24.1-4.3,31.4c1.8,0.8,6.9,0.8,8.7,0
						c2-4.1,5.1-7.1,11.6-6.8c-1.2-3.3-0.2-8.2,1.5-10.2C159.5,207.9,152.7,204.1,147,199.2 M138.7,201.1
						c-10.2,4.6-17.8,11.8-23.2,21.3c4.5,5.6,12.6,7.7,22.2,8.2C140.2,222.1,140.9,210.4,138.7,201.1 M160.9,201.6
						c0.3,1.5,1.9,1.6,3.9,1.5C163.6,202.4,162.6,201.6,160.9,201.6 M226.7,202v3.9c1.2-0.3,1.8-1.4,2.9-1.9
						C228.9,203,227.9,202.4,226.7,202 M204.5,203.5c-0.1,3.4,0.5,6,1.5,8.3c1.6-0.7,3.3-1.2,5.3-1.5
						C209.3,207.7,207.6,204.7,204.5,203.5 M248.4,205.9c-0.7,1.5,0.2,1.7,0,3.9c5.8-0.6,9.7-2.8,15-3.9
						C259.8,203.6,252.6,205.7,248.4,205.9 M270.2,205.4c7.6,6.1,15.1,12.4,22.7,18.4h8.7C292.3,216.4,282.7,209.5,270.2,205.4
						 M279.8,205.9c9.5,5.3,18.4,11.2,26.6,17.9c27.9-0.3,61.6-0.9,86,0.9C358.1,215.3,321.2,208.4,279.8,205.9 M250.4,211.8
						c5.1,2.5,12.1,10.2,18.4,11.6c5.2,1.2,10.8-0.6,17.3,0.5c-6.5-5.8-13.5-11-20.3-16.4C260.3,208.5,256.3,211,250.4,211.8
						 M170.1,207.8c0-1-2-0.2-2.9-0.5C167.3,208.7,169.5,208.5,170.1,207.8 M173.1,207.8c-1.9,0.3-3.5,1.5-2.4,3.4
						C172.1,210.9,172.6,209.4,173.1,207.8 M233.5,208.4c-3.3,0.6-6.6,1.1-6.2,5.3C229.5,212.1,233.8,212.6,233.5,208.4
						 M177.8,211.8c-0.9,1.7-0.9,6.7,0.5,7.7c2-0.2,3.7-0.8,5.3-1.5C182.6,215.1,179.5,214.2,177.8,211.8 M210.2,214.6
						c-0.5-1.5-1.2,0.7-2.4,0C208.5,216.4,209.4,216,210.2,214.6 M237.3,215.6c-1.7-0.2-2.2,0.8-2.9,1.5
						C235.1,219.1,237.6,217.3,237.3,215.6 M199.6,217c0.7,1.5,2.3,1.9,2.9,3.4c1.5,0.2,1.1-1.5,2.9-1
						C204.9,216.4,202.4,215.4,199.6,217 M167.3,216.1c-1.9-0.3-0.6,2.6-0.9,3.9C167,219.1,168.3,217.3,167.3,216.1 M225.2,218.5
						c-1.9,0.3-3.5,1-5.3,1.5c1,4.1,2.3,8,6.8,8.7C225.9,225.5,226.1,221.5,225.2,218.5 M227.6,219.5c-0.1,2,0.8,3.1,0.5,5.3
						c1.4-0.9,1.8-2.6,2.4-4.3C229.6,220.1,228.7,219.6,227.6,219.5 M219,220.8c-2,0.5,0.3,4,1,4.9
						C221.1,224.5,218.6,222.9,219,220.8 M187.6,220.8c-1.6-0.3-0.2,3.4,1,3.4C188.8,222.5,187.9,222,187.6,220.8 M185.1,221.4
						c-1.4,0.2-2.5,0.7-3.9,0.9c-0.2,1.7,1.7,1.1,1.5,2.9c1.5,0.3,1.5-0.8,2.9-0.5C186,223.1,184.8,222.9,185.1,221.4 M238.2,234
						c2.6,0.6,4.3,2.2,7.3,2.4c-0.9-3.9-0.5-9-1.5-12.6C237.2,220.2,238.8,228.7,238.2,234 M209.2,226.2c1.8,3.7,6.1,5.2,8.2,8.7
						C218.3,231.2,212.2,220.3,209.2,226.2 M168.6,227.2c1.8,0.7,4.8,0.1,6.8-0.5C175.4,223.2,169,225.2,168.6,227.2 M251.8,225.3
						c0.3,7.6,1.7,14.1,1.5,22.2c14.1,6.6,27.9,13.4,46.4,15.4c5.7-10.7-5.9-18.4-14.1-24.1c-6.8-4.9-13.9-9.3-19.3-12.6
						C260.9,226.4,256.9,225.3,251.8,225.3 M135.8,234.9c-7.4-2.6-16.3-3.6-20.7-9.2c-6.1,6.2,3.5,20.7,10.2,20.3
						C130.5,245.7,132.2,238.2,135.8,234.9 M236.3,226.2c-0.9,1.4-3.4,5.1-1.5,6.2C236.6,231.7,235.7,228.2,236.3,226.2
						 M296.3,226.7c7.5,6.6,15.8,14.8,22.7,20.3c-1.7-9.6-7.7-14.8-13.5-20.3H296.3z M274.5,226.7c9,7.5,38.3,17.6,27.1,36.3
						c9.5,0.5,14.5-3.5,17.3-9.6c-8.8-9.9-18.9-18.4-29.5-26.6H274.5z M220.9,230.6c0.1,1.6,1.1,2.2,1,3.9c1.6,0.5,0.7-1.6,1.9-1.5
						C222.9,232.1,222.5,230.7,220.9,230.6 M208.3,231.5c-5.6,6,1.4,12,5.8,15c0.8-2.6,3.2-3.6,3.9-6.2
						C214.3,237.7,211.4,234.6,208.3,231.5 M176.5,232.1c-0.9,0.3-4.8,0.3-3.9,0.9C174.1,232.5,176.7,234.9,176.5,232.1 M192.3,234
						c-1.2-0.1-1.5,0.8-2.4,1c1.4,2.3,3.1,4.3,4.3,6.8C195,239.7,192.7,236.6,192.3,234 M129.1,246.5c11.6,2.8,21.9-2.6,30.5-5.8
						c0.3-1.2,0.2-3.1,1-3.9c-4.2-3.4-11.7-1.5-19.4-1.9C137,238.8,134.3,243.9,129.1,246.5 M237.8,237.3c1.1,3.3,5.4,3.3,7.3,5.8
						C246.5,239.2,240.3,238.9,237.8,237.3 M180.8,238.8c2.3,7.7,4.2,15.8,6.8,23.2c2.3-0.5,4.4-1.1,6.8-1.5
						c3.3-9-6.2-14.5-9.2-21.8H180.8z M177.8,240.2c-5.3,2.2-10.9,4.3-16.4,6.2c-1.7,8.2,1.1,15.9,4.9,20.3c6.1-1,11.6-2.8,17.9-3.9
						C182.1,255.3,179.6,248,177.8,240.2 M205.4,240.7c-4.5,3.7-1.7,10.1-1.5,16.4c3.3-2.2,5.2-5.8,8.2-8.3
						C210.1,246,207.2,243.9,205.4,240.7 M237.8,241.7c-1.8,0.1-0.3,3.5-1.5,4.3c-2.2-0.3-3.4-1.7-4.9-2.9c-1.4,3.6,2.9,5.7,5.3,7.3
						c2.9-0.9,6.2-1.5,8.7-2.9C244.2,244.3,239.8,244.2,237.8,241.7 M221.3,243.2c-2.3,1.6-3.2,4.5-5.3,6.2c1.6,1.7,2.8,3.9,5.3,4.9
						C224,250.9,224.2,246.6,221.3,243.2 M158.5,247.5c-12.8,4.3-29.5,4.6-42.1,9.2c14.4,2.8,28.8,5.7,39.1,12.6
						c2.8-0.6,5.8-1,8.3-1.9C161.2,261.7,158.7,255.6,158.5,247.5 M229.5,249.9c-1.4,0.5,0.5,1.7,0.5,2.4
						C232.1,251.6,230,250.8,229.5,249.9 M124.2,250.4c0.3,1,2.7,0.2,3.9,0.5C127.4,250.1,125.2,249.4,124.2,250.4 M254.2,250.9
						c-1.6,1.7-0.2,6.2-1,9.6c10.1,5.1,26.5,9.6,41,5.8C279.5,262.7,265.6,258,254.2,250.9 M245,250.9c-1.4,0.6-2.5,1.4-4.3,1.5
						c0.1,2.2,2.8,1.7,3.4,3.4C244.9,254.6,245.1,252.8,245,250.9 M215.1,251.3c-1.7,1.4-2.8,3.3-4.3,4.9c1.7,0.9,4.6-1.1,7.3-1
						C217.4,253.6,215.3,253.4,215.1,251.3 M233.9,254.7c1,3.5,1.6,7.5,3.9,9.6c3.1-0.2,4.1-2.3,5.3-4.3
						C241,257.6,237,254.6,233.9,254.7 M321.3,254.7c-0.5-0.1-0.5,0.2-0.5,0.5c-0.8,3.4-2.4,7.1-5.8,9.2c-4.8,2.8-10.7,1-17.3,1.9
						c-3.5,0.5-7,3.4-11.1,3.9c-12.8,1.6-25.1-2-32.9-5.8c-1.1,3.7-0.5,9.2-1.5,13c11.4,9.2,25.6,16.4,41,24.1
						c14.3,7.1,31.4,16.3,49.8,15.4c8.6-0.3,13.7-4,12.6-14.1c-1-9.3-8.4-17.9-14.5-25.6C334.1,268.6,327.3,261.4,321.3,254.7
						 M227.6,256.7c-1.7-0.3-1.8,0.7-3.4,0.5c1.4,2.6,4.4,3.6,6.2,5.8C231,261.3,228.1,258.8,227.6,256.7 M34.8,295.3
						c38-6.7,76.7-16.7,115.1-24.6c-9.6-6.3-23.4-8.5-37.2-10.7C89.7,274.8,64,286.8,34.8,295.3 M246.5,261
						c-1.5,1.1-0.9,1.8-1.9,3.4c-0.6,0.8-3.4,2.8-3.4,3.4c-0.1,2.8,7.1,6.1,9.2,7.3c-0.3-4.4,0.7-7.4,0.5-11.6
						C249.5,262.6,247.6,262.1,246.5,261 M192.3,264.4c-1.1,0.5-2.4,0.8-3.9,0.9c-0.1,1.6,0.9,2,0.5,3.9
						C191.6,269.1,191.4,266.3,192.3,264.4 M185.1,266.3c-4.9,1-9.9,2-14.5,3.4c3.1,2.8,11.4,3.2,15.4,1
						C185.6,269.4,185.5,267.7,185.1,266.3 M199.6,268.2c-5.7,1.1-9.4,8.3-11.1,15c3.9-2.4,7-5.6,10.7-8.2
						C199.5,272.9,198.4,269.6,199.6,268.2 M160.9,271.6c6.9,4.3,14.7,10,25.2,9.2c0.5-1.8,1.2-3.2,1-5.8
						c-7.7,2.7-16.3,0.6-20.3-4.3C164.3,270.5,163.4,271.9,160.9,271.6 M242.7,274.6c0.8,2.6,3.9,7,6.8,9.2
						C250.3,277.5,244.6,277.9,242.7,274.6 M205.9,274.6c-3.6,3.1-2.8,11.6-3.4,19.8c-0.8,10.8-3.9,33.6,5.3,35.7
						c5.4,1.2,8.2-3.2,12.1-4.9c0.9-19.6-3.9-37.3-12.1-49.3C207.4,275.3,207.6,274.2,205.9,274.6 M179.3,297.2
						c-16.5,15-58.6,61.7-23.7,65.3C172.6,351.8,168.1,321.7,179.3,297.2"/>
				</g>
			</g>
		</g>
	</g>
</g>
<path d="M502.5,172c0,23.1-13.9,37.1-34.6,37.1c-20.7,0-33.1-15.8-33.1-35.9c0-21.1,13.6-36.8,34.2-36.8
	C490.7,136.3,502.5,152.5,502.5,172 M451.7,172.8c0,13.9,6.5,23.6,17.1,23.6c10.8,0,16.9-10.2,16.9-23.9c0-12.7-6-23.6-16.9-23.6
	C457.9,149,451.7,159.2,451.7,172.8"/>
<path d="M512.9,138.4c4.2-0.7,12.5-1.5,20.5-1.5c9.7,0,15.6,0.9,20.9,4c4.9,2.6,8.4,7.4,8.4,13.9c0,6.1-3.6,11.9-11.6,15v0.2
	c8,2,13.9,8.3,13.9,17.2c0,6.5-2.9,11.4-7.4,15.1c-5.1,4.1-13.7,6.3-27.7,6.3c-7.8,0-13.7-0.6-17.2-1v-69.3H512.9z M528.7,165.4h5.2
	c8.5,0,12.8-3.4,12.8-8.6c0-5.3-4.1-8.2-11.2-8.2c-3.5,0-5.6,0.2-6.8,0.5L528.7,165.4L528.7,165.4z M528.7,196.6
	c1.6,0.2,3.4,0.2,6.1,0.2c7.3,0,13.6-2.8,13.6-10.2c0-7-6.3-9.9-14.3-9.9h-5.4L528.7,196.6L528.7,196.6z"/>
<path d="M576.5,191.5c4.2,2.2,10.9,4.4,17.7,4.4c7.3,0,11.2-3.1,11.2-7.6c0-4.4-3.4-6.9-11.8-9.9c-11.7-4.2-19.4-10.7-19.4-20.9
	c0-12,10.1-21.1,26.6-21.1c8,0,13.7,1.6,17.9,3.5l-3.5,12.7c-2.7-1.4-7.8-3.3-14.6-3.3c-6.9,0-10.2,3.3-10.2,6.8
	c0,4.5,3.9,6.5,13,9.9c12.4,4.6,18.1,11.1,18.1,21c0,11.8-9,21.8-28.3,21.8c-8,0-16-2.2-20-4.4L576.5,191.5z"/>
<polygon points="674.2,178.1 648.4,178.1 648.4,194.9 677.3,194.9 677.3,207.9 632.5,207.9 632.5,137.5 675.8,137.5 675.8,150.6 
	648.4,150.6 648.4,165.2 674.2,165.2 "/>
<path d="M688,138.4c5.1-0.8,12.6-1.5,21.2-1.5c10.4,0,17.8,1.6,22.8,5.6c4.3,3.4,6.6,8.4,6.6,14.8c0,8.8-6.3,15.1-12.4,17.2v0.3
	c4.9,1.9,7.6,6.6,9.4,13c2.2,8,4.3,17.2,5.7,20H725c-1-2.2-2.8-7.7-4.8-16.4c-1.9-8.8-5-11.2-11.6-11.2H704v27.7h-15.8v-69.5H688z
	 M703.8,168.8h6.2c7.9,0,12.6-4,12.6-10.1c0-6.3-4.4-9.7-11.7-9.7c-3.9,0-6,0.2-7.3,0.6v19.3H703.8z"/>
<path d="M765.9,207.9l-22.6-70.4h17.5l8.6,29.7c2.4,8.5,4.5,16.4,6.2,25.2h0.3c1.8-8.5,4-16.8,6.3-24.8l9-30h16.9l-23.7,70.4H765.9z
	"/>
<path d="M826.4,189.9l-5,18H805l21.4-70.4h20.9l21.9,70.4h-17.2l-5.4-18H826.4z M844.3,178l-4.4-15c-1.2-4.2-2.5-9.4-3.5-13.6h-0.2
	c-1,4.2-2,9.5-3.2,13.6l-4.2,15H844.3z"/>
<polygon points="883.6,150.9 864.6,150.9 864.6,137.5 918.7,137.5 918.7,150.9 899.4,150.9 899.4,207.9 883.6,207.9 "/>
<path d="M988.5,172c0,23.1-13.8,37.1-34.6,37.1c-20.7,0-33.1-15.8-33.1-35.9c0-21.1,13.6-36.8,34.2-36.8
	C976.6,136.3,988.5,152.5,988.5,172 M937.6,172.8c0,13.9,6.5,23.6,17.1,23.6c10.8,0,16.9-10.2,16.9-23.9c0-12.7-5.9-23.6-16.9-23.6
	C943.9,149,937.6,159.2,937.6,172.8"/>
<rect x="999" y="137.5" width="15.9" height="70.4"/>
<path d="M1028.7,138.4c5.1-0.8,12.6-1.5,21.2-1.5c10.4,0,17.8,1.6,22.8,5.6c4.3,3.4,6.6,8.4,6.6,14.8c0,8.8-6.3,15.1-12.5,17.2v0.3
	c4.9,1.9,7.6,6.6,9.4,13c2.2,8,4.3,17.2,5.7,20h-16.3c-1-2.2-2.8-7.7-4.8-16.4c-2-8.8-5-11.2-11.6-11.2h-4.6v27.7h-15.8v-69.5
	H1028.7z M1044.4,168.8h6.2c7.9,0,12.6-4,12.6-10.1c0-6.3-4.4-9.7-11.7-9.7c-3.9,0-6,0.2-7.3,0.6v19.3H1044.4z"/>
<polygon points="1132.4,178.1 1106.5,178.1 1106.5,194.9 1135.4,194.9 1135.4,207.9 1090.7,207.9 1090.7,137.5 1134,137.5 
	1134,150.6 1106.5,150.6 1106.5,165.2 1132.4,165.2 "/>
<rect x="1183.6" y="137.8" width="9.1" height="69.3"/>
<path d="M1223.4,207l-22.7-69.3h9.7l10.8,34.1c2.8,9.3,5.4,17.8,7.4,25.8h0.2c1.9-7.9,4.8-16.8,7.9-25.7l11.7-34.2h9.5l-24.8,69.3
	L1223.4,207L1223.4,207z"/>
<path d="M1270.9,185.3l-7.3,21.8h-9.3l23.7-69.3h10.7l23.6,69.3h-9.5l-7.4-21.8L1270.9,185.3L1270.9,185.3z M1293.7,178.2l-6.9-20
	c-1.6-4.5-2.6-8.6-3.6-12.7h-0.2c-1,4-2,8.3-3.5,12.6l-6.8,20.1H1293.7z"/>
<path d="M1322.6,207v-69.3h9.9l22.1,35c5,8.2,9.2,15.4,12.4,22.6l0.3-0.1c-0.8-9.3-1-17.7-1-28.5v-29h8.4V207h-9.1l-22-35.1
	c-4.8-7.7-9.4-15.6-12.8-23.1l-0.3,0.1c0.6,8.7,0.6,17,0.6,28.6V207H1322.6z"/>
<polygon points="1399.1,137.8 1399.1,166.8 1432.7,166.8 1432.7,137.8 1441.6,137.8 1441.6,207 1432.7,207 1432.7,174.5 
	1399.1,174.5 1399.1,207 1390,207 1390,137.8 "/>
<path d="M1516.3,171.6c0,23.7-14.5,36.5-32.2,36.5c-18.4,0-31.2-14.3-31.2-35.3c0-22,13.6-36.4,32.1-36.4
	C1504.1,136.5,1516.3,151,1516.3,171.6 M1462.5,172.7c0,14.8,8,28.1,22.2,28.1c14.2,0,22.2-13,22.2-28.8c0-13.8-7.1-28.2-22.1-28.2
	C1469.8,143.9,1462.5,157.6,1462.5,172.7"/>
<path d="M1648.6,204.9c-3.2,1.6-9.9,3.3-18.3,3.3c-19.5,0-34.1-12.4-34.1-35.1c0-21.8,14.7-36.4,36.2-36.4c8.5,0,14.1,1.8,16.4,3.1
	l-2.3,7.3c-3.3-1.7-8.2-2.8-13.8-2.8c-16.2,0-27,10.3-27,28.6c0,17.1,9.7,27.9,26.5,27.9c5.6,0,11.1-1.1,14.7-2.8L1648.6,204.9z"/>
<path d="M1671.5,185.3l-7.3,21.8h-9.3l23.7-69.3h10.7l23.6,69.3h-9.5l-7.4-21.8H1671.5z M1694.3,178.2l-6.9-20
	c-1.6-4.5-2.6-8.6-3.6-12.7h-0.2c-1,4-2,8.3-3.5,12.6l-6.8,20.1H1694.3z"/>
<path d="M1781,176.6c-0.5-9.6-1.1-21.4-1.1-29.9h-0.2c-2.5,8-5.2,16.8-8.7,26.3l-12.2,33.6h-6.8l-11.3-33c-3.3-9.9-6-18.7-7.9-26.9
	h-0.2c-0.2,8.6-0.7,20.2-1.4,30.6l-1.8,29.7h-8.5l4.8-69.3h11.4l11.8,33.6c2.8,8.5,5.1,16.1,7,23.4h0.2c1.8-7,4.3-14.6,7.4-23.4
	l12.4-33.6h11.4l4.3,69.3h-8.8L1781,176.6z"/>
<path d="M1805.3,138.8c4-0.9,10.2-1.6,16.3-1.6c9,0,14.7,1.6,18.9,5c3.6,2.7,5.9,6.8,5.9,12.2c0,6.8-4.5,12.7-11.7,15.2v0.3
	c6.6,1.6,14.3,7,14.3,17.2c0,6-2.4,10.5-6,13.8c-4.8,4.4-12.5,6.5-23.8,6.5c-6.1,0-10.9-0.5-13.8-0.8v-67.9H1805.3z M1814.2,167.1
	h8.2c9.3,0,15-5,15-11.7c0-8-6.1-11.3-15.1-11.3c-4.1,0-6.5,0.3-7.9,0.6v22.4H1814.2z M1814.2,200.2c1.8,0.3,4.3,0.5,7.5,0.5
	c9.3,0,17.8-3.4,17.8-13.5c0-9.3-8.2-13.4-17.9-13.4h-7.4L1814.2,200.2L1814.2,200.2z"/>
<path d="M1860.9,138.7c4.5-0.8,11.1-1.5,17.1-1.5c9.5,0,15.9,1.8,20.1,5.7c3.4,3.1,5.4,7.8,5.4,13.3c0,9.1-5.8,15.1-12.9,17.6v0.3
	c5.2,1.8,8.4,6.8,10.1,13.9c2.3,9.6,3.9,16.3,5.3,19h-9.3c-1.1-2-2.6-7.9-4.5-16.5c-2-9.5-5.9-13.1-13.9-13.5h-8.4v30h-9
	L1860.9,138.7L1860.9,138.7z M1869.9,170.2h9.2c9.5,0,15.6-5.2,15.6-13.1c0-9-6.5-12.8-16-12.8c-4.3,0-7.3,0.3-8.8,0.7V170.2z"/>
<rect x="1916.1" y="137.8" width="9.1" height="69.3"/>
<path d="M1940.8,138.8c5.4-0.9,11.9-1.6,19-1.6c12.8,0,22,3.1,28,8.6c6.2,5.7,9.9,13.7,9.9,24.8c0,11.3-3.6,20.5-10,27
	c-6.6,6.5-17.2,10-30.7,10c-6.5,0-11.7-0.3-16.2-0.8L1940.8,138.8L1940.8,138.8z M1949.7,200c2.3,0.3,5.6,0.5,9.1,0.5
	c19.3,0,29.5-10.7,29.5-29.4c0.1-16.3-9.2-26.8-28.1-26.8c-4.6,0-8.2,0.5-10.4,0.9V200z"/>
<path d="M2062,204c-4,1.5-12,3.9-21.4,3.9c-10.4,0-19.2-2.7-25.8-9.2c-6-5.8-9.6-15-9.6-25.8c0-20.6,14.3-35.7,37.5-35.7
	c8,0,14.4,1.7,17.3,3.2l-2.3,7.3c-3.7-1.7-8.3-2.9-15.3-2.9c-16.9,0-27.9,10.5-27.9,27.9c0,17.6,10.5,28,26.8,28
	c5.9,0,9.9-0.8,11.9-1.8V178h-13.9v-7.1h22.8L2062,204L2062,204z"/>
<polygon points="2111.3,174.6 2084.4,174.6 2084.4,199.5 2114.5,199.5 2114.5,207 2075.5,207 2075.5,137.8 2113,137.8 2113,145.2 
	2084.4,145.2 2084.4,167.1 2111.3,167.1 "/>
<g>
	<path d="M439.6,237.2c3.3-0.5,7.1-0.9,11.4-0.9c7.7,0,13.1,1.8,16.8,5.2c3.7,3.4,5.9,8.2,5.9,15s-2,12.4-6,16.1
		c-3.9,3.9-10.3,6-18.4,6c-3.9,0-7-0.2-9.7-0.5V237.2z M444.9,273.9c1.4,0.2,3.3,0.3,5.4,0.3c11.4,0,17.7-6.5,17.7-17.7
		c0.1-9.7-5.4-16-16.8-16c-2.7,0-4.9,0.2-6.2,0.6v32.8H444.9z"/>
	<path d="M497.8,236.6v24.6c0,9.3,4.1,13.3,9.6,13.3c6.1,0,10.1-4.1,10.1-13.3v-24.6h5.4v24.3c0,12.8-6.7,18-15.8,18
		c-8.5,0-15-4.9-15-17.8v-24.5H497.8z"/>
	<path d="M593.9,237.2c3.3-0.5,7.1-0.9,11.4-0.9c7.7,0,13.1,1.8,16.8,5.2c3.7,3.4,5.9,8.2,5.9,15s-2,12.4-6,16.1
		c-3.9,3.9-10.3,6-18.4,6c-3.9,0-7-0.2-9.7-0.5V237.2z M599.3,273.9c1.4,0.2,3.3,0.3,5.4,0.3c11.4,0,17.7-6.5,17.7-17.7
		c0.1-9.7-5.4-16-16.8-16c-2.7,0-4.9,0.2-6.2,0.6v32.8H599.3z"/>
	<path d="M668.3,258.7h-16.1v15h17.9v4.5h-23.4v-41.6h22.4v4.5h-17.1v13.1h16.1v4.4H668.3z M667.3,227.2l-7.8,7.3H655l5.8-7.3H667.3
		z"/>
	<path d="M698.7,278.2l-13.6-41.6h5.8l6.5,20.5c1.8,5.6,3.3,10.7,4.4,15.5h0.1c1.1-4.8,2.9-10.1,4.8-15.4l7-20.5h5.8l-14.8,41.5
		H698.7z"/>
	<path d="M757.2,258.7h-16.1v15h18v4.5h-23.4v-41.6h22.4v4.5h-17.1v13.1h16.1L757.2,258.7L757.2,258.7z"/>
	<path d="M777.8,236.6h5.3v37.1h17.8v4.5h-23.1V236.6z"/>
	<path d="M851.9,257c0,14.3-8.7,21.9-19.3,21.9c-11,0-18.7-8.5-18.7-21.1c0-13.1,8.2-21.9,19.3-21.9
		C844.6,235.9,851.9,244.6,851.9,257z M819.6,257.7c0,8.8,4.8,16.8,13.3,16.8c8.5,0,13.3-7.8,13.3-17.2c0-8.3-4.3-16.9-13.3-16.9
		C824.1,240.3,819.6,248.5,819.6,257.7z"/>
	<path d="M870.6,237.2c2.6-0.5,6-0.8,10.3-0.8c5.3,0,9.2,1.2,11.7,3.4c2.3,1.9,3.6,5,3.6,8.7c0,3.7-1.1,6.7-3.2,8.8
		c-2.8,3.1-7.5,4.5-12.7,4.5c-1.6,0-3.1-0.1-4.3-0.3v16.7h-5.3v-41H870.6z M876,257.1c1.1,0.3,2.6,0.5,4.4,0.5
		c6.5,0,10.4-3.2,10.4-8.8c0-5.4-3.9-8.2-9.7-8.2c-2.4,0-4.1,0.2-5.1,0.5L876,257.1L876,257.1z"/>
	<path d="M915.2,237.2c2.6-0.5,6-0.8,10.3-0.8c5.3,0,9.2,1.2,11.7,3.4c2.3,1.9,3.6,5,3.6,8.7c0,3.7-1.1,6.7-3.2,8.8
		c-2.8,3.1-7.5,4.5-12.7,4.5c-1.6,0-3.1-0.1-4.3-0.3v16.7h-5.3v-41H915.2z M920.6,257.1c1.1,0.3,2.6,0.5,4.4,0.5
		c6.5,0,10.4-3.2,10.4-8.8c0-5.4-3.9-8.2-9.7-8.2c-2.4,0-4.1,0.2-5.1,0.5L920.6,257.1L920.6,257.1z"/>
	<path d="M981.3,258.7h-16.1v15h18v4.5h-23.4v-41.6h22.4v4.5h-17.1v13.1h16.1L981.3,258.7L981.3,258.7z"/>
	<path d="M1036.9,260c-0.3-5.8-0.7-12.8-0.6-17.9h-0.2c-1.5,4.9-3.2,10.1-5.2,15.8l-7.4,20.2h-4.1l-6.7-19.8
		c-1.9-5.9-3.6-11.2-4.8-16.1h-0.1c-0.1,5.2-0.5,12.1-0.8,18.4l-1.1,17.8h-5.1l2.9-41.6h6.8l7.1,20.1c1.7,5.1,3.2,9.6,4.2,13.9h0.2
		c1-4.2,2.5-8.7,4.4-13.9l7.4-20.1h6.8l2.6,41.6h-5.2L1036.9,260z"/>
	<path d="M1084.9,258.7h-16.1v15h18v4.5h-23.4v-41.6h22.4v4.5h-17.1v13.1h16.1L1084.9,258.7L1084.9,258.7z"/>
	<path d="M1105.5,278.2v-41.6h5.9l13.3,21c3.1,4.9,5.4,9.3,7.5,13.5l0.1-0.1c-0.5-5.6-0.6-10.7-0.6-17.1v-17.3h5.1v41.7h-5.4
		l-13.1-21.1c-2.9-4.6-5.7-9.4-7.8-13.8l-0.2,0.1c0.3,5.2,0.5,10.2,0.5,17.1v17.7H1105.5z"/>
	<path d="M1165.8,241.2h-12.6v-4.5h30.7v4.5h-12.7v37h-5.4V241.2z"/>
	<path d="M1255.6,236.6v24.6c0,9.3,4.1,13.3,9.6,13.3c6.1,0,10.1-4.1,10.1-13.3v-24.6h5.4v24.3c0,12.8-6.7,18-15.8,18
		c-8.5,0-15-4.9-15-17.8v-24.5H1255.6z"/>
	<path d="M1301.8,237.2c2.7-0.6,6.6-0.9,10.3-0.9c5.8,0,9.4,1,12,3.4c2.2,1.8,3.3,4.6,3.3,7.9c0,5.4-3.4,9.1-7.8,10.7v0.2
		c3.2,1.1,5.1,4.1,6.1,8.4c1.4,5.8,2.4,9.7,3.2,11.4h-5.6c-0.7-1.1-1.6-4.8-2.7-10c-1.2-5.8-3.4-7.9-8.3-8h-5.1v17.9h-5.3v-41
		H1301.8z M1307.3,256.1h5.4c5.8,0,9.4-3.2,9.4-7.9c0-5.3-3.9-7.7-9.5-7.8c-2.6,0-4.4,0.2-5.3,0.5L1307.3,256.1L1307.3,256.1z"/>
	<path d="M1346.8,237.2c2.4-0.5,6-0.9,9.7-0.9c5.3,0,8.8,0.9,11.4,3.1c2.2,1.6,3.4,4.1,3.4,7.4c0,4-2.6,7.5-7,9.1v0.1
		c4,1,8.6,4.3,8.6,10.4c0,3.6-1.5,6.2-3.5,8.3c-2.9,2.6-7.6,3.9-14.4,3.9c-3.7,0-6.6-0.2-8.3-0.5V237.2z M1352.2,254.2h4.9
		c5.7,0,9-2.9,9-6.9c0-4.9-3.7-6.8-9.1-6.8c-2.5,0-3.9,0.2-4.8,0.3L1352.2,254.2L1352.2,254.2z M1352.2,274.1c1,0.2,2.6,0.2,4.5,0.2
		c5.6,0,10.7-2,10.7-8c0-5.7-4.9-8-10.8-8h-4.4V274.1z"/>
	<path d="M1398.8,265.2l-4.3,13h-5.6l14.2-41.6h6.5l14.2,41.6h-5.8l-4.4-13H1398.8z M1412.4,261l-4.1-11.9c-0.9-2.7-1.6-5.2-2.2-7.6
		h-0.1c-0.6,2.5-1.2,5-2,7.5l-4.1,12L1412.4,261L1412.4,261z"/>
	<path d="M1446.9,236.6v41.6h-5.3v-41.6H1446.9z"/>
	<path d="M1468.2,278.2v-41.6h5.9l13.3,21c3.1,4.9,5.4,9.3,7.5,13.5l0.1-0.1c-0.5-5.6-0.6-10.7-0.6-17.1v-17.3h5.1v41.7h-5.4
		l-13.1-21.1c-2.9-4.6-5.7-9.4-7.7-13.8l-0.2,0.1c0.3,5.2,0.5,10.2,0.5,17.1v17.7H1468.2z"/>
	<path d="M1591.9,258.7h-16.1v15h18v4.5h-23.4v-41.6h22.4v4.5h-17.1v13.1h16.1L1591.9,258.7L1591.9,258.7z"/>
	<path d="M1621.4,241.2h-12.6v-4.5h30.7v4.5h-12.7v37h-5.4V241.2z"/>
	<path d="M1711.2,236.6v41.6h-5.3v-41.6H1711.2z"/>
	<path d="M1767.4,260c-0.3-5.8-0.7-12.8-0.6-17.9h-0.2c-1.5,4.9-3.2,10.1-5.2,15.8L1754,278h-4.1l-6.7-19.8
		c-1.9-5.9-3.6-11.2-4.8-16.1h-0.1c-0.1,5.2-0.5,12.1-0.8,18.4l-1.1,17.8h-5.1l2.9-41.6h6.8l7.1,20.1c1.7,5.1,3.2,9.6,4.2,13.9h0.2
		c1-4.2,2.5-8.7,4.4-13.9l7.4-20.1h6.8l2.6,41.6h-5.2L1767.4,260z"/>
	<path d="M1828.8,260c-0.3-5.8-0.7-12.8-0.6-17.9h-0.2c-1.5,4.9-3.2,10.1-5.2,15.8l-7.4,20.2h-4.1l-6.7-19.8
		c-1.9-5.9-3.6-11.2-4.8-16.1h-0.1c-0.1,5.2-0.5,12.1-0.8,18.4l-1.1,17.8h-5.1l2.9-41.6h6.8l7.1,20.1c1.7,5.1,3.2,9.6,4.2,13.9h0.2
		c1-4.2,2.5-8.7,4.4-13.9l7.4-20.1h6.8l2.6,41.6h-5.2L1828.8,260z"/>
	<path d="M1890.6,257c0,14.3-8.7,21.9-19.3,21.9c-11,0-18.7-8.5-18.7-21.1c0-13.1,8.2-21.9,19.3-21.9
		C1883.4,235.9,1890.6,244.6,1890.6,257z M1858.4,257.7c0,8.8,4.8,16.8,13.3,16.8s13.3-7.8,13.3-17.2c0-8.3-4.3-16.9-13.3-16.9
		C1862.8,240.3,1858.4,248.5,1858.4,257.7z"/>
	<path d="M1909.4,237.2c2.4-0.5,6-0.9,9.7-0.9c5.3,0,8.8,0.9,11.4,3.1c2.2,1.6,3.4,4.1,3.4,7.4c0,4-2.6,7.5-7,9.1v0.1
		c4,1,8.6,4.3,8.6,10.4c0,3.6-1.5,6.2-3.5,8.3c-2.9,2.6-7.6,3.9-14.4,3.9c-3.7,0-6.6-0.2-8.3-0.5V237.2z M1914.8,254.2h4.9
		c5.7,0,9-2.9,9-6.9c0-4.9-3.7-6.8-9.1-6.8c-2.5,0-3.9,0.2-4.8,0.3L1914.8,254.2L1914.8,254.2z M1914.8,274.1c1,0.2,2.6,0.2,4.5,0.2
		c5.6,0,10.7-2,10.7-8c0-5.7-4.9-8-10.8-8h-4.4V274.1z"/>
	<path d="M1960,236.6v41.6h-5.3v-41.6H1960z"/>
	<path d="M1981.2,236.6h5.3v37.1h17.8v4.5h-23.1L1981.2,236.6L1981.2,236.6z"/>
	<path d="M2027.5,236.6v41.6h-5.3v-41.6H2027.5z"/>
	<path d="M2070.2,258.7h-16.1v15h18v4.5h-23.4v-41.6h22.4v4.5h-17.1v13.1h16.1L2070.2,258.7L2070.2,258.7z"/>
	<path d="M2090.9,237.2c2.7-0.6,6.6-0.9,10.3-0.9c5.8,0,9.4,1,12,3.4c2,1.8,3.3,4.6,3.3,7.9c0,5.4-3.4,9.1-7.8,10.7v0.2
		c3.2,1.1,5.1,4.1,6.1,8.4c1.4,5.8,2.4,9.7,3.2,11.4h-5.6c-0.7-1.1-1.6-4.8-2.7-10c-1.2-5.8-3.4-7.9-8.3-8h-5.1v17.9h-5.3v-41
		H2090.9z M2096.2,256.1h5.4c5.8,0,9.4-3.2,9.4-7.9c0-5.3-3.9-7.7-9.5-7.8c-2.6,0-4.4,0.2-5.3,0.5V256.1L2096.2,256.1z"/>
</g>
<path d="M1563.1,175.4h-27.4v25.5h30.7v7.7h-39.9v-70.8h38.4v7.7h-29.1v22.4h27.4v7.5H1563.1z M1561.4,121.7l-13.5,12.2h-7.5
	l9.7-12.2H1561.4z"/>
</svg>
