<?xml version="1.0" encoding="utf-8"?>
<!-- Generator: Adobe Illustrator 25.4.1, SVG Export Plug-In . SVG Version: 6.00 Build 0)  -->
<svg version="1.1" id="Layer_1" xmlns="http://www.w3.org/2000/svg" xmlns:xlink="http://www.w3.org/1999/xlink" x="0px" y="0px"
	 viewBox="0 0 243.9 95.8" style="enable-background:new 0 0 243.9 95.8;" xml:space="preserve">
<g>
	<path d="M231,26.3c-63.5,16.5-118.7-39-212.9,15.8C111.3-0.1,167.5,42.8,231,26.3"/>
	<path d="M184.7,26.5C174.3,24.4,70.5,0.8,70.5,0.8S51,22.6,48.3,24.5L72.8,6.8L184.7,26.5z"/>
	<path d="M188.4,31.7c-48.2,9.5-71.9,34.8-102.7,34.8S45.1,42.7,45.1,32.7l0.6,0.3c1,10.2,10.8,27.5,40,27.5
		c30.5,0,55-19.2,101.9-29L188.4,31.7z"/>
	<path d="M172.8,30.2c-40.1,6.8-51.4,21.6-78,21.6c-27.3,0-34.1-16.3-34.1-23.2l0.5,0.4c1,7,8,18.6,33.6,18.6
		c26.3,0,38.4-11,77.3-17.6L172.8,30.2z"/>
	<path d="M154.5,28.2c-28.4,3.6-34.2,10.5-51.1,10.5c-20,0-25.9-8.9-26-13l0.5,0.3c0.7,3.7,6.7,10.5,25.5,10.5c19,0,23.3-5,50.4-8.5
		L154.5,28.2z"/>
	<polygon points="3,85.9 7.8,91.9 12.6,85.9 14,85.9 14,94.9 12.5,94.9 12.5,88.2 7.7,94 3.1,88.2 3.1,94.9 1.6,94.9 1.6,85.9 	"/>
	<path d="M27.2,90.1h-5.9v-3.2H27c1.2,0,1.4,0.2,1.4,1v1.3C28.5,89.9,28.2,90.1,27.2,90.1 M25.8,91.2h1.8c1.5,0,2.3-0.6,2.3-1.6
		v-2.2c0-0.9-0.6-1.6-2.3-1.6h-7.9v9h1.5v-3.7h2.5l4.5,3.7h2.1L25.8,91.2z"/>
	<path d="M37.3,85.9h7.2c1.1,0,1.5,0.2,1.5,1.1v1.8l-1.5,0.3V87h-7.2v6.8h7.2v-2.1L46,92v1.8c0,0.7-0.4,1.1-1.5,1.1h-7.2
		c-1,0-1.5-0.2-1.5-1.1v-6.9C35.8,86.1,36.2,85.9,37.3,85.9"/>
	<path d="M60.2,93.8V87h3.4c1.6,0,3.4,0.1,4.3,1.4c0.7,0.9,0.6,3.2,0,4.1c-0.8,1.2-2.5,1.3-4.1,1.3H60.2z M58.7,85.9v9h5.2
		c0.9,0,3.8,0.1,5.2-1.7c1-1.4,1.1-4,0.2-5.3C68,86,65.6,86,63.7,86L58.7,85.9L58.7,85.9z"/>
	<polygon points="84.8,85.9 84.8,87 76.9,87 76.9,89.7 81.6,89.7 81.6,90.8 76.9,90.8 76.9,93.8 84.9,93.8 84.9,94.9 75.4,94.9 
		75.4,85.9 	"/>
	<path d="M104.7,90.1h-5.9v-3.2h5.7c1.2,0,1.4,0.2,1.4,1v1.3C106,89.9,105.7,90.1,104.7,90.1 M103.4,91.2h1.8c1.5,0,2.3-0.6,2.3-1.6
		v-2.2c0-0.9-0.6-1.6-2.3-1.6h-7.9v9h1.5v-3.7h2.5l4.5,3.7h2.1L103.4,91.2z"/>
	<path d="M114.8,87h8.1v6.8h-8.1V87z M113.3,87v6.8c0,0.9,0.5,1.1,1.5,1.1h8.1c1.1,0,1.5-0.4,1.5-1.1V87c0-0.9-0.4-1.1-1.5-1.1h-8.1
		C113.8,85.9,113.3,86.1,113.3,87"/>
	<path d="M139.1,94.9h-7.3c-1,0-1.5-0.2-1.5-1.1v-7.9h1.5v7.9h7.2v-7.9h1.5v7.9C140.6,94.5,140.1,94.9,139.1,94.9"/>
	<path d="M154.9,94.9h-7.3c-1,0-1.5-0.2-1.5-1.1v-1.1l1.5-0.2v1.3h7.3v-3.1h-7c-1.1,0-1.5-0.2-1.5-1.1v-2.7c0-0.9,0.4-1.1,1.5-1.1
		h6.8c1.1,0,1.5,0.2,1.5,1.1v0.9l-1.5,0.2v-1h-6.8v2.7h7c1.1,0,1.5,0.2,1.5,1.1v3C156.4,94.5,156,94.9,154.9,94.9"/>
	<path d="M170.8,94.9h-7.3c-1,0-1.5-0.2-1.5-1.1v-1.1l1.5-0.2v1.3h7.3v-3.1h-7c-1.1,0-1.5-0.2-1.5-1.1v-2.7c0-0.9,0.4-1.1,1.5-1.1
		h6.8c1.1,0,1.5,0.2,1.5,1.1v0.9l-1.5,0.2v-1h-6.8v2.7h7c1.1,0,1.5,0.2,1.5,1.1v3C172.3,94.5,171.8,94.9,170.8,94.9"/>
	<rect x="178.1" y="85.9" width="1.5" height="9"/>
	<polygon points="187,85.9 187,93.8 194.5,93.8 194.5,94.9 185.5,94.9 185.5,85.9 	"/>
	<polygon points="201.3,85.9 201.3,93.8 208.8,93.8 208.8,94.9 199.8,94.9 199.8,85.9 	"/>
	<path d="M215.6,87h8.1v6.8h-8.1V87z M214.1,87v6.8c0,0.9,0.5,1.1,1.5,1.1h8.1c1.1,0,1.5-0.4,1.5-1.1V87c0-0.9-0.4-1.1-1.5-1.1h-8.1
		C214.5,85.9,214.1,86.1,214.1,87"/>
	<polygon points="232.3,85.9 240.8,93.1 240.8,85.9 242.3,85.9 242.3,94.9 240.8,94.9 232.6,87.9 232.6,94.9 231.1,94.9 231.1,85.9 
			"/>
</g>
</svg>
