<?xml version="1.0" encoding="utf-8"?>
<!-- Generator: Adobe Illustrator 24.0.0, SVG Export Plug-In . SVG Version: 6.00 Build 0)  -->
<svg version="1.1" id="Layer_1" xmlns="http://www.w3.org/2000/svg" xmlns:xlink="http://www.w3.org/1999/xlink" x="0px" y="0px"
	 viewBox="0 0 1008 432" style="enable-background:new 0 0 1008 432;" xml:space="preserve">
<style type="text/css">
	.st0{fill:#004882;}
	.st1{fill:#EE2A7B;}
</style>
<g>
	<path class="st0" d="M448.3,236c2.8,0.8,5.6,1.7,8.4,2.5c0,0.5,0.1,0.9,0.1,1.2c-1.9,7.2-5,13.8-10.5,19.1
		c-5.6,5.5-12.2,7.3-19.8,5.7c-4.1-0.9-7-3.3-8.5-7.3c-1.1-2.8-1.6-5.7-1.6-8.7c0-4.7,0.1-9.4,0.6-14.1c1-10.7,2.3-21.5,3.4-32.2
		c0.2-2.3,0.1-4.6-0.3-6.9c-0.5-3.1-3.1-4.6-6.1-3.4c-1.3,0.5-2.5,1.4-3.6,2.3c-2.5,2.3-4.2,5.2-5.8,8.2c-4.4,8.4-7.1,17.4-9.2,26.7
		c-2.3,10.3-3.1,20.7-2.1,31.2c0.1,0.8,0,1.6,0,2.4c-1.8,0.5-18.1,0.6-21.3,0.1c-0.1-1.6-0.4-3.2-0.4-4.9c-0.3-9.5,0.3-19,1.2-28.5
		c0.9-9.8,1.8-19.6,2.6-29.4c0.1-1.7,0-3.5-0.4-5.2c-0.6-2.7-3.1-4.1-5.7-3c-1.6,0.6-3.1,1.7-4.3,2.9c-2.6,2.6-4.4,5.7-6,8.9
		c-4.3,8.5-7.1,17.4-9.2,26.7c-2.3,10.1-3,20.4-2.1,30.7c0,0.4,0,0.8,0,1.2c0,0.2-0.1,0.3-0.2,0.6c-6.8,0-13.8,0-20.9,0
		c-0.2-2-0.6-4.1-0.5-6.1c0.2-5.9,0.5-11.8,1.1-17.7c1.5-13.5,3.2-27,4.8-40.5c0.2-1.6,0.1-3.2-0.2-4.8c-0.4-2.2-2.3-2.9-3.9-1.5
		c-1.4,1.2-2.5,2.7-3.3,4.3c-1.1,2-1.7,4.3-2.5,6.5c-0.2,0.6-0.4,1.2-0.7,2c-2.9-0.9-5.7-1.7-8.7-2.6c1.9-8.4,4.4-16.2,10.9-22.1
		c4.5-4.1,9.8-5.1,15.6-3.9c5.5,1.1,8.2,4.9,9.3,10.1c0.9,4.2,0.4,8.4-0.2,12.6c-0.1,0.5-0.1,0.9,0.2,1.5c0.4-0.8,0.8-1.5,1.1-2.3
		c2.4-5.6,5.5-10.7,9.8-14.9c5.7-5.6,12.5-8.1,20.5-7.4c5.3,0.5,9.1,3.1,11.5,7.9c1.4,2.9,2.1,5.9,2.2,9c0.1,2.5,0,4.9,0.3,7.6
		c0.3-0.6,0.6-1.1,0.9-1.7c2.1-5,4.7-9.8,8.3-14c3.7-4.3,8.1-7.5,13.8-8.5c3.2-0.6,6.4-0.7,9.5,0c6.2,1.2,10.4,5,12.8,10.8
		c1.5,3.7,2.1,7.5,2.4,11.5c0.4,6.2-0.4,12.3-1.1,18.4c-1,8.3-2,16.7-2.9,25c-0.2,1.6-0.1,3.2,0.2,4.8c0.4,2.4,2.6,3.3,4.4,1.6
		c1.4-1.3,2.5-2.9,3.3-4.6C446.5,241.5,447.2,238.9,448.3,236z"/>
	<path class="st0" d="M212.4,195.4c-0.9,0.6-1.5,1-2.1,1.3c-4,2.4-8,2.4-11.7-0.2c-3.7-2.5-4.6-6.4-4-10.6c0.9-5.4,5-9.1,10.5-9.6
		c7.1-0.7,12.8,1.9,17.1,7.6c3.8,4.9,5.6,10.6,6.1,16.7c1.8,20.1-4.6,37.5-17.9,52.4c-5,5.6-11.2,9.5-18.6,11.3
		c-4.2,1-8.4,1.2-12.6,0.5c-7-1.2-11.7-5.2-14.1-11.9c-2.1-5.8-2.5-11.9-2.1-18c0.8-11.1,1.7-22.2,2.5-33.2c0.1-1.8,0.2-3.7,0.1-5.5
		c0-0.8-0.1-1.6-0.3-2.4c-0.7-1.9-2.5-2.6-4-1.4c-1.2,0.9-2.4,2.2-3.1,3.6c-1.1,2.2-1.9,4.6-2.8,6.9c-0.3,0.7-0.5,1.5-0.8,2.5
		c-2.9-0.9-5.7-1.7-8.7-2.6c0.2-0.9,0.3-1.6,0.5-2.3c1.8-6.2,4.5-12,9-16.8c3.1-3.2,6.5-5.9,11-6.9c3.1-0.7,6.2-0.7,9.3-0.1
		c6.1,1.3,10.2,5.9,10.9,13c0.4,4.5,0.6,9.1,0.3,13.6c-0.7,10.8-1.7,21.5-2.5,32.3c-0.2,3.1-0.2,6.2-0.1,9.3
		c0.1,1.6,0.5,3.2,1.1,4.6c1,2.3,3,3.2,5.5,3c3.5-0.4,6.6-2,9.3-4.1c4.1-3.3,7.2-7.4,9.7-12.1c4.7-8.8,6.9-18.2,6.7-28.1
		c0-3.5-0.9-6.8-2.4-9.9C213.7,197.2,213,196.4,212.4,195.4z"/>
	<path class="st0" d="M271,263c-7.2,0-14.2,0-21.4,0c-0.1-1.2-0.4-2.4-0.4-3.5c0.2-5.8,0.1-11.7,0.8-17.5
		c1.4-13.6,3.2-27.1,4.8-40.7c0.2-2.1,0.2-4.2,0.2-6.2c0-1.3-0.3-2.6-1.7-3.1c-1.4-0.5-2.6,0.3-3.3,1.3c-1.1,1.4-2.1,2.8-2.8,4.4
		c-1,2.3-1.8,4.8-2.8,7.4c-2.9-0.5-5.7-1.6-8.7-2.5c0.4-1.6,0.7-3,1.1-4.4c1.1-4,2.3-7.9,4.6-11.3c1.5-2.2,3.2-4.4,5.1-6.3
		c4.6-4.5,10.2-5.3,16.3-3.9c3.3,0.7,5.6,2.7,7.1,5.6c1.1,2.1,1.9,4.3,1.8,6.6c-0.1,4.5-0.4,8.9-0.7,13.4c-0.1,0.9-0.2,1.7,0.1,2.7
		c0.3-0.6,0.6-1.2,0.8-1.8c2-5.3,4.3-10.5,7.5-15.2c2.2-3.2,4.6-6.2,7.7-8.4c4.9-3.4,10.3-4.4,16-2.8c7.5,2.2,11,10.6,7.5,17.6
		c-2.3,4.6-7.3,7-12.2,5.8c-3.6-0.9-5.9-3.1-6.5-6.8c-0.1-0.4-0.2-0.8-0.3-1.2c0-0.1-0.2-0.2-0.4-0.5c-1.9,0-3.3,1.1-4.6,2.5
		c-2.3,2.5-3.9,5.4-5.4,8.5c-2.5,5.4-4.4,11.1-6,16.9c-2.9,11.1-4.7,22.4-4.5,33.9c0,2.3,0.2,4.6,0.3,6.9
		C271.1,261.3,271,262.1,271,263z"/>
	<path class="st1" d="M809,185.5c-1.2,0-2.3,0-3.6,0c-0.7-3.8,0.1-7.6,0.2-11.4c0.2-3.8,0.6-7.6,1-11.5c-0.7-0.2-1.3-0.4-2.1-0.6
		c0-0.5,0.1-1.1,0.1-1.7c2.2-0.4,4.2-0.8,6.5-1.3c-0.5,4.4-1,8.5-1.5,12.5c0.2,0,0.3,0.1,0.5,0.1c0.4-0.5,0.8-1.1,1.3-1.6
		c0.9-0.8,1.8-1.6,2.9-2.1c2.3-0.9,4.4,0.2,5,2.6c0.3,1.5,0.3,3.2,0.2,4.7c-0.1,1.7-0.5,3.3-0.6,5c-0.1,0.9-0.4,1.9,0.9,2.8
		c0.7-0.8,1.5-1.7,2.4-2.7c0.4,2-0.4,3.7-2.1,4.8c-1.3,0.9-2.7,1.1-4.1,0.2c-1.1-0.6-1.3-1.8-1.2-3c0.2-2.5,0.4-4.9,0.6-7.4
		c0.1-1,0.3-1.9,0.2-2.9c-0.1-0.5-0.5-1.3-0.9-1.5c-0.5-0.2-1.3,0.2-1.7,0.6c-0.7,0.8-1.2,1.7-1.7,2.6c-1.4,2.9-2.1,6-2.2,9.3
		C809.1,184,809,184.7,809,185.5z"/>
	<path class="st1" d="M879.5,162.6c-1.2-0.4-2.7-0.5-1.8-2.3c1.9-0.4,3.9-0.8,6.3-1.4c-0.5,4.4-1,8.5-1.5,12.6
		c0.1,0.1,0.2,0.1,0.4,0.2c0.4-0.4,0.7-0.9,1.2-1.3c0.9-0.8,1.7-1.7,2.7-2.2c2.4-1.1,4.8,0,5.4,2.6c0.3,1.4,0.3,3,0.2,4.5
		c-0.1,1.7-0.5,3.3-0.6,5c-0.1,0.9,0.1,1.8,0.2,2.6c2,0.4,1.6-2,3.3-2.1c0.1,0.4,0.3,0.9,0.2,1.2c-0.5,1.5-1.3,2.7-2.7,3.5
		c-2.4,1.4-4.9,0.2-5-2.6c-0.1-2.5,0.4-4.9,0.6-7.4c0.1-1,0.3-2.1,0.2-3.1c0-0.6-0.4-1.5-0.8-1.5c-0.6-0.1-1.4,0.2-1.9,0.6
		c-0.6,0.6-1.1,1.4-1.4,2.2c-1.4,3-2.2,6.2-2.3,9.5c0,0.7-0.1,1.4-0.1,2.2c-0.5,0.1-0.8,0.3-1.2,0.3c-2.6,0.1-2.8,0-2.7-2.6
		c0.3-5.7,0.8-11.5,1.2-17.2C879.3,164.8,879.4,163.8,879.5,162.6z"/>
	<path class="st1" d="M718.6,182.9c1.7,0.2,1.2-2.6,3.2-2.1c0.1,1.8-0.8,3.2-2.1,4.3c-2,1.7-4.3,0.8-4.7-1.8c-0.1-0.5-0.2-1-0.4-2
		c-0.8,1.1-1.3,1.8-1.9,2.5c-1.1,1.4-2.6,2.2-4.4,2c-2.1-0.2-3.7-1.7-4.2-4c-0.5-2.9-0.4-5.8,0.7-8.5c1.4-3.6,4-5.4,7.8-5.7
		c0.6,0,1.3-0.1,1.9-0.1c0.1,0,0.1-0.1,0.6-0.3c0.2-1.4,0.4-3,0.6-4.5c-0.8-0.9-2.9-0.5-1.9-2.5c1.9-0.4,3.9-0.8,6.3-1.3
		c-0.2,2.6-0.4,4.9-0.7,7.1c-0.5,4.8-1.1,9.5-1.6,14.3C718,181.3,717.8,182.3,718.6,182.9z M715.1,170.2c-3.1-0.8-4.5-0.3-5.6,2.2
		c-1.2,2.7-1.4,5.5-1.2,8.4c0,0.4,0.2,0.8,0.4,1.1c0.7,1.4,1.9,1.7,3.1,0.6c0.4-0.4,0.7-0.9,1-1.3
		C714.4,177.7,714.8,174,715.1,170.2z"/>
	<path class="st0" d="M494.4,171.7c-0.5,5-1,9.9-1.4,14.9c0,0.2,0.3,0.4,0.4,0.6c1.5-0.1,1.5-1.7,2.3-2.5c0.8-0.1,1.4-0.1,1.4,1
		c0,1.6-2,4.3-3.5,4.9c-2.2,0.8-3.8-0.2-4.2-2.5c-0.1-0.5-0.1-1.1-0.2-2c-0.6,0.7-0.8,1.1-1.2,1.4c-0.8,0.9-1.5,1.9-2.5,2.6
		c-2.6,1.7-5.5,0.7-6.8-2.1c-3.1-6.9,1.9-16.1,9.4-17C490.3,170.6,492.5,170.9,494.4,171.7z M489.6,173.6c-2.5-0.6-3.5-0.5-4.5,1.2
		c-2.2,3.5-2.3,7.4-1.8,11.3c0,0.1,0,0.2,0.1,0.2c0.5,1.1,1.4,1.3,2.3,0.6c0.4-0.3,0.7-0.7,0.9-1.1
		C488.7,182.1,489.3,177.9,489.6,173.6z"/>
	<path class="st1" d="M811.5,250.2c0.6-0.6,1.2-1.3,1.8-1.9c2.5-2.3,5.9-1.7,7,1.5c1.5,4.4,1,8.7-1.8,12.5c-1.2,1.7-3,2.5-5.1,2.8
		c-2.3,0.2-4.6,0-6.9-0.9c0-7.4,0.9-14.8,1-22.3c-0.9-0.6-2.8-0.4-1.7-2.4c1.9-0.4,3.9-0.8,6.3-1.3c-0.4,4.2-0.7,8.1-1,11.9
		C811.1,250.1,811.3,250.1,811.5,250.2z M816.9,254.9c-0.1,0-0.1,0-0.2-0.1c0-0.6,0-1.3,0-1.9c-0.1-2-0.7-3-1.7-3.1
		c-1.6-0.1-2.2,1.1-2.7,2.3c-1.4,3-1.8,6.2-2,9.5c-0.1,1.1,0.6,1.5,1.6,1.6c1.6,0.1,3-0.7,3.6-2.6
		C816.2,258.8,816.5,256.9,816.9,254.9z"/>
	<path class="st1" d="M864.2,264.6c-1.4,0-2.6,0-3.8,0c-0.5-5,1.4-9.7,0.9-14.6c-1.9-0.2-1.7,1.7-2.8,2.4c-0.2-0.2-0.7-0.4-0.8-0.6
		c-0.3-1.9,1.7-4.5,3.5-4.8c1.8-0.3,2.9,0.5,3.2,2.4c0.1,0.5,0.1,1.1,0.2,2.2c0.7-0.9,1.1-1.5,1.6-2.1c1-1.4,2.3-2.5,4.1-2.5
		c2.2-0.1,3.8,1,4,3.2c0.2,2.2-0.1,4.5-0.2,6.7c-0.1,1.3-0.3,2.5-0.3,3.8c0,0.5,0.3,1,0.4,1.3c1.9,0.4,1.3-2.8,3.3-2
		c-0.5,2.9-2,4.7-4.1,5c-2.3,0.4-3.7-0.6-3.6-2.9c0-2.9,0.4-5.7,0.6-8.6c0-0.6,0.3-1.3,0.1-1.9c-0.1-0.6-0.5-1.4-1-1.7
		c-0.3-0.2-1.3,0.2-1.6,0.6c-0.7,0.8-1.3,1.8-1.7,2.8c-1.2,2.9-2,5.9-2,9.1C864.3,263.1,864.2,263.8,864.2,264.6z"/>
	<path class="st1" d="M719.8,212.3c0.3-1.8,1.2-3.2,2.6-4.2c2.5-1.7,5.1-0.5,5.2,2.5c0,2.1-0.3,4.3-0.4,6.4
		c-0.1,1.4-0.3,2.9-0.2,4.3c0.1,1.3,1.2,1.8,2.2,0.8c0.6-0.6,1.1-1.4,1.5-2.2c1.5-3.1,2.3-6.3,2.4-9.7c0-0.7,0-1.4,0-2.4
		c1.3,0,2.5,0,3.8,0c0.6,2.9-0.3,5.6-0.5,8.4c-0.1,1.4-0.4,2.8-0.5,4.3c0,0.6,0.2,1.3,0.2,2c0.2,0.1,0.4,0.1,0.6,0.2
		c0.6-0.8,1.3-1.6,2.2-2.7c0.2,0.3,0.8,0.7,0.7,1c-0.2,1.6-0.9,2.9-2.2,3.9c-2.1,1.5-4.2,0.6-4.6-1.9c-0.1-0.6-0.2-1.2-0.4-2.2
		c-0.6,1-1,1.6-1.4,2.1c-0.6,0.7-1.1,1.4-1.8,1.9c-2.8,1.9-6.1,0.3-6.2-3.2c-0.1-2.8,0.4-5.6,0.6-8.3c0.1-1,0.5-2.1-0.5-2.9
		c-1-0.2-1.2,0.5-1.6,1.1C721.3,212.2,721.1,213,719.8,212.3z"/>
	<path class="st1" d="M769.3,250.1c-1.4,0.3-1.4,0.3-2.6,2.4c-0.3-0.3-0.9-0.6-0.9-0.8c0.2-1.8,2.3-4.8,4.7-4.7
		c1.9,0.1,2.9,0.8,3,2.7c0.1,1.7,0,3.4-0.2,5c-0.1,1.7-0.4,3.3-0.6,5c0,0.2-0.1,0.3,0,0.5c0.3,0.7,0.4,1.7,0.9,2
		c0.8,0.5,1.5-0.3,1.9-0.9c0.5-0.8,1-1.6,1.4-2.5c1.2-2.9,1.9-5.9,2-9.1c0-0.6,0.1-1.2,0.2-2c1.2,0,2.3,0,3.6,0
		c0,0.8,0.2,1.7,0.1,2.5c-0.3,3-0.8,6-1.1,9c-0.1,1,0,2,0.1,2.9c1.4,0.1,1.7-0.7,2-1.4c0.3-0.5,0.6-1.1,1.2-0.7
		c0.3,0.2,0.4,1,0.2,1.4c-0.6,2.1-2,3.5-3.7,3.7c-1.8,0.2-2.8-0.6-3-2.3c-0.1-0.6-0.1-1.2-0.5-2c-0.5,0.7-0.9,1.4-1.4,2.1
		c-0.9,1.3-2,2.2-3.7,2.3c-2.2,0.1-3.8-1-4-3.2c-0.2-2.2,0.1-4.5,0.2-6.7C769.4,253.5,769.9,251.8,769.3,250.1z"/>
	<path class="st1" d="M796.6,208.3c-0.3,4.8-1.7,9.4-1.3,14.1c2.1,0.4,1.8-1.7,3.1-2.2c1.2,0.8,0.5,1.8,0.1,2.6
		c-0.9,2-2.4,3-4.1,2.8c-2.6-0.3-2.1-2.5-2.6-4.5c-0.5,0.7-0.9,1.2-1.3,1.6c-0.7,0.8-1.3,1.7-2.2,2.2c-2.3,1.5-5,0.6-6.2-1.9
		c-3.3-7.4,2.8-16.1,10.7-15.5c0.9,0.1,1.7,0.2,2.6,0.3C795.8,207.9,796.1,208.1,796.6,208.3z M792.1,209.7
		c-2.5-0.6-3.9-0.1-4.9,2.2c-1.3,2.8-1.5,5.8-1.2,8.9c0.1,0.9,0.4,2,1.3,2c0.7,0,1.7-0.6,2.1-1.3
		C791.5,217.8,792.2,213.8,792.1,209.7z"/>
	<path class="st1" d="M834.7,260.8c-0.4,0.6-0.8,1.3-1.3,1.9c-0.7,0.7-1.4,1.6-2.3,2c-2.2,1.1-4.6,0.3-5.7-1.9
		c-2.8-5.6,1-14,7.1-15.5c2.4-0.6,4.7-0.4,7.2,0.5c-0.1,4.8-1.8,9.5-1.1,14.2c2.1,0.7,1.5-2.6,3.4-1.9c0.1,2.1-1.1,4.2-2.7,4.9
		c-2.1,0.9-3.8-0.1-4-2.5c0-0.5-0.1-0.9-0.1-1.4C835,260.9,834.8,260.8,834.7,260.8z M835.3,249.3c-2.4-0.8-3.9-0.3-4.9,1.9
		c-1.3,2.7-1.6,5.7-1.4,8.6c0.1,1,0.2,2.2,1.5,2.4c1.2,0.2,1.8-0.9,2.3-1.8c0-0.1,0.1-0.1,0.1-0.2
		C834.5,256.9,835.2,253.2,835.3,249.3z"/>
	<path class="st0" d="M474,183.5c0.6,0.3,1,0.6,1.5,0.9c-1.3,4.8-5.6,7.3-10.2,6c-2.3-0.6-3.8-2.1-4.4-4.3
		c-1.3-4.5-0.4-8.8,2.6-12.4c2.3-2.7,5.3-3.5,8.7-2.5c2.1,0.6,3.4,2.3,3.4,4.1c0,1.6-0.9,2.4-2.3,2.4c-1.4,0-2.1-0.8-2.1-2.4
		c0-0.5,0.1-0.9,0.2-1.4c-1.7-1.2-2.9-1.1-4,0.2c-0.5,0.5-0.8,1.2-1.1,1.9c-0.9,2.4-1.1,5-0.8,7.6c0.2,1.6,0.9,3.1,2.7,3.6
		c1.7,0.5,3.1-0.4,4.2-1.6C473,185.1,473.4,184.4,474,183.5z"/>
	<path class="st1" d="M824.8,211.2c-0.4,0.1-0.9,0.2-1.3,0.3c-1.3,0.1-2.1-0.5-2.2-1.7c-0.1-1.2,0.5-2,1.6-2.3
		c1.7-0.4,3.6,0.4,4.2,2.3c0.5,1.6,0.7,3.4,0.6,5.2c-0.1,3.1-1.5,5.9-3.6,8.2c-1.2,1.3-2.7,2.2-4.6,2.4c-3,0.3-4.8-1.1-4.9-4.1
		c-0.1-1.9,0.1-3.8,0.2-5.7c0.1-1.3,0.2-2.5,0.2-3.8c0-0.5-0.3-1-0.4-1.3c-2-0.5-1.3,2.7-3.3,2c0.2-2.7,1.9-4.7,4-5
		c2.2-0.3,3.6,0.7,3.7,2.9c0.1,1.7-0.1,3.5-0.2,5.3c-0.1,1.9-0.3,3.8-0.3,5.7c0,1.7,1,2.3,2.5,1.7
		C824.9,221.6,827,214.8,824.8,211.2z"/>
	<path class="st1" d="M729.2,177.9c0,0.8,0,1.3,0.1,1.9c0.2,1.4,0.7,2.7,2.1,3.2c1.6,0.5,3,0.1,4.2-1c0.5-0.4,0.8-1,1.3-1.4
		c0.3-0.2,0.9-0.2,1.2-0.1c0.2,0.1,0.2,0.7,0.1,1c-1,2.8-4.4,4.8-7.5,4.5c-3.6-0.4-5.6-2.5-5.9-6.1c-0.3-3.2,0.2-6.2,2.2-8.9
		c1.7-2.4,4.1-3.5,7-3.3c2.4,0.1,3.8,1.3,4.3,3.2c0.5,1.9-0.3,3.7-2.4,4.7c-1.7,0.8-3.6,1.2-5.4,1.8
		C730.1,177.6,729.8,177.7,729.2,177.9z M729.5,175.4c1.9,0.4,3.4-0.4,4.6-1.7c1.1-1.2,1-2.8,0-3.6c-1-0.7-2.4-0.3-3.3,0.9
		C729.8,172.3,729.3,173.7,729.5,175.4z"/>
	<path class="st1" d="M773.9,178.1c0,0.3-0.1,0.7-0.1,1.1c0.2,1.6,0.6,3.3,2.3,3.9c1.9,0.6,3.4-0.2,4.7-1.6c0.5-0.5,0.9-1.7,1.8-1
		c1,0.8,0,1.6-0.4,2.2c-1.9,3.1-5.6,4.2-9,2.9c-1.9-0.8-3.1-2.3-3.5-4.3c-0.7-3.8-0.2-7.3,2.1-10.5c1.8-2.3,4.2-3.3,7.2-3
		c2.2,0.2,3.5,1.4,3.9,3.3c0.4,1.8-0.3,3.6-2.3,4.5C778.6,176.6,776.3,177.2,773.9,178.1z M774.1,175.3c1.9,0.4,4-0.5,4.9-2
		c0.7-1.2,0.6-2.6-0.4-3.2c-0.9-0.6-2.3-0.3-3.2,0.8C774.4,172.1,773.9,173.6,774.1,175.3z"/>
	<path class="st1" d="M912.2,180.8c-1.7,4.2-4.7,5.9-8.7,5.1c-2.6-0.5-4.2-2.1-4.7-4.5c-0.7-3.6-0.3-7.2,2-10.3
		c1.8-2.5,4.3-3.5,7.3-3.3c2.2,0.2,3.5,1.3,3.9,3.2c0.4,1.9-0.3,3.6-2.2,4.6c-1.6,0.8-3.4,1.3-5.2,1.8c-1.9,0.6-2.1,0.8-1.6,2.7
		c0.8,3.2,3.6,4.2,6.2,2c0.5-0.4,0.9-0.9,1.3-1.4C911,180.1,911.5,180.1,912.2,180.8z M903.2,175.6c2-0.1,3.5-0.7,4.6-2.1
		c0.9-1.1,0.9-2.7,0-3.5c-0.9-0.7-2.4-0.4-3.3,0.8C903.4,172.2,902.9,173.7,903.2,175.6z"/>
	<path class="st1" d="M880.4,219.6c0.4,0.3,0.7,0.5,1.1,0.7c-0.1,0.3-0.1,0.5-0.2,0.7c-1.5,3.1-3.9,4.8-7.4,4.5
		c-3-0.2-5.2-1.8-5.8-4.8c-0.6-3.4-0.3-6.7,1.6-9.7c2-3,4.9-4.3,8.4-3.6c1.6,0.3,2.7,1.2,3.1,2.9c0.4,1.6,0,3.2-1.3,4.1
		c-1.4,0.9-3,1.5-4.5,2.1c-0.7,0.3-1.6,0.3-2.3,0.6c-0.4,0.2-1,0.7-1,1.1c0,1.5,0.3,3.1,1.7,4c1.4,0.9,2.8,0.6,4-0.2
		C878.8,221.4,879.5,220.5,880.4,219.6z M872.5,215.3c2-0.4,3.6-0.9,4.7-2.4c0.8-1.2,0.7-2.5-0.2-3.2c-0.9-0.7-2.2-0.5-3.2,0.6
		C872.8,211.6,872.2,213.2,872.5,215.3z"/>
	<path class="st1" d="M708.5,256.9c-0.1,0.5-0.2,0.8-0.2,1c0.1,1.8,0.5,3.6,2.4,4.3c1.9,0.6,3.4-0.2,4.7-1.7c0.6-0.7,1-1.9,2.2-0.8
		c-1.1,4.8-6.6,7.1-10.7,4.5c-1.4-0.9-2.2-2.1-2.5-3.6c-0.7-3.6-0.4-7,1.7-10.1c1.9-2.8,4.6-3.9,7.9-3.5c1.9,0.2,3.1,1.3,3.5,2.8
		c0.5,1.9,0,3.6-1.7,4.6c-1.3,0.8-2.9,1.3-4.4,1.8C710.5,256.6,709.5,256.7,708.5,256.9z M708.6,254.6c1.9,0.2,3.3-0.5,4.5-1.7
		c1.1-1.1,1.1-2.9,0.2-3.6c-1-0.8-2.5-0.5-3.5,0.9C708.9,251.4,708.5,252.9,708.6,254.6z"/>
	<path class="st1" d="M830.1,177.8c-0.5,1.6,0,2.8,0.6,3.9c0.8,1.5,2.6,2,4.4,1.1c0.9-0.5,1.6-1.2,2.3-2c0.6-0.6,1.1-0.9,1.8-0.1
		c-1.3,5.2-6.7,6.3-10.2,4.7c-1.7-0.8-2.8-2.3-3.1-4c-0.7-3.5-0.3-6.9,1.7-9.9c1.9-2.8,4.5-4,7.8-3.6c2.1,0.3,3.3,1.4,3.7,3.2
		c0.4,1.8-0.3,3.4-2.1,4.4c-1.2,0.7-2.5,1.1-3.8,1.5C832.2,177.4,831.2,177.5,830.1,177.8z M830.2,175.7c2-0.3,3.6-0.8,4.7-2.4
		c0.8-1.1,0.6-2.6-0.2-3.2c-0.9-0.7-2.3-0.4-3.2,0.7C830.5,172.1,829.9,173.6,830.2,175.7z"/>
	<path class="st1" d="M709.9,225.9c-1.5-0.4-2.9-0.7-4.2-1.3c-0.8-0.4-1.5-1.3-1.8-2.1c-0.6-1.2,0.1-2.6,1.3-2.9
		c1.3-0.3,2.2,0.3,2.4,1.9c0.1,0.8,0.1,1.7,1.1,1.9c0.9,0.2,1.9,0.3,2.8,0c1.6-0.5,1.9-2.3,0.7-3.5c-0.7-0.7-1.5-1.1-2.3-1.7
		c-1.3-0.9-2.6-1.6-3.8-2.6c-2.2-1.9-2.1-5,0.2-6.8c2.1-1.7,6.4-1.9,8.6-0.3c0.7,0.5,1.2,1.3,1.5,2c0.4,1.3-0.4,2.4-1.5,2.5
		c-1.1,0.1-1.8-0.4-2.1-1.8c-0.4-2-1.7-2.6-3.4-1.6c-1.4,0.8-1.6,2.1-0.5,3.2c0.7,0.7,1.6,1.1,2.3,1.6c1.2,0.8,2.5,1.5,3.6,2.4
		c2.7,2.3,2.4,5.9-0.7,7.6C712.9,225.1,711.4,225.4,709.9,225.9z"/>
	<path class="st1" d="M863,198.9c-0.7,7.7-1.3,15.3-2,22.9c0,0.2,0.2,0.4,0.3,0.6c1.8,0.3,1.5-1.6,2.6-2.3c0.2,0.3,0.8,0.6,0.7,0.9
		c-0.3,2.1-2.1,4.5-4.5,4.6c-1.9,0-3.1-0.8-3.2-2.7c-0.1-1.5-0.1-3,0.1-4.5c0.5-5,1.1-10,1.7-15c0-0.3,0-0.6,0-1.1
		c-0.7-0.3-1.4-0.6-2.4-1c0.3-0.5,0.5-1.3,0.9-1.4c1.7-0.5,3.5-0.9,5.3-1.2C862.6,198.6,862.8,198.8,863,198.9z"/>
	<path class="st1" d="M852.3,220.1c0.3,0.3,0.8,0.6,0.8,0.8c-0.3,2-2.1,4.7-4.7,4.6c-1.8,0-2.9-0.9-3-2.7c-0.1-1.9,0-3.8,0.1-5.7
		c0.5-4.7,1-9.3,1.6-14c0-0.2,0-0.5,0-0.8c-0.7-0.3-1.4-0.6-2-0.9c-0.3-0.9-0.2-1.5,0.8-1.7c1.7-0.4,3.4-0.7,5.4-1.2
		c0,1,0.1,1.9,0,2.8c-0.4,3.4-0.8,6.8-1.1,10.2c-0.3,2.9-0.6,5.7-0.8,8.6c-0.1,0.7,0.1,1.5,0.1,2.3
		C851.5,222.7,851.2,220.8,852.3,220.1z"/>
	<path class="st1" d="M749,241.6c-1.3-0.2-2.6-0.2-1.9-2.1c1.9-0.4,3.9-0.9,6.1-1.3c0,1.3,0.1,2.3,0,3.3c-0.6,6-1.3,12-1.9,18.1
		c-0.1,0.9,0.1,1.8,0.2,2.6c2,0.3,1.5-2.5,3.3-2.1c0,2.9-1.9,5.1-4.4,5.2c-2,0.1-3-0.8-3-2.8c0-2.4,0.1-4.8,0.3-7.2
		c0.4-4,0.9-8.1,1.3-12.1C749,242.6,749,242.2,749,241.6z"/>
	<path class="st1" d="M775.7,222.7c0.6-0.8,1.3-1.6,2.1-2.6c0.3,0.2,0.8,0.5,0.8,0.8c0,1.8-2,4.2-3.7,4.6c-2.5,0.5-4-0.7-4-2.8
		c0.1-2.6,0.1-5.1,0.3-7.7c0.3-3.4,0.8-6.8,1.2-10.2c0.1-0.8,0.1-1.6,0.1-2.5c-0.5-0.2-1-0.4-1.5-0.6c-0.8-0.5-0.8-1.6,0.1-1.8
		c1.8-0.5,3.7-0.8,5.7-1.3c0,1.1,0.1,1.9,0,2.8c-0.7,6.3-1.4,12.5-2,18.8c-0.1,0.8,0.2,1.6,0.3,2.4
		C775.3,222.6,775.5,222.7,775.7,222.7z"/>
	<path class="st1" d="M799.5,179.7c0.5,0.3,0.8,0.5,1.1,0.7c-1.4,4.4-4.9,6.4-9,5.4c-2.2-0.5-3.6-1.8-4.2-3.8
		c-1.3-4.5-0.4-8.6,2.8-12c2.1-2.3,5.5-2.8,8.2-1.5c1.5,0.7,2.5,2.1,2.4,3.6c-0.1,1.1-0.9,2-2,2.1c-1.1,0-1.8-0.7-1.9-2
		c-0.1-0.8,0.4-1.8-0.8-2.2c-1.1-0.3-2.3,0-3.1,1.1c-0.4,0.6-0.9,1.2-1,1.9c-0.3,2.2-0.6,4.4-0.6,6.6c0,1.5,0.8,3,2.4,3.5
		c1.7,0.5,3.1-0.2,4.3-1.5C798.5,181,798.9,180.4,799.5,179.7z"/>
	<path class="st1" d="M872.5,179.7c0.5,0.3,0.8,0.5,1.1,0.6c-1.1,4.8-5.8,6.8-9.8,5.2c-1.9-0.7-3-2.1-3.5-4c-1-4-0.2-7.6,2.2-10.9
		c2.1-2.8,5.6-3.7,8.6-2.4c1.4,0.6,2.4,1.6,2.6,3.1c0.2,1.4-0.6,2.5-1.8,2.6c-1.2,0.1-1.9-0.7-2-2.1c0-0.8,0.3-1.7-0.8-2
		c-1.1-0.3-2.1-0.2-2.8,0.7c-0.6,0.7-1.2,1.6-1.4,2.5c-0.4,2-0.6,4.1-0.6,6.2c0,1.7,0.7,3.2,2.4,3.8c1.8,0.6,3.3-0.2,4.4-1.6
		C871.6,180.9,871.9,180.4,872.5,179.7z"/>
	<path class="st1" d="M723.9,250.1c-0.9-1-2.5-0.4-2.4-1.8c0.1-1.2,1.3-1,2-1.3c1.7-0.7,2.6-2.1,3.2-3.7c0.4-1.1,0.9-1.4,2-0.8
		c-0.1,1.5-0.2,3-0.3,4.8c1.4,0.1,2.6,0.3,3.8,0.4c0.4,1.1,0.1,1.6-0.9,1.7c-1,0.1-2,0.2-3.3,0.3c-0.3,3.4-0.7,6.6-0.9,9.9
		c-0.1,1.1,0.2,2.1,1.3,2.6c1,0.5,1.8-0.1,2.7-0.6c0.7-0.4,1.3-1.7,2.3-0.5c-1.2,3.2-4.6,5-7.7,4c-1.6-0.5-2.3-1.7-2.3-3.3
		c0-2.9,0.2-5.9,0.3-8.8C723.7,251.8,723.8,250.9,723.9,250.1z"/>
	<path class="st1" d="M845.4,170.7c-0.7,0.8-1.3,1.6-2.1,2.6c-0.3-0.3-0.8-0.7-0.8-1c0.3-1.6,1-3.1,2.4-4c2.1-1.4,4.3-0.3,4.4,2.2
		c0,0.7,0,1.4,0,2.3c1.1-0.3,1.2-1.2,1.6-1.8c0.8-1.2,1.6-2.4,3-3c1.3-0.5,2.8-0.2,3.5,0.8c0.7,0.9,0.5,2.3-0.3,3.1
		c-0.8,0.7-1.8,0.6-2.7-0.3c-0.3-0.3-0.4-0.7-0.5-1c-3,2-3.5,3.8-4.7,14.8c-1.1,0.1-2.2,0.1-3.7,0.2c-0.1-1-0.3-1.9-0.2-2.7
		c0.2-2.6,0.5-5.2,0.8-7.9c0.2-1.4,0.4-2.8,0-4.2C845.9,170.9,845.7,170.8,845.4,170.7z"/>
	<path class="st1" d="M758.7,185.5c-1.5,0-2.6,0-3.9,0c0-1.4-0.1-2.6,0-3.8c0.3-2.9,0.7-5.7,1-8.6c0.1-0.7-0.1-1.5-0.2-2.2
		c-1.9-0.1-1.7,1.8-2.9,2.4c-0.2-0.3-0.7-0.7-0.6-1c0.2-1.7,1-3.2,2.6-4.1c2-1.1,3.9-0.2,4.1,2.1c0.1,0.8,0,1.6,0.4,2.5
		c0.3-0.4,0.6-0.8,0.9-1.1c0.8-1,1.4-2.2,2.3-3c1.1-1.1,2.6-1.2,3.8-0.5c0.8,0.5,1.4,1.2,1.1,2.2c-0.2,0.7-0.6,1.5-1.2,1.9
		c-0.8,0.5-1.7,0.2-2.3-0.7c-0.2-0.2-0.4-0.4-0.7-0.7c-1.4,0.5-1.8,1.6-2.3,2.7c-1.3,3-1.9,6.2-2.1,9.5
		C758.7,183.8,758.7,184.5,758.7,185.5z"/>
	<path class="st1" d="M795.4,252.1c0.6-1.1,1.2-2.2,1.9-3.2c0.9-1.3,2.2-2.1,3.9-1.9c1.4,0.2,2.1,1,2.1,2.4c0,0.9-0.3,1.6-1.1,1.9
		c-0.8,0.3-1.6,0.3-2.2-0.4c-0.3-0.3-0.5-0.6-0.8-0.9c-1.4,0.2-1.8,1.3-2.2,2.3c-1.5,3.2-2.1,6.7-2.3,10.2c0,0.6-0.1,1.3-0.1,2
		c-0.5,0.1-0.9,0.3-1.4,0.4c-2.4,0.1-2.8-0.2-2.6-2.7c0.3-3.1,0.8-6.2,1.1-9.3c0.1-0.9,0-1.8,0-2.8c-1.5,0.4-1.5,0.4-2.8,2.4
		c-0.3-0.3-0.7-0.5-0.8-0.7c-0.2-1.7,1.5-4.2,3.2-4.6c1.9-0.5,3.3,0.4,3.6,2.4c0.1,0.8,0,1.7,0,2.5C795.2,252,795.3,252,795.4,252.1
		z"/>
	<path class="st1" d="M753.3,210.4c-1.4,0.4-1.8,1.6-2.3,2.7c-1.3,3-2,6.1-2,9.3c0,0.9,0,1.7,0,2.7c-1.4,0-2.5,0-3.8,0
		c-0.7-2-0.2-3.9,0-5.9c0.1-1.7,0.5-3.5,0.7-5.2c0.1-1.1,0.4-2.3-0.2-3.4c-1.9-0.6-1.4,2.7-3.5,1.8c0.1-1.7,0.8-3.1,2-4.2
		c1-0.9,2.2-1,3.4-0.6c1.3,0.4,1.5,1.5,1.5,2.7c0,0.6,0.1,1.2,0.2,2.4c0.9-1.4,1.5-2.4,2.1-3.4c1-1.5,2.5-2.3,4.3-1.8
		c1.6,0.4,2.3,2.3,1.4,3.6c-0.7,0.9-1.8,1.1-2.7,0.4C754,211.2,753.6,210.8,753.3,210.4z"/>
	<path class="st1" d="M845.1,252.7c-0.4-0.6-0.7-0.9-0.7-1.1c0.1-1.9,2.3-4.4,4.3-4.6c2-0.3,3.3,0.7,3.5,2.7c0.1,1.3,0,2.7-0.1,4.1
		c-0.2,2.2-0.5,4.4-0.7,6.7c-0.1,0.6,0.2,1.1,0.3,1.6c2,0.4,1.4-2.7,3.4-2c-0.3,2.9-2.1,5-4.4,5.1c-2.1,0.1-3.3-0.7-3.2-2.8
		c0.1-2.8,0.4-5.6,0.7-8.3c0.1-1,0.2-1.9,0.2-2.9c0-0.3-0.3-0.9-0.5-0.9c-0.4,0-0.9,0.2-1.2,0.5C846,251.1,845.7,251.8,845.1,252.7z
		"/>
	<path class="st1" d="M833.7,210.2c-0.6,0.8-1.3,1.6-2.1,2.6c-0.3-0.4-0.7-0.7-0.7-1c0.2-2.3,2.7-4.5,4.9-4.4c1.5,0,2.3,0.5,2.6,2
		c0.3,1.2,0.3,2.5,0.2,3.8c-0.2,2.4-0.5,4.7-0.8,7.1c-0.1,0.7,0,1.4,0,2.1c1.6-0.2,1.6-0.2,2.8-2.4c0.4,0.4,1,0.7,1,1
		c-0.1,2.3-2.8,4.7-5,4.6c-1.6-0.1-2.6-0.8-2.7-2.4c-0.1-2,0.1-4,0.2-5.9c0.1-1.5,0.5-3,0.6-4.5C834.7,211.9,835,210.9,833.7,210.2z
		"/>
	<path class="st1" d="M762,243c-0.8-0.3-1-0.4-1.3-0.5c-1.2-0.2-1.8-0.8-1.8-2.1c0.1-1.2,0.6-1.9,1.7-2.3c1.1-0.3,2.4,0.1,2.8,1.1
		c0.3,0.8,0.5,1.9,0.4,2.8c-0.2,2.5-1.4,4.5-2.9,6.4c-0.1,0.2-0.5,0.2-1.2,0.4C760.6,246.7,761.3,245,762,243z"/>
	<path class="st0" d="M456.8,188c-0.1,1.7-1.3,3-2.9,2.9c-1.4-0.1-2.4-1.3-2.3-2.8c0.1-1.6,1.4-3,2.9-2.9
		C455.9,185.2,456.9,186.4,456.8,188z"/>
	<path class="st1" d="M836.8,203.6c-1.4,0-2.4-1-2.4-2.4c0-1.5,1.2-2.8,2.7-2.7c1.3,0,2.1,1,2.2,2.3
		C839.3,202.3,838.2,203.6,836.8,203.6z"/>
	<path class="st1" d="M848.1,240.8c0-1.6,1.1-2.9,2.5-2.9c1.3,0,2.2,1.2,2.2,2.6c0,1.5-1.1,2.7-2.4,2.8
		C849,243.3,848.1,242.2,848.1,240.8z"/>
	<path class="st1" d="M612.3,193.3c0.1,5.8,0.1,11.7-1.5,17.4c-0.4,1.6-1,3.2-1.9,4.6c-2.4,3.9-7.1,3.9-9.6,0.1
		c-1.5-2.2-2.1-4.8-2.5-7.4c-0.4-2.4-0.8-4.9-0.8-7.4c-0.3-7.3-0.4-14.7,0.8-22c0.3-1.7,0.8-3.4,1.3-5.1c0.3-0.9,0.8-1.8,1.3-2.5
		c2.5-3.7,7.1-3.7,9.5,0.1c0.9,1.4,1.6,3,1.9,4.6c0.7,3.4,1.1,6.8,1.4,10.2C612.4,188.4,612.3,190.9,612.3,193.3z"/>
	<g>
		<path class="st1" d="M688.9,282.4c-0.3-0.7-0.9-1.3-1.3-2c-14.2-20.1-28.3-40.1-42.5-60.2c-2.9-4.1-2.9-4.1,0-8.1
			c14.2-20.1,28.3-40.1,42.5-60.2c0.4-0.6,0.9-1.2,1.2-1.8c0.9-1.7,0.1-3.2-1.9-3.5c-0.8-0.1-1.6,0-2.4,0c-27,0-53.9,0-80.9,0
			c-25.6,0-51.2,0-76.8,0c-1.8,0-3.5,0-5.3,0c-2.6,0-3.2,0.6-3.2,3.3c0,2.8,0.1,5.6,0.1,8.4c0,19.8,0.1,39.5,0.1,59.3
			c0,21.3,0.1,42.6,0.1,63.8c0,3.6,0.5,4.1,4.1,4.1c54.1,0,108.3,0,162.4,0c0.6,0,1.3,0,1.9,0C688.7,285.3,689.6,283.9,688.9,282.4z
			 M579.8,240.6c0.7-0.7,1.3-1.3,1.8-1.8c1.8-1.7,4-2.6,6.5-2.5c3.6,0.1,6.2,2.3,7,5.8c0.3,1.3,0.4,2.7,0.4,4c0.1,3.7,0,7.4,0,11
			c0,2.3,0.1,2.4,2.4,2.6c0.6,0,1.3,0,1.6,0.3c0.4,0.4,0.5,1.2,0.4,1.7c-0.1,0.4-0.7,0.9-1.1,0.9c-4,0.1-8,0.1-12,0
			c-0.8,0-1.4-0.3-1.5-1.2c-0.1-0.9,0.2-1.6,1.3-1.7c0.4,0,0.8-0.1,1.4-0.2c0-4.8,0-9.4,0-14.1c0-0.5-0.2-1.1-0.4-1.6
			c-1.2-2.8-4.5-3.3-6.4-0.9c-1.1,1.4-1.5,3-1.5,4.7c0,3.3,0,6.6,0,9.8c0,2,0.1,2,2.2,2.2c2.1,0.2,2.2,0.3,1.6,2.9
			c-4.6,0.2-9.3,0.1-13.9,0c-0.1-0.6-0.3-0.9-0.3-1.2c0-0.4,0.1-0.8,0.1-1.3c0.8-0.2,1.6-0.4,2.6-0.7c0-0.8,0.1-1.6,0.1-2.3
			c0-4.2,0-8.3,0-12.5c0-2.4-0.3-2.7-2.7-2.9c-0.8-0.1-1.7,0.2-2-0.9c-0.3-1,0.1-1.7,1.2-1.9c2.7-0.4,5.3-1.3,7.7-2.4
			c0.7-0.3,1.7,0,2.7,0C579.5,237.8,579.7,239,579.8,240.6z M555,239.9c-1.8-1.2-3.8-0.8-5.9,0.2c0.3,0.9,0.6,1.6,0.8,2.3
			c0.5,1.5,0.3,2.9-0.9,3.9c-1.2,1.1-2.5,1.4-4,0.9c-1.5-0.5-2.2-1.7-2.3-3.3c-0.3-2.6,1-4.5,3.1-5.7c2.8-1.6,5.9-2.1,9-1.9
			c1.4,0.1,2.9,0.3,4.2,0.8c3.3,1,4.9,3.2,4.9,6.8c0.1,3.4,0,6.9,0,10.3c0,0.9,0,1.8,0.1,2.6c0.3,1.6,0.9,2,2.5,1.5
			c0.6-0.2,1.4-0.6,1.6,0.1c0.2,0.6,0,1.4-0.3,2c-2.2,3.4-7,3.6-9.6,0.4c-0.2-0.2-0.4-0.5-0.7-0.8c-0.6,0.5-1.2,0.9-1.7,1.3
			c-2.6,1.8-5.4,2.6-8.6,2.2c-6.5-0.8-7.2-7.2-4.4-10.8c1-1.3,2.4-2.4,3.9-3.1c2.3-1,4.8-1.7,7.2-2.4c0.8-0.3,1.7-0.4,2.8-0.7
			C556.7,244,557.4,241.5,555,239.9z M539,217.2c2.4-3.1,4.8-6.2,7.3-9.2c2.8-3.2,5.8-6.1,8.6-9.3c2.6-3,5.2-6.1,7.6-9.3
			c1.9-2.5,3-5.5,3.3-8.6c0.3-2.5-0.1-5-1.2-7.2c-1.7-3.6-5.2-5.4-9.1-4.7c-1.6,0.3-3.1,0.8-4.6,1.3c-0.7,0.2-1.2,0.7-1.8,1.2
			c-2.1,2-1.9,3.4,0.7,4.6c2.6,1.3,4.2,3.8,4,6.5c-0.2,2.6-2.2,5.2-4.8,6c-3.6,1.1-7.3-0.8-8.7-4.5c-1-2.7-0.8-5.5,0.2-8.2
			c2-5.6,6.3-8.8,11.8-10.3c5.6-1.6,11.3-1.2,16.7,0.9c10.4,4,11.5,14.3,7.7,21.3c-1.4,2.6-3.4,4.9-5.8,6.6c-4,3-8.2,5.9-12.3,8.8
			c-2.5,1.8-4.9,3.6-7.4,5.4c-0.4,0.3-0.9,0.6-1.4,0.9c0.1,0.2,0.2,0.3,0.3,0.5c0.4,0,0.7,0.1,1.1,0.1c5.9,0,11.8,0,17.8,0
			c3.6,0,5-1.1,5.8-4.7c0.4-1.5,0.6-3.1,0.9-4.8c1,0,1.9,0,3,0c-0.2,6.8-0.3,13.5-0.5,20.5c-13.4,0-26.6,0-39.9,0
			C537.7,219.7,538.1,218.4,539,217.2z M622.2,269.7c-0.7,0.1-1.4,0-2.2,0c-25.4,0-50.8,0-76.2,0c-1.2,0-2.4-0.1-3.7-0.2
			c0-1.3,0-2.3,0-3.5c27.9,0,55.6,0,83.6,0c0.1,0.7,0.3,1.2,0.3,1.8C624,269.4,623.7,269.6,622.2,269.7z M614.7,254.6
			c-1.7-0.5-3.4-0.9-5.1-1.4c-1.1-0.3-2.2-0.5-3.2-0.9c-5.8-2-6.2-8.3-3.9-11.8c2.3-3.6,7.1-5.4,11.4-4c0.9,0.3,1.8,0.7,2.8,1.1
			c2.9-2.1,3.4-1.9,3.9,1.5c0.2,1.3,0.4,2.7,0.5,4c0.1,0.8,0.5,1.8-0.6,2.3c-1.2,0.5-1.7-0.4-2.3-1.2c-0.9-1.1-1.7-2.4-2.8-3.3
			c-1-0.8-2.3-1.5-3.5-1.9c-1.3-0.5-2.7-0.2-3.9,0.6c-1.8,1.1-1.8,3.5,0,4.5c1,0.6,2.2,0.8,3.4,1.1c1.8,0.5,3.6,0.8,5.3,1.4
			c3.8,1.4,5.5,3.8,5.6,7.2c0,4.1-2,7.3-5.6,8.7c-2.9,1.1-5.9,1.1-8.9,0c-0.6-0.2-1.2-0.5-1.8-0.7c-0.7,0.4-1.3,0.8-1.9,1.1
			c-1.2,0.5-1.9,0.2-2.1-1c-0.5-2.8-0.8-5.7-1.1-8.4c2-0.8,1.9-0.7,2.9,0.5c1.4,1.7,2.7,3.6,4.4,5c1.8,1.5,4,2,6.3,1.1
			c1.5-0.6,2.2-1.5,2.2-2.8C616.7,255.9,616,255,614.7,254.6z M622,208.5c-1.1,2.6-2.7,5.1-4.5,7.3c-7.4,8.5-19.4,8.4-26.9-0.1
			c-3.5-4-5.5-8.8-6.5-13.9c-0.5-2.7-0.7-5.5-0.8-7.1c0.1-7,1-12.6,3.6-17.9c1.8-3.7,4.3-6.9,7.8-9.2c6.1-4,13.6-3.9,19.6,0.4
			c3.6,2.6,6.2,6,7.8,10.1C626,188.1,626.1,198.3,622,208.5z"/>
		<path class="st1" d="M549.2,256.5c0.2,2.1,1.5,3.3,3.6,3.1c1.8-0.1,2.7-1.3,3.2-2.7c0.8-2.3,0.8-4.6,0.5-7
			C551.9,249.6,548.9,252.4,549.2,256.5z"/>
	</g>
</g>
<path class="st0" d="M535.7,295c2.5,0,4.6,0,6.8,0c0.8,0,1.6,0,2.7,0c0,2.1,0,4,0,5.9c0,3.1,0,6.2-0.9,9.3
	c-2.8,9.5-11.2,16-21.1,16.2c-0.9,0-1.8,0-2.6,0c-133.7,0-267.4,0-401,0c-2.5,0-5-0.1-7.4-0.7c-10-2.4-17-11.3-17-21.7
	c0-24.6,0-49.3,0-73.9c0-33.7,0-67.4,0-101c0-9.6,4.5-16.6,13.1-20.9c2.5-1.2,5.1-1.8,7.9-1.9c1.1,0,2.2,0,3.4,0
	c133.8,0,267.5,0,401.3,0c2.7,0,5.5,0.1,8.1,0.8c8.9,2.3,15.6,10.6,16.2,19.9c0.2,3.3,0,6.7,0,10.3c-3.1,0-6.1,0-9.4,0
	c0-1.2,0-2.5,0-3.7c-0.1-2.5,0-5-0.4-7.4c-1.1-5.8-5.9-9.8-11.8-10.2c-1-0.1-1.9,0-2.9,0c-133.7,0-267.4,0-401,0
	c-1.6,0-3.2,0-4.8,0.4c-5.9,1.2-10.1,6.3-10.3,12.3c0,0.6,0,1.1,0,1.7c0,57.4,0,114.9,0,172.3c0,1.6,0.1,3.2,0.5,4.7
	c1.4,5.5,6.2,9.3,11.8,9.5c1,0,2.1,0,3.1,0c133.4,0,266.7,0,400.1,0c1,0,1.9,0,2.9,0c6.3,0.2,12.6-5.1,12.8-12.9
	C535.7,300.9,535.7,298.1,535.7,295z"/>
</svg>
